<mxfile host="app.diagrams.net" modified="2022-06-14T04:39:53.241Z" agent="5.0 (X11)" etag="uChcMuDlnzEcyGvK0dkW" version="19.0.3" type="github">
  <diagram id="A7jlSvWX7UoPv8jhLJ33" name="Page-1">
    <mxGraphModel dx="1663" dy="435" grid="1" gridSize="10" guides="1" tooltips="1" connect="1" arrows="1" fold="1" page="1" pageScale="1" pageWidth="850" pageHeight="1100" math="0" shadow="0">
      <root>
        <mxCell id="0" />
        <mxCell id="1" parent="0" />
        <mxCell id="fOmn5NKXTGddU6EdoQ0m-101" value="" style="rounded=0;whiteSpace=wrap;html=1;fontFamily=Courier New;fontSize=18;fontColor=#000000;strokeColor=#000000;strokeWidth=2;" parent="1" vertex="1">
          <mxGeometry x="180" y="143" width="1400" height="507" as="geometry" />
        </mxCell>
        <mxCell id="fOmn5NKXTGddU6EdoQ0m-110" value="" style="group;verticalAlign=top;labelPosition=center;verticalLabelPosition=top;align=center;horizontal=1;" parent="1" vertex="1" connectable="0">
          <mxGeometry x="500" y="160" width="690" height="470" as="geometry" />
        </mxCell>
        <mxCell id="fOmn5NKXTGddU6EdoQ0m-111" value="rabbitmq" style="rounded=1;whiteSpace=wrap;html=1;fontFamily=Courier New;fontSize=18;fontColor=#000000;strokeColor=#000000;strokeWidth=2;align=center;verticalAlign=top;" parent="fOmn5NKXTGddU6EdoQ0m-110" vertex="1">
          <mxGeometry width="690.0000000000002" height="470" as="geometry" />
        </mxCell>
        <mxCell id="fOmn5NKXTGddU6EdoQ0m-113" value="" style="shape=image;verticalLabelPosition=bottom;labelBackgroundColor=default;verticalAlign=top;aspect=fixed;imageAspect=0;image=data:image/png,iVBORw0KGgoAAAANSUhEUgAACWAAAAnsCAYAAABlP9jNAAAABHNCSVQICAgIfAhkiAAAAAlwSFlzAAAPAAAADwABF3EhcAAAABl0RVh0U29mdHdhcmUAd3d3Lmlua3NjYXBlLm9yZ5vuPBoAACAASURBVHic7N15sKV1fefxz+/0QmODsgrSoi0RiYpYjhgBt6i4MBQTBtOugwO93G5akXGrmGjV3KlUoqXWuKAIzTI6LrGK0ZmUKSnXGPeJlZlRMzVOrCjjBNAEcKIi273nN3/QkBZp6Pv0fe7vnOe8Xn9IU5b3vst/bj2nP/f7lNBcPT9H5oA8KovZmFEenprDU3Jkag5PckSSw5McmGTd7n8myUFJ1jRKBmbXrUlu2/3nnydZ2P3Pf0hyY5KbUnLT7j9fm5prs5Bry1X5eZNaAIAZVnfm6NyRjSnZmJINSY5IzZEpOTwlh+9+5rz7OXPd7v/ZwUlWt2oGZtYdSW7Z/edb7vn3uvsZs+Yfdj9r3pSaH6Xkh1nMteXK3NysGAAAAGAPpXXArKibsiqH5vjUnJSSk5I8PsnxSTYmWd80DqB/dw+yvp+S76TkO1mV75ZL8n9bhwEATLM6n9W5LidklJN2P2+emJrfyF3Pmgc+wP8cYNr9LMm1Sb6f5Lsp+W5qvp1j8sMyn3HbNAAAAGCWGGD1pG7JIzPK01NyakpOSc3j4sNvgHv7aZLvJPlGSr6e1fl6eX9uah0FADCp6pY8OqtzWpKnp+bk3PXLPWsbZwFMml+k5K+T/NfUfC0L+Vq5Kte3jgIAAACGywBrmdQLclwW8sKM8qzUPC3JhtZNAFOoJvlear6eki8m+WzZlRtbRwEAtFIvyAl7PGueluSo1k0AU+qHSb6W5C8yyjXl0lzXOggAAAAYDgOsjup5WZc1eXqS0zPK6al5cusmgAEap+S/Z5zPJ/l8NuRLZT4LraMAAPpS5/Kg3UOr01PyL5I8tnUTwED9IMmfpeZTWZevlItze+sgAAAAYHoZYC1BPS/rckCel5pNSc5OcnDrJoAZc1OST6fk6jws1xhjAQBDUF+bA/PLnL77WfOcJOtbNwHMmP+X5FMpuTo35zPl6tzROggAAACYLgZYD6DOZU1qzkjJS5KcFaMrgElxXUr+Uxbz8XJFvtk6BgBgKeqFOSB35KyM85KUnJnkwNZNACRJbk7Nf07y8WzIF8t8xq2DAAAAgMlngLUXdWeOzWJenppXJTm2dQ8A9+t7Kflgaq4su3Jj6xgAgL2pF+SELOT8lGxOcmTrHgDu13Wp+UjG+UC5Mv+ndQwAAAAwuQyw9lDnsiYl56RmW5LnxP8/ANPmtpR8Ismuclm+3DoGACDZfe3q9rw0NdtS8rTWPQAs2WKST6dmVzbk065iAQAAAPdmYJSkbs7BWZXNKXldkke07gFgWfyPlLwrNX9SduXO1jEAwOypc3lIas5LyRuTbGjdA8Cy+NvUXJySy8uu/LJ1DAAAADAZZnqAVefysCTbk1yU5JDGOQD044Yku7Iq7ykfyE9bxwAAw1cvyHFZzEVJtiZ5UOseAHpxY2quzGLeW67K9a1jAAAAgLZmcoBVd+bYLOQNuWt8dUDrHgBWxM9Tc0lK3lp25R9bxwAAw1N3ZGPG+f0kW5Ksat0DwIq4PcmHsjr/tlySH7eOAQAAANqYqQFWPT9HZnVen5KLkqxr3QNAEzel5B2pudjrIgCA5VDn8ogkb06yOcnqxjkAtHFLat6Xcd5erszNrWMAAACAlTUTA6w6l4ek5C2peVWSA1v3ADARbkjyhzkml5f5LLSOAQCmTz0/R2Zt5lOzNcna1j0ATIR/TPKOrM+/L+/Kra1jAAAAgJUx6AFWnc8oN+RfpebtSY5q3QPARPpeal5XLs81rUMAgOlQ57ImJeen5o+SHNG6B4CJ9HcpeXMuy4dLUlvHAAAAAP0a7ACr7shvZ5x3J3li6xYApsLnM85ryhX5X61DAIDJVbfl9JS8O8njW7cAMAVq/jI1F5Ur8s3WKQAAAEB/BjfAqjvy0Czm3Sl5WesWAKbO7Unelp/mj8vVuaN1DAAwOerWPDyjXJLkrNYtAEydcZIPZCG/X67Kz1vHAAAAAMtvUAOsOpdNSS6JV0AAsH++n1HmyqX5UusQAKCtmpRsz7bUvCPJg1v3ADDVbkjJq8tl+WTrEAAAAGB5DWKAVXdkY2ouTc0LWrcAMBg1yeVZyBv8hjIAzKa6JY/OquxK8uzWLQAMSMmf5c5sL1fl+tYpAAAAwPKY+gFW3ZbNKXlPkoNatwAwSNcmObfsyldbhwAAK6MmJdvympS8Lcm61j0ADNKNKdlaLsuftg4BAAAA9t/UDrDqXB6Smg+k5GWtWwAYvHGS9+WneWO5One0jgEA+lN35KEZ56okZ7ZuAWAmfDi35oLy4dzSOgQAAADobioHWHVrnpNRPpTk4a1bAJgp30rJK8pl+X7rEABg+dVteUFKPpjk6NYtAMyU7yV5RdmV/9Y6BAAAAOhmqgZYdT6jXJ/5JG9OMmqcA8Bs+nmSLWVXrm4dAgAsjzqXNSl5R2ouat0CwMy6I8nry668r3UIAAAAsHRTM8CqF+bBuS3/MSW/07oFAJLsSvLqsit3tg4BALqr5+fIrM3HU/Oc1i0AkORjSbaVXfll6xAAAABg303FAKtuzxNT88kkx7VuAYA9fDnjvLhckZ+0DgEAlq5uz8mp+USSR7RuAYA9fDurck75QH7QOgQAAADYNxP/Gr+6LS9NzddjfAXA5HlmRvlW3ZEntQ4BAJambs9car4W4ysAJs8Ts5hv1W05vXUIAAAAsG8meoBVt+WilHw0yYNatwDAXhybcb5St+es1iEAwAOrSalzmU/NZUnWtu4BgL04LCXX1O3Z0ToEAAAAeGAT+QrCOp/VuS4Xp/iAAYCpsZjkorIr728dAgDct3phDsht+Q8peVnrFgBYgvfmmLy2zGfcOgQAAAC4bxM3wKoX5sG5PVcneX7rFgBYspJ35mH5PR+MA8BkqXM5IsmfJjmtdQsALFnJR7M2W8rFub11CgAAAPDrJmqAVS/IoVnMNUme2roFADqr+ZNsyCvLfBZapwAASd2Zo7OQzyU5sXULAHRW86WsyVnlkvyidQoAAADwqyZmgFW35qiM8tkkJ7VuAYBl8KnckReXD+a21iEAMMvqljwyq/L5JI9u3QIAy+CrOSBnlovzs9YhAAAAwD+ZiAFW3Zljs5AvJDm+dQsALKNrsj4vKu/Kra1DAGAW1QtyQhbzuSTHtm4BgGVT8lepeWHZlRtbpwAAAAB3aT7AqhfkuCzmC0k2tm4BgB78eW7NWeXDuaV1CADMkrojJ2aczyc5qnULAPTguxnl9HJp/r51CAAAANB4gFV3ZEPG+UqSR7XsAIBelXwxt+dMryMEgJVRt+TRWZUvJ3lY6xYA6NF3sphnlytzc+sQAAAAmHWjVt+4np8jM87nYnwFwNDVPCcH5L/UC3NA6xQAGLq6M8dmVT4X4ysAhu+krMqn6+Yc3DoEAAAAZl2TAVY9L4dkTT6T5LEtvj8ArLiaF+T2fKzOZ3XrFAAYqro1R2Uhn4tX3AMwO56aVbmmnpv1rUMAAABglq34AKvuzEFZm88medJKf28AaOycXJdLa+NXAAPAENVX5fCM8udJTmjdAgArquRpOTBX+4UfAAAAaGdFB1h1U1blznwkyVNW8vsCwMQo2ZK5vKV1BgAMSd2UtbkzV8eVZQBm1xm5Lpe2jgAAAIBZtbIXsA7Nu1PyOyv6PQFg8vy7uj2vbB0BAENQk5JDc2WSZ7duAYCmSrbUubypdQYAAADMohV7BVKdy+uTvHOlvh8ATLg7U3JGuSxfaB0CANOszuWPkvxB6w4AmBA1Ja8sl+UjrUMAAABglqzIAKvO5ewkn8hKX9wCgMl2c2pOLZfnb1qHAMA0qttzfmquat0BABPmttQ8t1yer7cOAQAAgFnR+wCrXpATspi/TPLgvr8XAEyh/50D8lvl4vysdQgATJO6I0/KOF9LcmDrFgCYQD/JKE8ul+a61iEAAAAwC3q9SFV35qAs5pMxvgKAvTkht+dDdQVfCwwA066+KodnnE/G+AoA9uaojHN13ZS1rUMAAABgFvQ2wKpJyUKuSvK4vr4HAAzE2ZnL61pHAMA0qJuyKnfmY0k2tm4BgAl3ag7NO1pHAAAAwCzo7wLWXN6YZFNvXx8AhuVtdVue1ToCACbeofnjJM9vnQEAU+I1dS4vbx0BAAAAQ9fL647q1jw5o3wjyZo+vj4ADNT1WZOTyvtzU+sQAJhEdXuel5rPxKt7AWApbknNPyuX529ahwAAAMBQLfsFrHpu1meUj8X4CgCW6pjcmStaRwDAJKpzOSI1H4rxFQAs1fqUfLTO+bwWAAAA+rL8ryA8MO9N8phl/7oAMBvOrtuzpXUEAEygS5I8rHUEAEypk1PyltYRAAAAMFTL+pvDdVv+ZUo+uZxfEwBmkNdDAMAe6vbMpeay1h0AMOXGqXlOuTx/0ToEAAAAhmbZBlh1Rx6acf5nkiOW62sCwAz7Ro7J08t8xq1DAKCluiMbM85fJ1nfugUABuAHSZ5QduWXrUMAAABgSJbvFYSLeXeMrwBguZyaG/Kq1hEA0FzNpTG+AoDlclyS+dYRAAAAMDTLcgGrbssZKfn0cnwtAOAet2ScJ5Qr8sPWIQDQQt2eV6bmQ607AGBgFjPOU8sV+avWIQAAADAU+30Bq56b9Sl5/3LEAAC/Yn1GfsYCMJvqXI5IzTtbdwDAAK3KKFfVuaxpHQIAAABDsf+vIFyXtyZ51P6nAAD34Yy6LS9tHQEADbwnyZGtIwBgoE5K8trWEQAAADAU+/UKwro9j0vNt5OsXqYeAODXXZdbc0L5cG5pHQIAK6Fuy2kp+Wr285kVALhfv8hCTihX5frWIQAAADDt9u8CVs27YnwFAH3bkAPze60jAGAl1PmMUvKeGF8BQN8Oyqq8tXUEAAAADEHnAVady9lJnr+MLQDA3r2h7sjG1hEA0Lsbcn6Sk1tnAMBMKDm3zuWprTMAAABg2nUaYNVNWZvk7cvcAgDs3YEZ+81kAIatbs7BqfnD1h0AMENKSt5dXZ4EAACA/dLtAtZheXWS45c3BQB4AC+p23Nq6wgA6M3qvCnJw1pnAMBMqTkl2/KS1hkAAAAwzZb8m0313KzPgflBkof20AMA3L/Pl115XusIAFhudS5HJPlBkoNbtwDADPp+jsnjynwWWocAAADANFr6Bax1eU2MrwCgldPrjvx26wgA6MGbYnwFAK0cnxvy8tYRAAAAMK2WdAGrXpgH5/b8MMlhPfUAAA+k5mvl8jy9dQYALJe6M0dnIX+b5EGtWwBghl2bn+aEcnXuaB0CAAAA02ZpF7Buz+tifAUAbZU8rW7Pc1tnAMCyuTN/EOMrAGhtYw7Jv24dAQAAANNony9g1c05OKvzoySH9NgDAOyLkq+Uy/LM1hkAsL/q1hyVUa5Nsq51CwCQH+aYPKbMZ6F1CAAAAEyTfb+AtTpbY3wFAJOh5hl1a05pnQEA+22UC2N8BQCT4lG5IS9qHQEAAADTZp8GWHVTViV5dc8tAMBSrMprWycAwP6oc3lQku2tOwCAPdS8oXUCAAAATJt9u4B1WH43yXH9pgAAS1LzojqX32idAQCd1ZyX5IjWGQDArzi5bsuzWkcAAADANNm3AVZ1YQMAJtCqlFzYOgIAuqjzGaXk37TuAADuQ8nrWycAAADANHnAAVady1OTPHUFWgCAparZXHfmoNYZALBkN+SFSY5vnQEA3Kcz6wXeiAAAAAD7al8uYM31XgEAdHVwFvOS1hEAsGRjz5oAMMFGWczm1hEAAAAwLcr9/Zd1Zw7KQq5PcvAK9QAAS1XyzXJZTm2dAQD7qu7M0VnIj5Ksad0CAOzVj5M8ouzKna1DAAAAYNLd/wWshbwixlcAMNlqTqnb88TWGQCwzxayOcZXADDpjk7NGa0jAAAAYBrc/wCrZNsKdQAA+6PmvNYJALAv6l2XmM9v3QEA7IORz4cBAABgX+z1FYR1R07MON9dyRgAoLMbkxzj1RAATLq6Lc9KyZdadwAA+2Qx42woV+QnrUMAAABgku39AtZiXrKCHQDA/jkiJc9tHQEAD6h41gSAKbIqJS9qHQEAAACTbu8DrJLfXcEOAGB/1WxqnQAA96duyqok57TuAACWoOTFrRMAAABg0t3nAKvuyJOS/OYKtwAA++ecuilrW0cAwF4dkmcnOap1BgCwJM+oO7KhdQQAAABMsvu+gDX2W00AMIUOyWE5vXUEAOzVyLMmAEyhUcZeQwgAAAD3Z2+vIPRKCACYRtWH4gBMpjqfUWrObt0BAHTiWRMAAADux68NsOrWPCrJYxq0AAD775/XpLSOAIBf8+OcnOTI1hkAQCen1fNySOsIAAAAmFS/fgFrlDMbdAAAy+PobM9JrSMA4NeMc0brBACgs9VZk+e2jgAAAIBJdV+vIHzhilcAAMvJz3IAJk/x8wkAppqf5QAAALBXvzLAqhfmgCTPatQCACyHsQ/FAZgsdUsOS81TWncAAPvlhV55DwAAAPftVy9g3ZZnJDmoTQoAsCxKnlY35+DWGQBwj9V5XpJVrTMAgP3y8OzI41tHAAAAwCS69ysIXb8CgOm3JqtzausIALhH9awJAIOwmGe2TgAAAIBJNLrXv53WqAMAWE4lT2udAAB78KwJAEPgWRMAAADu0z0DrDqf1an5rZYxAMAyqT4UB2Ay1Avz4CQntu4AAJaFZ00AAAC4D/90Aevv8sQkB7VLAQCW0Sl1PqtbRwBAbs8pSVa1zgAAlsUj684c2zoCAAAAJs1ojz/57SUAGI71+XGe0DoCALyqCAAGZtGrhQEAAODeRnv8+eRmFQDA8ht7tTAAE2DsWRMABqXmKa0TAAAAYNLsOcA6qVkFANAHF7AAaK941gSAgfGsCQAAAPcySpI6lzVJHtu4BQBYXj4UB6CpuiWHJXl46w4AYFkZVwMAAMC93H0B6zeTrG0ZAgAsOwMsANpa4y9oAWCAjq478tDWEQAAADBJ7hpgVR+KA8AAHVp3ZEPrCABm2NizJgAM0kJObJ0AAAAAk2S0+z8f37gDAOhDdQULgKY8awLAEI0MsAAAAGBPd1/AOq5xBwDQh7Gf8QA05ecQAAxR8TMeAAAA9nT3AOtRjTsAgD6UbGydAMBM86wJAEPk82QAAAD4FXcNsPzlLAAM1cbWAQDMpjqfUZJjW3cAAL3Y2DoAAAAAJsmonpv1SY5sHQIA9GJj6wAAZtTfZ0OSta0zAIBeuIAFAAAAexhlXTYmKa1DAIBebGwdAMCMWvQXswAwYAfXV+Xw1hEAAAAwKUYZ5ZjWEQBAb46s52Vd6wgAZtDYsyYADNpCHt46AQAAACbFKMkRrSMAgB6t81vJADRQPGsCwKAtetYEAACAuxlgAcDQLfhQHIAmPGsCwJAZWwMAAMA9Rqn+UhYABm3kZz0ATfj5AwBDVvysBwAAgLuN4kNxABg2H4oD0IJf9gGAoXMBCwAAAHYbJTmsdQQA0CN/AQ5ACyPPmgAwcH7WAwAAwG6jJA9qHQEA9KhkfesEAGaSZ00AGDY/6wEAAGC3UZIDWkcAAD2qWds6AYAZNPasCQCDVjxrAgAAwN1GiQdlABg0AywAWvCXsgAwbMbWAAAAcI+RD8UBYPDWtA4AYCZ51gSAISsGWAAAAHC3kasYADBwxtYAtOHnDwAMmWdNAAAAuMcormIAwLD5rWQA2vCsCQBD5hd7AQAA4B6jJKV1BAAAAIPjWRMAhqz6WQ8AAAB3G7UOAAAAAAAAAAAAmFYGWAAwdDW1dQIAAAAAAADAUBlgAQAAAAAAAAAAdGSABQDD5wIWAAAAAAAAQE8MsAAAAAAAAAAAADoywAKAoasuYAEAAAAAAAD0xQALAAAAAAAAAACgIwMsABi64gIWAAAAAAAAQF8MsAAAAAAAAAAAADoywAKAoXMBCwAAAAAAAKA3BlgAAAAAAAAAAAAdGWABwNBVF7AAAAAAAAAA+mKABQAAAAAAAAAA0JEBFgAMnwtYAAAAAAAAAD0xwAIAAAAAAAAAAOjIAAsAhq66gAUAAAAAAADQFwMsAAAAAAAAAACAjgywAGDoigtYAAAAAAAAAH0xwAIAAAAAAAAAAOjIAAsAhs4FLAAAAAAAAIDeGGABAAAAAAAAAAB0ZIAFAENXXcACAAAAAAAA6IsBFgAAAAAAAAAAQEcGWAAwfC5gAQAAAAAAAPTEAAsAAAAAAAAAAKAjAywAGLrqAhYAAAAAAABAXwywAAAAAAAAAAAAOjLAAoChKy5gAQAAAAAAAPTFAAsAAAAAAAAAAKAjAywAGDoXsAAAAAAAAAB6Y4AFAAAAAAAAAADQkQEWAAxddQELAAAAAAAAoC8GWAAAAAAAAAAAAB0ZYAEAAAAAAAAAAHRkgAUAw+cVhAAAAAAAAAA9McACAAAAAAAAAADoyAALAIauuoAFAAAAAAAA0BcDLAAAAAAAAAAAgI4MsABg6IoLWAAAAAAAAAB9McACAAAAAAAAAADoyAALAIbOBSwAAAAAAACA3hhgAQAAAAAAAAAAdGSABQBDV13AAgAAAAAAAOiLARYAAAAAAAAAAEBHBlgAMHwuYAEAAAAAAAD0xAALAAAAAAAAAACgIwMsABi66gIWAAAAAAAAQF8MsAAAAAAAAAAAADoywAKAoSsuYAEAAAAAAAD0xQALAAAAAAAAAACgIwMsABg6F7AAAAAAAAAAemOABQAAAAAAAAAA0JEBFgAMXXUBCwAAAAAAAKAvBlgAAAAAAAAAAAAdGWABwPC5gAUAAAAAAADQEwMsAAAAAAAAAACAjgywAGDoqgtYAAAAAAAAAH0xwAIAAAAAAAAAAOjIAAsAhq64gAUAAAAAAADQFwMsAAAAAAAAAACAjgywAGDoXMACAAAAAAAA6I0BFgAAAAAAAAAAQEcGWAAwdNUFLAAAAAAAAIC+GGABAAAAAAAAAAB0ZIAFAMPnAhYAAAAAAABATwywAAAAAAAAAAAAOjLAAoChqy5gAQAAAAAAAPTFAAsAAAAAAAAAAKAjAywAGLriAhYAAAAAAABAXwywAAAAAAAAAAAAOjLAAoChcwELAAAAAAAAoDcGWAAAAAAAAAAAAB0ZYAHA0FUXsAAAAAAAAAD6YoAFAAAAAAAAAADQkQEWAAyfC1gAAAAAAAAAPTHAAgAAAAAAAAAA6MgACwCGrrqABQAAAAAAANAXAywAAAAAAAAAAICODLAAYOiKC1gAAAAAAAAAfTHAAgAAAAAAAAAA6MgACwCGzgUsAAAAAAAAgN4YYAEAAAAAAAAAAHRkgAUAQ1ddwAIAAAAAAADoiwEWAAAAAAAAAABARwZYADB0xQUsAAAAAAAAgL4YYAEAAAAAAAAAAHRkgAUAQzd2AQsAAAAAAACgLwZYAAAAAAAAAAAAHRlgAcDQFRewAAAAAAAAAPpigAUAAAAAAAAAANCRARYADJ0LWAAAAAAAAAC9McACAAAAAAAAAADoyAALAIZu7AIWAAAAAAAAQF8MsAAAAAAAAAAAADoywAKAoRu5gAUAAAAAAADQFwMsAAAAAAAAAACAjgywAGDoxi5gAQAAAAAAAPTFAAsAAAAAAAAAAKAjAywAGLriAhYAAAAAAABAXwywAAAAAAAAAAAAOjLAAoChcwELAAAAAAAAoDcGWAAAAAAAAAAAAB0ZYAHA0I1dwAIAAAAAAADoiwEWAAAAAAAAAABARwZYADB0IxewAAAAAAAAAPpigAUAAAAAAAAAANCRARYADN3YBSwAAAAAAACAvhhgAQAAAAAAAAAAdGSABQBDV1zAAgAAAAAAAOiLARYAAAAAAAAAAEBHBlgAMHQuYAEAAAAAAAD0xgALAAAAAAAAAACgIwMsABi6sQtYAAAAAAAAAH0xwAIAAAAAAAAAAOjIAAsAhm7kAhYAAAAAAABAXwywAAAAAAAAAAAAOjLAAoChG7uABQAAAAAAANAXAywAAAAAAAAAAICODLAAYOiKC1gAAAAAAAAAfTHAAgAAAAAAAAAA6MgACwCGzgUsAAAAAAAAgN4YYAEAAAAAAAAAAHRkgAUAQzd2AQsAAAAAAACgLwZYAAAAAAAAAAAAHRlgAcDQjVzAAgAAAAAAAOiLARYAAAAAAAAAAEBHBlgAMHRjF7AAAAAAAAAA+mKABQAAAAAAAAAA0JEBFgAMXXEBCwAAAAAAAKAvBlgAAAAAAAAAAAAdGWABwNC5gAUAAAAAAADQGwMsAAAAAAAAAACAjgywAGDoxi5gAQAAAAAAAPTFAAsAAAAAAAAAAKAjAywAGLqRC1gAAAAAAAAAfTHAAgAAAAAAAAAA6MgACwCGbuwCFgAAAAAAAEBfDLAAAAAAAAAAAAA6MsACgKErLmABAAAAAAAA9MUACwAAAAAAAAAAoCMDLAAYOhewAAAAAAAAAHpjgAUAAAAAAAAAANCRARYADN3YBSwAAAAAAACAvhhgAQAAAAAAAAAAdGSABQBDN3IBCwAAAAAAAKAvBlgAAAAAAAAAAAAdGWABwNCNXcACAAAAAAAA6IsBFgAAAAAAAAAAQEcGWAAwdMUFLAAAAAAAAIC+GGABAAAAAAAAAAB0ZIAFAEPnAhYAAAAAAABAbwywAAAAAAAAAAAAOjLAAoChG7uABQAAAAAAANAXAywAAAAAAAAAAICODLAAYOhGLmABAAAAAAAA9MUACwAAAAAAAAAAoCMDLAAYukUXsAAAAAAAAAD6YoAFAAAAAAAAAADQkQEWAAzdyAUsAAAAAAAAgL4YYAEAAAAAAAAAAHRkgAUAQ+cCFgAAAAAAAEBvDLAAAAAAAAAAAAA6MsACgKFbdAELAAAAAAAAoC8GWAAAAAAAAAAAAB0ZYAHA0I1cwAIAAAAAAADoiwEWAAAAAAAAAABARwZYADB0iy5gAQAAAAAAAPTFAAsAAAAAAAAAAKAjAywAGLqRC1gAAAAAAAAAfTHAAgAAAAAAAAAA6MgACwCGzgUsAAAAAAAAgN4YYAEAAAAAAAAAyRMniQAAIABJREFUAHRkgAUAQ7foAhYAAAAAAABAXwywAAAAAAAAAAAAOjLAAoChG7mABQAAAAAAANAXAywAAAAAAAAAAICODLAAYOgWXcACAAAAAAAA6IsBFgAAAAAAAAAAQEcGWAAwdCMXsAAAAAAAAAD6YoAFAAAAAAAAAADQkQEWAAydC1gAAAAAAAAAvTHAAgAAAAAAAAAA6MgACwCGbtEFLAAAAAAAAIC+GGABAAAAAAAAAAB0ZIAFAEM3cgELAAAAAAAAoC8GWAAAAAAAAAAAAB0ZYAHA0C26gAUAAAAAAADQFwMsABg6ryAEAAAAAAAA6I0BFgAAAAAAAAAAQEcGWAAwdC5gAQAAAAAAAPTGAAsAAAAAAAAAAKAjAywAGLpFF7AAAAAAAAAA+mKABQAAAAAAAAAA0JEBFgAM3cgFLAAAAAAAAIC+GGABAAAAAAAAAAB0ZIAFAEO36AIWAAAAAAAAQF8MsAAAAAAAAAAAADoywAKAoRu5gAUAAAAAAADQFwMsAAAAAAAAAACAjgywAGDoXMACAAAAAAAA6I0BFgAAAAAAAAAAQEcGWAAwdIsuYAEAAAAAAAD0xQALAAAAAAAAAACgIwMsABi6kQtYAAAAAAAAAH0xwAIAAAAAAAAAAOjIAAsAhm7RBSwAAAAAAACAvhhgAQAAAAAAAAAAdGSABQBDN3IBCwAAAAAAAKAvBlgAAAAAAAAAAAAdGWABwNCtcgELAAAAAAAAoC8GWAAAAAAAAAAAAB0ZYAHA0C24gAUAAAAAAADQFwMsAAAAAAAAAACAjgywAGDoRi5gAQAAAAAAAPTFAAsAAAAAAAAAAKAjAywAGLoFF7Dg/7N3B7d2VQEMRTk/jxAUZcCUFmiSJumBWQYIkfxI99CDJU+sterYsgEAAAAAAKBFgAUAAAAAAAAAABASYAHAug8WsAAAAAAAAABaBFgAAAAAAAAAAAAhARYArLOABQAAAAAAAFAjwAIAAAAAAAAAAAgJsABg3Q8LWAAAAAAAAAAtAiwAAAAAAAAAAICQAAsA1r0sYAEAAAAAAAC0CLAAAAAAAAAAAABCAiwAWPfDAhYAAAAAAABAiwALAAAAAAAAAAAgJMACgHUfLGABAAAAAAAAtAiwAAAAAAAAAAAAQgIsAFj3soAFAAAAAAAA0CLAAgAAAAAAAAAACAmwAGDduwUsAAAAAAAAgBYBFgAAAAAAAAAAQEiABQDrXhawAAAAAAAAAFoEWAAAAAAAAAAAACEBFgCse7eABQAAAAAAANAiwAIAAAAAAAAAAAgJsABg3csCFgAAAAAAAECLAAsAAAAAAAAAACAkwAKAdRawAAAAAAAAAGoEWAAAAAAAAAAAACEBFgCse7eABQAAAAAAANAiwAIAAAAAAAAAAAgJsABg3csCFgAAAAAAAECLAAsAAAAAAAAAACAkwAKAdd8tYAEAAAAAAAC0CLAAAAAAAAAAAABCAiwAWPezBSwAAAAAAACAFgEWAAAAAAAAAABASIAFAOssYAEAAAAAAADUCLAAAAAAAAAAAABCAiwAWPfNAhYAAAAAAABAiwALAAAAAAAAAAAgJMACgHUfLWABAAAAAAAAtAiwAAAAAAAAAAAAQgIsAFj3nwUsAAAAAAAAgBYBFgAAAAAAAAAAQEiABQDrPlrAAgAAAAAAAGgRYAEAAAAAAAAAAIQEWACw7hcLWAAAAAAAAAAtAiwAAAAAAAAAAICQAAsA1v1rAQsAAAAAAACgRYAFAAAAAAAAAAAQEmABwLpPFrAAAAAAAAAAWgRYAAAAAAAAAAAAIQEWAKz7xwIWAAAAAAAAQIsACwAAAAAAAAAAICTAAoB1v1rAAgAAAAAAAGgRYAEAAAAAAAAAAIQEWACw7rMFLAAAAAAAAIAWARYAAAAAAAAAAEBIgAUA675awAIAAAAAAABoEWABAAAAAAAAAACEBFgAsO6LBSwAAAAAAACAFgEWAAAAAAAAAABASIAFAOv+toAFAAAAAAAA0CLAAgAAAAAAAAAACAmwAGDdbxawAAAAAAAAAFoEWAAAAAAAAAAAACEBFgCs+90CFgAAAAAAAECLAAsAAAAAAAAAACAkwAKAdX9ZwAIAAAAAAABoEWABAAAAAAAAAACEBFgAsO4PC1gAAAAAAAAALQIsAAAAAAAAAACAkAALANb9aQELAAAAAAAAoEWABQAAAAAAAAAAEBJgAcC485MFLAAAAAAAAIAWARYAAAAAAAAAAEBIgAUAAAAAAAAAABASYAHANveDAAAAAAAAAEUCLAAAAAAAAAAAgJAACwC2WcACAAAAAAAAKBJgAQAAAAAAAAAAhARYALDNAhYAAAAAAABAkQALAAAAAAAAAAAgJMACgG0WsAAAAAAAAACKBFgAAAAAAAAAAAAhARYAbLOABQAAAAAAAFAkwAIAAAAAAAAAAAgJsABgmwUsAAAAAAAAgCIBFgAAAAAAAAAAQEiABQDbLGABAAAAAAAAFAmwAAAAAAAAAAAAQgIsANhmAQsAAAAAAACgSIAFAAAAAAAAAAAQEmABwDYLWAAAAAAAAABFAiwAAAAAAAAAAICQAAsAtlnAAgAAAAAAACgSYAEAAAAAAAAAAIQEWACwzQIWAAAAAAAAQJEACwAAAAAAAAAAICTAAoBtFrAAAAAAAAAAigRYAAAAAAAAAAAAIQEWAGyzgAUAAAAAAABQJMACAAAAAAAAAAAICbAAYJsFLAAAAAAAAIAiARYAAAAAAAAAAEBIgAUA2yxgAQAAAAAAABQJsAAAAAAAAAAAAEICLADYZgELAAAAAAAAoEiABQAAAAAAAAAAEBJgAcA2C1gAAAAAAAAARQIsAAAAAAAAAACAkAALALZZwAIAAAAAAAAoEmABAAAAAAAAAACEBFgAsM0CFgAAAAAAAECRAAsAAAAAAAAAACAkwAKAbRawAAAAAAAAAIoEWAAAAAAAAAAAACEBFgBss4AFAAAAAAAAUCTAAgAAAAAAAAAACAmwAGCbBSwAAAAAAACAIgEWAAAAAAAAAABASIAFANssYAEAAAAAAAAUCbAAAAAAAAAAAABCAiwA2GYBCwAAAAAAAKBIgAUAAAAAAAAAABASYAHANgtYAAAAAAAAAEUCLAAAAAAAAAAAgJAACwC2WcACAAAAAAAAKBJgAQAAAAAAAAAAhARYALDNAhYAAAAAAABAkQALAAAAAAAAAAAgJMACgG0WsAAAAAAAAACKBFgAAAAAAAAAAAAhARYAbLOABQAAAAAAAFAkwAIAAAAAAAAAAAgJsABgmwUsAAAAAAAAgCIBFgAAAAAAAAAAQEiABQDbLGABAAAAAAAAFAmwAAAAAAAAAAAAQgIsANhmAQsAAAAAAACgSIAFAAAAAAAAAAAQEmABwDYLWAAAAAAAAABFAiwAAAAAAAAAAICQAAsAtlnAAgAAAAAAACgSYAEAAAAAAAAAAIQEWACwzQIWAAAAAAAAQJEACwAAAAAAAAAAICTAAoBtFrAAAAAAAAAAigRYAAAAAAAAAAAAIQEWAGyzgAUAAAAAAABQJMACAAAAAAAAAAAICbAAYJsFLAAAAAAAAIAiARYAAAAAAAAAAEBIgAUA2yxgAQAAAAAAABQJsAAAAAAAAAAAAEICLADYZgELAAAAAAAAoEiABQAAAAAAAAAAEBJgAcA2C1gAAAAAAAAARQIsAAAAAAAAAACAkAALALZZwAIAAAAAAAAoEmABAAAAAAAAAACEBFgAsM0CFgAAAAAAAECRAAsAAAAAAAAAACAkwAKAbRawAAAAAAAAAIoEWAAAAAAAAAAAACEBFgBss4AFAAAAAAAAUCTAAgAAAAAAAAAACAmwAGCbBSwAAAAAAACAIgEWAAAAAAAAAABASIAFANssYAEAAAAAAAAUCbAAAAAAAAAAAABCAiwA2GYBCwAAAAAAAKBIgAUAAAAAAAAAABASYAHANgtYAAAAAAAAAEUCLAAAAAAAAAAAgJAACwC2WcACAAAAAAAAKBJgAQAAAAAAAAAAhARYALDsWMACAAAAAAAAaBJgAQAAAAAAAAAAhARYALDsWsACAAAAAAAAaBJgAQAAAAAAAAAAhARYALDNAhYAAAAAAABAkQALAAAAAAAAAAAgJMACgGXXAhYAAAAAAABAkwALAAAAAAAAAAAgJMACgGXHAhYAAAAAAABAkwALAAAAAAAAAAAgJMACgGUWsAAAAAAAAACqBFgAAAAAAAAAAAAhARYALLsWsAAAAAAAAACaBFgAAAAAAAAAAAAhARYAbLOABQAAAAAAAFAkwAIAAAAAAAAAAAgJsABg2bWABQAAAAAAANAkwAIAAAAAAAAAAAgJsABg2bGABQAAAAAAANAkwAIAAAAAAAAAAAgJsABgmQUsAAAAAAAAgCoBFgAAAAAAAAAAQEiABQDLrgUsAAAAAAAAgCYBFgAAAAAAAAAAQEiABQDbLGABAAAAAAAAFAmwAAAAAAAAAAAAQgIsAFh2LWABAAAAAAAANAmwAAAAAAAAAAAAQgIsAFh2LGABAAAAAAAANAmwAAAAAAAAAAAAQgIsAFhmAQsAAAAAAACgSoAFAAAAAAAAAAAQEmABwLJrAQsAAAAAAACgSYAFAAAAAAAAAAAQEmABwDYLWAAAAAAAAABFAiwAAAAAAAAAAICQAAsAll0LWAAAAAAAAABNAiwAAAAAAAAAAICQAAsAlh0LWAAAAAAAAABNAiwAAAAAAAAAAICQAAsAllnAAgAAAAAAAKgSYAEAAAAAAAAAAIQEWACw7FrAAgAAAAAAAGgSYAEAAAAAAAAAAIQEWACwzQIWAAAAAAAAQJEACwAAAAAAAAAAICTAAoBl1wIWAAAAAAAAQJMACwAAAAAAAAAAICTAAoBlxwIWAAAAAAAAQJMACwAAAAAAAAAAICTAAoBlFrAAAAAAAAAAqgRYAAAAAAAAAAAAIQEWACy7FrAAAAAAAAAAmgRYAAAAAAAAAAAAIQEWAGyzgAUAAAAAAABQJMACAAAAAAAAAAAICbAAYNm1gAUAAAAAAADQJMACAAAAAAAAAAAICbAAYNmxgAUAAAAAAADQJMACAAAAAAAAAAAICbAAYJkFLAAAAAAAAIAqARYAAAAAAAAAAEBIgAUAy64FLAAAAAAAAIAmARYAAAAAAAAAAEBIgAUA2yxgAQAAAAAAABQJsAAAAAAAAAAAAEICLABYdi1gAQAAAAAAADQJsAAAAAAAAAAAAEICLABYdixgAQAAAAAAADQJsAAAAAAAAAAAAEICLABYZgELAAAAAAAAoEqABQAAAAAAAAAAEBJgAcCyawELAAAAAAAAoEmABQAAAAAAAAAAEBJgAcA2C1gAAAAAAAAARQIsAAAAAAAAAACAkAALAJZdC1gAAAAAAAAATQIsAAAAAAAAAACAkAALAJYdC1gAAAAAAAAATQIsAFgmwAIAAAAAAACoEmABAAAAAAAAAACEBFgAsOxawAIAAAAAAABoEmABAAAAAAAAAACEBFgAsM0CFgAAAAAAAECRAAsAAAAAAAAAACAkwAKAZdcCFgAAAAAAAECTAAsAAAAAAAAAACAkwAKAZccCFgAAAAAAAECTAAsAAAAAAAAAACAkwAKAZRawAAAAAAAAAKoEWAAAAAAAAAAAACEBFgAsuxawAAAAAAAAAJoEWAAAAAAAAAAAACEBFgBss4AFAAAAAAAAUCTAAgAAAAAAAAAACAmwAGDZtYAFAAAAAAAA0CTAAgAAAAAAAAAACAmwAGDZsYAFAAAAAAAA0CTAAgAAAAAAAAAACAmwAGCZBSwAAAAAAACAKgEWAAAAAAAAAABASIAFAMuuBSwAAAAAAACAJgEWAAAAAAAAAABASIAFANssYAEAAAAAAAAUCbAAAAAAAAAAAABCAiwAWHYtYAEAAAAAAAA0CbAAAAAAAAAAAABCAiwAWHYsYAEAAAAAAAA0CbAAAAAAAAAAAABCAiwAWGYBCwAAAAAAAKBKgAUAAAAAAAAAABASYAHAsmsBCwAAAAAAAKBJgAUAAAAAAAAAABASYAHANgtYAAAAAAAAAEUCLAAAAAAAAAAAgJAACwCWXQtYAAAAAAAAAE0CLAAAAAAAAAAAgJAACwCWHQtYAAAAAAAAAE0CLAAAAAAAAAAAgJAACwCWWcACAAAAAAAAqBJgAQAAAAAAAAAAhARYALDsWsACAAAAAAAAaBJgAQAAAAAAAAAAhARYALDNAhYAAAAAAABAkQALAAAAAAAAAAAgJMACgGXXAhYAAAAAAABAkwALAAAAAAAAAAAgJMACgGXHAhYAAAAAAABAkwALAAAAAAAAAAAgJMACgGUWsAAAAAAAAACqBFgAAAAAAAAAAAAhARYALLsWsAAAAAAAAACaBFgAAAAAAAAAAAAhARYAbLOABQAAAAAAAFAkwAIAAAAAAAAAAAgJsABg2bWABQAAAAAAANAkwAIAAAAAAAAAAAgJsABg2bGABQAAAAAAANAkwAIAAAAAAAAAAAgJsABgmQUsAAAAAAAAgCoBFgAAAAAAAAAAQEiABQDLrgUsAAAAAAAAgCYBFgAAAAAAAAAAQEiABQDbLGABAAAAAAAAFAmwAAAAAAAAAAAAQgIsAFh2LWABAAAAAAAANAmwAAAAAAAAAAAAQgIsAFh2LGABAAAAAAAANAmwAAAAAAAAAAAAQgIsAFhmAQsAAAAAAACgSoAFAAAAAAAAAAAQEmABwLJrAQsAAAAAAACgSYAFAAAAAAAAAAAQEmABAAAAAAAAAACEBFgAsM0FIQAAAAAAAECRAAsAAAAAAAAAACAkwAKAZdcCFgAAAAAAAECTAAsAAAAAAAAAACAkwAKAZccCFgAAAAAAAECTAAsAAAAAAAAAACAkwAKAZRawAAAAAAAAAKoEWAAAAAAAAAAAACEBFgAsuxawAAAAAAAAAJoEWAAAAAAAAAAAACEBFgBss4AFAAAAAAAAUCTAAgAAAAAAAAAACAmwAGDZtYAFAAAAAAAA0CTAAgAAAAAAAAAACAmwAGDZsYAFAAAAAAAA0CTAAgAAAAAAAAAACAmwAGCZBSwAAAAAAACAKgEWAAAAAAAAAABASIAFAMuuBSwAAAAAAACAJgEWAAAAAAAAAABASIAFANssYAEAAAAAAAAUCbAAAAAAAAAAAABCAiwAWHYtYAEAAAAAAAA0CbAAAAAAAAAAAABCAiwAWHYsYAEAAAAAAAA0CbAAAAAAAAAAAABCAiwAWGYBCwAAAAAAAKBKgAUAAAAAAAAAABASYAHAsmsBCwAAAAAAAKBJgAUAAAAAAAAAABASYAHANgtYAAAAAAAAAEUCLAAAAAAAAAAAgJAACwCWXQtYAAAAAAAAAE0CLAAAAAAAAAAAgJAACwCWHQtYAAAAAAAAAE0CLAAAAAAAAAAAgJAACwCWWcACAAAAAAAAqBJgAQAAAAAAAAAAhARYALDsWsACAAAAAAAAaBJgAQAAAAAAAAAAhARYALDNAhYAAAAAAABAkQALAAAAAAAAAAAgJMACgGXXAhYAAAAAAABAkwALAAAAAAAAAAAgJMACgGXHAhYAAAAAAABAkwALAAAAAAAAAAAgJMACgGUWsAAAAAAAAACqBFgAAAAAAAAAAAAhARYALLsWsAAAAAAAAACaBFgAAAAAAAAAAAAhARYALDsWsAAAAAAAAACaBFgAAAAAAAAAAAAhARYALHssYAEAAAAAAAA0CbAAAAAAAAAAAABCAiwAWHYsYAEAAAAAAAA0CbAAAAAAAAAAAABCAiwAWGYBCwAAAAAAAKBKgAUAAAAAAAAAABASYAHAsscCFgAAAAAAAECTAAsAAAAAAAAAACAkwAKAZW8WsAAAAAAAAACaBFgAAAAAAAAAAAAhARYALHssYAEAAAAAAAA0CbAAAAAAAAAAAABCAiwAWHYsYAEAAAAAAAA0CbAAAAAAAAAAAABCAiwAWGYBCwAAAAAAAKBKgAUAAAAAAAAAABASYAHAsscCFgAAAAAAAECTAAsAAAAAAAAAACAkwAKAZW8WsAAAAAAAAACaBFgAAAAAAAAAAAAhARYALHssYAEAAAAAAAA0CbAAAAAAAAAAAABCAiwAWHYsYAEAAAAAAAA0CbAAAAAAAAAAAABCAiwAWGYBCwAAAAAAAKBKgAUAAAAAAAAAABASYAHAsscCFgAAAAAAAECTAAsAAAAAAAAAACAkwAKAZW8WsAAAAAAAAACaBFgAAAAAAAAAAAAhARYALHssYAEAAAAAAAA0CbAAAAAAAAAAAABCAiwAWHYsYAEAAAAAAAA0CbAAAAAAAAAAAABCAiwAWGYBCwAAAAAAAKBKgAUAAAAAAAAAABASYAHAsscCFgAAAAAAAECTAAsAAAAAAAAAACAkwAKAZW8WsAAAAAAAAACaBFgAAAAAAAAAAAAhARYALHssYAEAAAAAAAA0CbAAAAAAAAAAAABCAiwAWHYsYAEAAAAAAAA0CbAAAAAAAAAAAABCAiwAWGYBCwAAAAAAAKBKgAUAAAAAAAAAABASYAHAsscCFgAAAAAAAECTAAsAAID/2bv/YMvr+r7jr++5+3uBBRaCBK0ItAQNixV/Y2xSLQ02Vm3ZoDI4C9577gJFq2lSnLTJGmdqopOQH9IEkMRoEluwmTroRILpJFNQW4oZf0/amYZmKmSaYMn4Axb23k//IEyELsu9373f8znncx6Pv3bvveec13+7e+9z3wcAAAAAAOhJgAUALRu5gAUAAAAAAAAwJAEWAAAAAAAAAABATwIsAGjZqgtYAAAAAAAAAEMSYAEAAAAAAAAAAPQkwAKAlnUuYAEAAAAAAAAMSYAFAAAAAAAAAADQkwALAFrmAhYAAAAAAADAoARYAAAAAAAAAAAAPQmwAKBlqy5gAQAAAAAAAAxJgAUAAAAAAAAAANCTAAsAWjZyAQsAAAAAAABgSAIsAAAAAAAAAACAngRYANCyVRewAAAAAAAAAIYkwAIAAAAAAAAAAOhJgAUALetcwAIAAAAAAAAYkgALAAAAAAAAAACgJwEWALTMBSwAAAAAAACAQQmwAAAAAAAAAAAAehJgAUDLVl3AAgAAAAAAABiSAAsAAAAAAAAAAKAnARYAtGzkAhYAAAAAAADAkARYAAAAAAAAAAAAPQmwAKBlKy5gAQAAAAAAAAxJgAUAAAAAAAAAANCTAAsAWjZyAQsAAAAAAABgSAIsAAAAAAAAAACAngRYANAyF7AAAAAAAAAABiXAAgAAAAAAAAAA6EmABQAtW3EBCwAAAAAAAGBIAiwAAAAAAAAAAICeBFgA0LKRC1gAAAAAAAAAQxJgAQAAAAAAAAAA9CTAAoCWrbiABQAAAAAAADAkARYAAAAAAAAAAEBPAiwAaNnIBSwAAAAAAACAIQmwAAAAAAAAAAAAehJgAUDLXMACAAAAAAAAGJQACwAAAAAAAAAAoCcBFgC0bMUFLAAAAAAAAIAhCbAAAAAAAAAAAAB6EmABQMtGLmABAAAAAAAADEmABQAAAAAAAAAA0JMACwBatuICFgAAAAAAAMCQBFgAAAAAAAAAAAA9CbAAoGUjF7AAAAAAAAAAhiTAAgAAAAAAAAAA6EmABQAtcwELAAAAAAAAYFACLAAAAAAAAAAAgJ4EWADQshUXsAAAAAAAAACGJMACAAAAAAAAAADoSYAFAC0buYAFAAAAAAAAMCQBFgAAAAAAAAAAQE8CLABo2YoLWAAAAAAAAABDEmABAAAAAAAAAAD0JMACgJaNXMACAAAAAAAAGJIACwAAAAAAAAAAoCcBFgC0zAUsAAAAAAAAgEEJsAAAAAAAAAAAAHoSYAFAy1ZcwAIAAAAAAAAYkgALAAAAAAAAAACgJwEWALRs5AIWAAAAAAAAwJAEWAAAAAAAAAAAAD0JsACgZSsuYAEAAAAAAAAMSYAFAAAAAAAAAADQkwALAFo2cgELAAAAAAAAYEgCLAAAAAAAAAAAgJ4EWADQMhewAAAAAAAAAAYlwAIAAAAAAAAAAOhJgAUALVtxAQsAAAAAAABgSAIsAAAAAAAAAACAngRYANCykQtYAAAAAAAAAEMSYAEAAAAAAAAAAPQkwAKAlq24gAUAAAAAAAAwJAEWAAAAAAAAAABATwIsAGjZyAUsAAAAAAAAgCEJsAAAAAAAAAAAAHoSYAFAyxZcwAIAAAAAAAAYkgALAAAAAAAAAACgJwEWALTskAtYAAAAAAAAAEMSYAEAAAAAAAAAAPQkwAKAlo1cwAIAAAAAAAAYkgALAAAAAAAAAACgJwEWALTskAtYAAAAAAAAAEMSYAEAAAAAAAAAAPQkwAKAli24gAUAAAAAAAAwJAEWAAAAAAAAAABATwIsAGiZC1gAAAAAAAAAgxJgAQAAAAAAAAAA9CTAAoCWPeoCFgAAAAAAAMCQBFgAAAAAAAAAAAA9CbAAoGWbXMACAAAAAAAAGJIACwAAAAAAAAAAoCcBFgC07FEXsAAAAAAAAACGJMACAAAAAAAAAADoSYAFAC1bcAELAAAAAAAAYEgCLAAAAAAAAAAAgJ4EWADQsk0uYAEAAAAAAAAMSYAFAAAAAAAAAADQkwALAFr2iAtYAAAAAAAAAEMSYAEAAAAAAAAAAPQkwAKAlm1yAQsAAAAAAABgSAIsAAAAAAAAAACAngRYANCyR1zAAgAAAAAAABiSAAsAWuYtCAEAAAAAAAAGJcACAAAAAAAAAADoSYAFAC1zAQsAAAAAAABgUAIsAAAAAAAAAACAngRYANCyR1zAAgAAAAAAABiSAAsAAAAAAAAAAKAnARYAtGyTC1gAAAAAAAAAQxJgAQAAAAAAAAAA9CTAAoCWHXQBCwAAAAAAAGBIAiwAAAAAAAAAAICeBFgA0LLNLmABAAAAAAAADEmABQAAAAAAAAAA0JMACwBa5gIWAAAAAAAAwKAEWAAAAAAAAADKTa2UAAAgAElEQVQAAD0JsACgZQ+7gAUAAAAAAAAwJAEWAAAAAAAAAABATwIsAGjZFhewAAAAAAAAAIYkwAIAAAAAAAAAAOhJgAUALXvIBSwAAAAAAACAIQmwAAAAAAAAAAAAehJgAUDLtriABQAAAAAAADAkARYAAAAAAAAAAEBPAiwAaNlWF7AAAAAAAAAAhiTAAgAAAAAAAAAA6EmABQAt+7YLWAAAAAAAAABDEmABAAAAAAAAAAD0JMACgJZtcwELAAAAAAAAYEgCLAAAAAAAAAAAgJ4EWADQsm+6gAUAAAAAAAAwJAEWAAAAAAAAAABATwIsAGjZdhewAAAAAAAAAIYkwAIAAAAAAAAAAOhJgAUALdvpAhYAAAAAAADAkARYAAAAAAAAAAAAPQmwAKBl/9cFLAAAAAAAAIAhCbAAAAAAAAAAAAB6EmABQMuOdQELAAAAAAAAYEgCLAAAAAAAAAAAgJ4EWADQsj93AQsAAAAAAABgSAIsAAAAAAAAAACAngRYANCyE1zAAgAAAAAAABiSAAsAAAAAAAAAAKAnARYAtOx7XcACAAAAAAAAGJIACwAAAAAAAAAAoCcBFgC07CsuYAEAAAAAAAAMSYAFAAAAAAAAAADQkwALAFr2PBewAAAAAAAAAIYkwAIAAAAAAAAAAOhJgAUALTvgAhYAAAAAAADAkARYAAAAAAAAAAAAPQmwAKBhXVzAAgAAAAAAABiSAAsAAAAAAAAAAKAnARYAAAAAAAAAAEBPAiwAaJe3HwQAAAAAAAAYmAALAAAAAAAAAACgJwEWALTLBSwAAAAAAACAgQmwAAAAAAAAAAAAehJgAUC7XMACAAAAAAAAGJgACwAAAAAAAAAAoCcBFgC0ywUsAAAAAAAAgIEJsAAAAAAAAAAAAHoSYAFAu1zAAgAAAAAAABiYAAsAAAAAAAAAAKAnARYAtMsFLAAAAAAAAICBCbAAAAAAAAAAAAB6EmABQLtcwAIAAAAAAAAYmAALAAAAAAAAAACgJwEWALTLBSwAAAAAAACAgQmwAAAAAAAAAAAAehJgAUC7XMACAAAAAAAAGJgACwAAAAAAAAAAoCcBFgC0ywUsAAAAAAAAgIEJsAAAAAAAAAAAAHoSYAFAu1zAAgAAAAAAABiYAAsAAAAAAAAAAKAnARYAtMsFLAAAAAAAAICBCbAAAAAAAAAAAAB6EmABAAAwhK72AAAAAAAAmAQBFgC0y1sQAlDT5toDAAAAAABgEgRYANCuTbUHADDXttUeAAAAAAAAkyDAAoB2bak9AIC55s8hAAAAAADmggALANq1UPZmofYIAOZPSbokW2vvAAAAAACASRBgAUDLnun6CAAVXJNjExEwADStS1d7AgAAAEwLARYAtOxgdtWeAMAcOpSTak8AAAZWsqn2BAAAAJgWAiwAaNmj2V17AgBz6JA/fwCgeZ2LywAAAPA4ARYAtGzkB+AAVOECFgC0rsvW2hMAAABgWgiwAKBtfgAOwOSN8uzaEwCAgZVsrz0BAAAApoUACwBatppn1Z4AwBwqeU7tCQDA4E6sPQAAAACmhQALAFrWuUACQAVdTq89AQAY3O6SdLVHAAAAwDQQYAFAy/wAHIAaSs6oPQEAGNzmjHNc7REAAAAwDQRYANAybwEFwISVvVlI8tzaOwCAiTi19gAAAACYBgIsAGjbOeVANtUeAcAcOSlnJdlRewYAMAGuLgMAAEASARYAtG5r7stZtUcAMEdWc27tCQDAhLi6DAAAAEkEWADQvpI9tScAMEdKnl97AgAwMQIsAAAAiAALANrX5bzaEwCYIyUX1J4AAExIyfNqTwAAAIBpsKn2AABgcC+rPQCA+VDG2ZzkxbV3AAAT0rm4DAAAAIkLWAAwD15cDoiuAZiIFyTZUXsEADAxzyxXZ3ftEQAAAFCbAAsA2rcz/9vbEAIwAV1+sPYEAGDCDuX5tScAAABAbQIsAJgHo7yy9gQA5sBqfrj2BABgwkpeXnsCAAAA1CbAAoD54AfiAAyqXJFj0+WC2jsAgAnz5z8AAAAIsABgTryyjLOj9ggAGraQVyfZXHsGADBhJS8te7NQewYAAADUJMACgPmwLckP1R4BQMO6XFx7AgBQxa7syotqjwAAAICaBFgAMC+6vK72BADaVPZlW5Ifqb0DAKhkIRfVngAAAAA1CbAAYF6UXFz2ZkvtGQA0aGtek+S42jMAgEqKAAsAAID5JsACgPlxQk7M3689AoAGreZNtScAAFWdX67I99YeAQAAALUIsABgvlxSewAAbSmX5+R0+ce1dwAAVY2yKRfXHgEAAAC1CLAAYJ6U7C3XeIsoADbQ5rwl8Ra3AID/8AMAAMD8EmABwHzZmYPeJgqADXVF7QEAwFR4WXlrnl17BAAAANQgwAKA+bNYewAAbSjjXJjkubV3AABToctCLq89AgAAAGoQYAHA/Hlh2Z8X1x4BQAO6vLP2BABgqlxR9mah9ggAAACYNAEWAMyjVT8wB+DolHHOTcmFtXcAAFPlWTkhP1x7BAAAAEyaAAsA5tM/Lftzeu0RAMy0n0jS1R4BAEydt9UeAAAAAJMmwAKA+bQpq3lH7REAzKaymHOSvKn2DgBgKv2Dspg9tUcAAADAJAmwAGB+jcv+nFZ7BAAzaCEHkizUngEATKUuI297DwAAwHwRYAHA/NqW1byr9ggAZktZzJ6UXFx7BwAw1d5cFvOc2iMAAABgUgRYADDflnxTHIB1GeX98W9JAODINmeUf117BAAAAEyKb5oDwHzbklF+pvYIAGZDGef1SS6svQMAmAlvKVfm7NojAAAAYBIEWADApWUxL609AoDpVq7J1iTvr70DAJgZC1nJe2qPAAAAgEkQYAEAXRbygXLA3wsAOIKDuTbJWbVnAAAzZW9Zyt+rPQIAAACG5getAEBScn6+nn21ZwAwncpizknyrto7AIAZ1OUX/IcfAAAAWucfvgDAY7q8vyzmlNozAJgu5UBGGeXGJFtrbwEAZtILcl+Wa48AAACAIQmwAIDHnZiF/HLtEQBMmfvytiSvqD0DAJhp7y37c1rtEQAAADAUARYA8DdKfrSM8/raMwCYDmUxe5L8bO0dAMDM25WVXF97BAAAAAxFgAUAPNlNZZxTa48AoK6yL9syym/HWw8CABuhy+vKUi6tPQMAAACGIMACAJ7spCQfKklXewgAFW3JLyX5/tozAICGdLm+7M/ptWcAAADARhNgAQCHc2GW8mO1RwBQR1nO5UnGtXcAAM3ZldV8pOzNQu0hAAAAsJEEWADA4XV5b9mfH6w9A4DJKss5LyXX194BADTrFTkx76k9AgAAADaSAAsAeCqbspp/XxbzzNpDAJiMMs6pKfl4ku21twAADSu5tizn4tozAAAAYKMIsACAI/mejPKx8g4/iAdoXbksO9PltiTPrr0FAGhel5KbyzjfV3sIAAAAbAQBFgDwdF6Sb+XD5YC/NwC0quzNQrbnoyk5v/YWAGBuHJfkE+XynFx7CAAAABwtP0gFAJ5el4tzf36u9gwANl5JupyYX03y2tpbAIC5c2Y255NlnB21hwAAAMDREGABAGtT8i/KUt5eewYAG2ycX0zJUu0ZAMDcelG6/FY5kE21hwAAAEBfAiwAYO26XFfGWaw9A4CNUZbzb5K8rfYOAGDOlbwh9+XXywHfrwYAAGA2+QctALAeXZIbyjhvrj0EgP5K0pWl/HxK3lV7CwDAX7ssX8/15bF/dwIAAMBMEWABAOs1SvLhspR9tYcAsH4l6bKUX0qXd9beAgDwBF32Zzk3uIQFAADArPEPWQCgj4V0ubmMs1x7CABrV/ZlW8b5aLpcU3sLAMBhlSzl/ny4HMim2lMAAABgrQRYAEBfoyS/Wsb58dpDAHh65erszpbckeSS2lsAAI6o5NJ8PR8r4+yoPQUAAADWQoAFAByNLsn7yjgfKHuzUHsMAIdXlvO382juSvKK2lsAANaky+uS/GFZzCm1pwAAAMDTEWABABvh6pyQj5erckztIQA8UVnOa1Nyd5Kza28BAFinF2WUz5X9+f7aQwAAAOBIBFgAwEb5RzmUz5S35qzaQwBIyoGMynLenZKPJ9lVew8AQE+nZzWfK0t5Y+0hAAAA8FQEWADARjo3C7m7LOe1tYcAzLOyP6flvnw6JT+Vx94uFgBglu1Ml4+Wca4re7Ol9hgAAAB4MgEWALDRjk/Jx8s47y3jbK49BmDelKW8Iav5QpIfqr0FAGCD/fOcmM+UK721MgAAANNFgAUADKFLcm3iG+MAk1Kuzu6ylN9Ml99Nsrv2HgCAQZScn5XcU5YzLi59AgAAMCUEWADAkF6YldxTxrnSN8YBhlOW8sY8mq+my1tqbwEAmICdKbkhy/l0GefM2mMAAACgK+N8PsnfrT0EAGjenVnNuPtgvlZ7CEArymLOyUKuS8k/rL0FAKCSh9Ll3flGrutuzSO1xwAAADCfBFgAwCQdTPLe7Mz7uuvyUO0xALOq7Mvx2ZKfTnJ1ks219wAATIH/kS4/1t2Q22oPAQAAYP4IsACAGv4sXX4iN+SWLim1xwDMinJZdmZ7rkny40lOrL0HAGDqlNyR5Ce7m3J37SkAAADMDwEWAFBPyV3pcm13Y+6sPQVgmpVxdiQZJ7k2ySmV5wAATLuS5LZ0+anuhnyh9hgAAADaJ8ACAOoruSuP/Q/lP6o9BWCalMtzcjbn6jz2VoMn1d4DADBzSu7KKD+XG/IJF5gBAAAYigALAJgmv5/k53Nj7vCNcWCelf15cVazlOTSJNtr7wEAmHld7slqPpAut3Q35ju15wAAANAWARYAMI2+lC7XZUf+XXddHqo9BmAS/vra1SVJlpLsqb0HAKBRf5Xkd1LyG91Nubv2GAAAANogwAIAptmD6fI7Kbm5uzGfrz0GYKOVfTk+m/P6jPLGlLwqyabamwAA5sj/THJLRrml+7X8ce0xAAAAzC4BFgAwK76YLrdmNbd0N+W/1x4D0FdZznkpuSjJRUleHtEVAMA0+HqS25N8Kpvzn7rr80DtQQAAAMwOARYAMIu+kJLbspBP5Rn5L92BHKo9COBwyjXZmkdzXlZzQbr8QEouSPI9tXcBAHBEJcnX0uWulNyVki/kwXy1uzWP1B4GAADAdBJgAQCz7sEkf5CS/5yFfDar+ePuxjxaexQwX8q+HJ8tOSNdzkjJWSnZky57kpwdF64AAFrwaJI/SfK1JPem5N6Mcm+63J9R/jKH8kB3Y75TeSMAAACVCLAAgNZ8J13uScmX0+WLWclXsjVf9fYRzKqyL9uyPdvX/cCVbMtCj8cdyvaUbFv340YTflyX7UmPx5XsSJet63zU5qzmmHTpkhyfx4Kqk1KyO11OSvKMJLvWvQUAgNY8lOThJKtJ/qryFgAAYH48mC4lJYeSfDPJd5I8kC4PpOQvUvKXSe5Pyb05lD/tPpSH685tkwALAJgX30ryv9LlT1NyX7o8kNV8I8k30uWbKb2+Qb45XY7psaXf40q2pMvOXo8rPR7XZUvS83F9Xi/ZmmRHj9fr97jS83F9dz4WC60/iAIAAAAAANg4f54u96bka0m+lC5fzCP5Yvcb+Yvaw2aZAAsAAAAAAAAAAObb/Sn5r0nuTPKZbMs93a/kYO1Rs0KABQAAAAAAAAAAfLeHk/y3dLk9yadyaj7fHchq7VHTSoAFAAAAAAAAAAAcyf9JcntKPpGH88nuI/l27UHTRIAFAAAAAAAAAACs1cPp8ukkt2Yhv9v923yr9qDaBFgAAAAAAAAAAEAf30zJLSn5YPfBfK72mFoEWAAAAAAAAAAAwNH6UrrclIP5SPehPFh7zCSNag8AAAAAAAAAAABm3rkp+eVsyf1lnA+XK3N27UGTIsACAAAAAAAAAAA2yrYkl2UlXylLubUs5qW1Bw1NgAUAAAAAAAAAAGy0hXS5OKN8tizlzrKcV9YeNBQBFgAAAAAAAAAAMJwuF6Tkj8o4d5TFnF97zkYTYAEAAAAAAAAAAJPw6oxyd1nOb5XFPLP2mI0iwAIAAAAAAAAAACalS8mlGeVPylJ+tlyVY2oPOloCLAAAAAAAAAAAYNJ2pMu/zKF8pSznn9QeczQEWAAAAAAAAAAAQC1/KyX/oSzntll9W0IBFgAAAAAAAAAAUFfJj2SUL5elvL0cmK2maabGAgAAAAAAAAAAzdqVLr+Y+/L7ZX9Oqz1mrQRYAAAAAAAAAADANHlVVvPlspQ31h6yFgIsAAAAAAAAAABg2hyfLh8ty7mxjLOj9pgjEWABAAAAAAAAAADTqWQpyWfLOGfWnvJUBFgAAAAAAAAAAMA025Pk82Upb6g95HAEWAAAAAAAAAAAwLQ7Ll0+Vsb56ZJ0tcd8NwEWAAAAAAAAAAAwC0ZJDmQpt5R3ZHvtMY8TYAEAAAAAAAAAALOjy8X5dv6gXJ6Ta09JBFgAAAAAAAAAAMDseVk2584yzpm1hwiwAAAAAAAAAACAWfR3ktxVFrOn5ggBFgAAAAAAAAAAMKtOySh/WMZ5Sa0BAiwAAAAAAAAAAGCWnZDk9rI/F9R4cQEWAAAAAAAAAAAw63ZlNbeXpbx80i8swAIAAAAAAAAAAFqwM11+ryznhZN8UQEWAAAAAAAAAADQiuNS8ntlKc+b1AsKsAAAAAAAAAAAgJaclC53lCtzxiReTIAFAAAAAAAAAAC05tSs5JPlrTlx6BcSYAEAAAAAAAAAAC36vmzKfyzXZOuQLyLAAgAAAAAAAAAA2lTyAzmY3yxJN9RLCLAAAAAAAAAAAICWXZLl/ORQTy7AAgAAAAAAAAAA2lby7rKUi4Z4agEWAAAAAAAAAADQulG6/Ha5Mmds/BMDAAAAAAAAAAC074Ss5NbyjmzfyCcVYAEAAAAAAAAAAPPiBfl23reRTyjAAgAAAAAAAAAA5snVZTmv3agnE2ABAAAAAAAAAADzpEvJzeWqPGMjnkyABQAAAAAAAAAAzJuT82huLkl3tE8kwAIAAAAAAAAAAOZPl9dknLcc7dMIsAAAAAAAAAAAgHn1C2UxpxzNEwiwAAAAAAAAAACAeXViulx3NE8gwAIAAAAAAAAAAOZXlzeV5bym78MFWAAAAAAAAAAAwHwr+ZVyTbb2eagACwAAAAAAAAAAmHdn5GDe3ueBAiwAAAAAAAAAAIDkX5VxTl3vgwRYAAAAAAAAAAAAybEpec96HyTAAgAAAAAAAAAASJIu+8pizlnPQwRYAAAAAAAAAAAAj1nIQg6s5wECLAAAAAAAAAAAgMeV7C3LOW+tXy7AAgAAAAAAAAAA+BtdytqvYAmwAAAAAAAAAAAAnuh1a72CJcACAAAAAAAAAAB4oi6reedavlCABQAAAAAAAAAA8GRd3lSuyrOe7ssEWAAAAAAAAAAAAP+/zTmUf/Z0XyTAAgAAAAAAAAAAOLzlclWOOdIXCLAAAAAAAAAAAAAOb1dWcsmRvkCABQAAAAAAAAAA8FRKlo70aQEWAAAAAAAAAADAU3tJWcrzn+qTAiwAAAAAAAAAAIAju+KpPiHAAgAAAAAAAAAAOJIuby7jbD7cpwRYAAAAAAAAAAAAR7Y7XV51uE8IsAAAAAAAAAAAAJ5OyY8e7sMCLAAAAAAAAAAAgKf3hnJNtj75gwIsAAAAAAAAAACAp3d8DubVT/6gAAsAAAAAAAAAAGAturzmyR8SYAEAAAAAAAAAAKxFyUVP/pAACwAAAAAAAAAAYG2eU67M2d/9AQEWAAAAAAAAAADAWq088QqWAAsAAAAAAAAAAGDtLvzu3wiwAAAAAAAAAAAA1u6CsjcLj/9GgAUAAAAAAAAAALB2x+WEPPfx3wiwAAAAAAAAAAAA1qPLBY//UoAFAAAAAAAAAACwHkWABQAAAAAAAAAA0NdLHv+FAAsAAAAAAAAAAGB9ziyXZWciwAIAAAAAAAAAAFivUXbmeY/9AgAAAAAAAAAAgPUpOTcRYAEAAAAAAAAAAPQhwAIAAAAAAAAAAOil5OxEgAUAAAAAAAAAANDHcxIBFgAAAAAAAAAAQB/PLgcyEmABAAAAAAAAAACs37b8WZ4hwAIAAAAAAAAAAOhjIacLsAAAAAAAAAAAAProcpoACwAAAAAAAAAAoI8uuwVYAAAAAAAAAAAA/ZwkwAIAAAAAAAAAAOijuIAFAAAAAAAAAADQlwALAAAAAAAAAACgp2MFWAAAAAAAAAAAAP1sFWABAAAAAAAAAAD08//YuWMUO6sADMPfj6OiRBFGU0+wiwTBJbkDN2Mp7khkSJ0pBQkMaiwizLW5hVpYvEVuxOeBwznlt4CX854ACwAAAAAAAAAAoPEDFgAAAAAAAAAAQCTAAgAAAAAAAAAAiK4EWAAAAAAAAAAAAJEACwAAAAAAAAAAIBJgAQAAAAAAAAAARAIsAAAAAAAAAACASIAFAAAAAAAAAAAQCbAAAAAAAAAAAAAiARYAAAAAAAAAAEAkwAIAAAAAAAAAAIgEWAAAAAAAAAAAAJEACwAAAAAAAAAAIBJgAQAAAAAAAAAARAIsAAAAAAAAAACASIAFAAAAAAAAAAAQCbAAAAAAAAAAAAAiARYAAAAAAAAAAEAkwAIAAAAAAAAAAIgEWAAAAAAAAAAAAJEACwAAAAAAAAAAIBJgAQAAAAAAAAAARAIsAAAAAAAAAACASIAFAAAAAAAAAAAQCbAAAAAAAAAAAAAiARYAAAAAAAAAAEAkwAIAAAAAAAAAAIgEWAAAAAAAAAAAAJEACwAAAAAAAAAAIBJgAQAAAAAAAAAARAIsAAAAAAAAAACASIAFAAAAAAAAAAAQCbAAAAAAAAAAAAAiARYAAAAAAAAAAEAkwAIAAAAAAAAAAIgEWAAAAAAAAAAAAJEACwAAAAAAAAAAIBJgAQAAAAAAAAAARAIsAAAAAAAAAACASIAFAAAAAAAAAAAQCbAAAAAAAAAAAAAiARYAAAAAAAAAAEAkwAIAAAAAAAAAAIgEWAAAAAAAAAAAAJEACwAAAAAAAAAAIBJgAQAAAAAAAAAARAIsAAAAAAAAAACASIAFAAAAAAAAAAAQCbAAAAAAAAAAAAAiARYAAAAAAAAAAEAkwAIAAAAAAAAAAIgEWAAAAAAAAAAAAJEACwAAAAAAAAAAIBJgAQAAAAAAAAAARAIsAAAAAAAAAACASIAFAAAAAAAAAAAQCbAAAAAAAAAAAAAiARYAAAAAAAAAAEAkwAIAAAAAAAAAAIgEWAAAAAAAAAAAAJEACwAAAAAAAAAAIBJgAQAAAAAAAAAARAIsAAAAAAAAAACASIAFAAAAAAAAAAAQCbAAAAAAAAAAAAAiARYAAAAAAAAAAEAkwAIAAAAAAAAAAIgEWAAAAAAAAAAAAJEACwAAAAAAAAAAIBJgAQAAAAAAAAAARAIsAAAAAAAAAACASIAFAAAAAAAAAAAQCbAAAAAAAAAAAAAiARYAAAAAAAAAAEAkwAIAAAAAAAAAAIgEWAAAAAAAAAAAAJEACwAAAAAAAAAAIBJgAQAAAAAAAAAARAIsAAAAAAAAAACASIAFAAAAAAAAAAAQCbAAAAAAAAAAAAAiARYAAAAAAAAAAEAkwAIAAAAAAAAAAIgEWAAAAAAAAAAAAJEACwAAAAAAAAAAIBJgAQAAAAAAAAAARAIsAAAAAAAAAACASIAFAAAAAAAAAAAQCbAAAAAAAAAAAAAiARYAAAAAAAAAAEAkwAIAAAAAAAAAAIgEWAAAAAAAAAAAAJEACwAAAAAAAAAAIBJgAQAAAAAAAAAARAIsAAAAAAAAAACASIAFAAAAAAAAAAAQCbAAAAAAAAAAAAAiARYAAAAAAAAAAEAkwAIAAAAAAAAAAIgEWAAAAAAAAAAAAJEACwAAAAAAAAAAIBJgAQAAAAAAAAAARAIsAAAAAAAAAACASIAFAAAAAAAAAAAQCbAAAAAAAAAAAAAiARYAAAAAAAAAAEAkwAIAAAAAAAAAAIgEWAAAAAAAAAAAAJEACwAAAAAAAAAAIBJgAQAAAAAAAAAARAIsAAAAAAAAAACASIAFAAAAAAAAAAAQCbAAAAAAAAAAAAAiARYAAAAAAAAAAEAkwAIAAAAAAAAAAIgEWAAAAAAAAAAAAJEACwAAAAAAAAAAIBJgAQAAAAAAAAAARAIsAAAAAAAAAACASIAFAAAAAAAAAAAQCbAAAAAAAAAAAAAiARYAAAAAAAAAAEAkwAIAAAAAAAAAAIgEWAAAAAAAAAAAAJEACwAAAAAAAAAAIBJgAQAAAAAAAAAARAIsAAAAAAAAAACASIAFAAAAAAAAAAAQCbAAAAAAAAAAAAAiARYAAAAAAAAAAEAkwAIAAAAAAAAAAIgEWAAAAAAAAAAAAJEACwAAAAAAAAAAIBJgAQAAAAAAAAAARAIsAAAAAAAAAACASIAFAAAAAAAAAAAQCbAAAAAAAAAAAAAiARYAAAAAAAAAAEAkwAIAAAAAAAAAAIgEWAAAAAAAAAAAAJEACwAAAAAAAAAAIBJgAQAAAAAAAAAARAIsAAAAAAAAAACASIAFAAAAAAAAAAAQCbAAAAAAAAAAAAAiARYAAAAAAAAAAEAkwAIAAAAAAAAAAIgEWAAAAAAAAAAAAJEACwAAAAAAAAAAIBJgAQAAAAAAAAAARAIsAAAAAAAAAACASIAFAAAAAAAAAAAQCbAAAAAAAAAAAAAiARYAAAAAAAAAAEAkwAIAAAAAAAAAAIgEWAAAAAAAAAAAAJEACwAAAAAAAAAAIBJgAQAAAAAAAAAARAIsAAAAAAAAAACASIAFAAAAAAAAAAAQCbAAAAAAAAAAAAAiARYAAAAAAAAAAEAkwAIAAAAAAAAAAIgEWAAAAAAAAAAAAJEACwAAAAAAAAAAIBJgAQAAAAAAAAAARAIsAAAAAAAAAACASIAFAAAAAAAAAAAQCbAAAAAAAAAAAAAiARYAANqP1fwAACAASURBVAAAAAAAAEAkwAIAAAAAAAAAAIgEWAAAAAAAAAAAAJEACwAAAAAAAAAAIBJgAQAAAAAAAAAARAIsAAAAAAAAAACASIAFAAAAAAAAAAAQCbAAAAAAAAAAAAAiARYAAAAAAAAAAEAkwAIAAAAAAAAAAIgEWAAAAAAAAAAAAJEACwAAAAAAAAAAIBJgAQAAAAAAAAAARAIsAAAAAAAAAACASIAFAAAAAAAAAAAQCbAAAAAAAAAAAAAiARYAAAAAAAAAAEAkwAIAAAAAAAAAAIgEWAAAAAAAAAAAAJEACwAAAAAAAAAAIBJgAQAAAAAAAAAARAIsAAAAAAAAAACASIAFAAAAAAAAAAAQCbAAAAAAAAAAAAAiARYAAAAAAAAAAEAkwAIAAAAAAAAAAIgEWAAAAAAAAAAAAJEACwAAAAAAAAAAIBJgAQAAAAAAAAAARAIsAAAAAAAAAACASIAFAAAAAAAAAAAQCbAAAAAAAAAAAAAiARYAAAAAAAAAAEAkwAIAAAAAAAAAAIgEWAAAAAAAAAAAAJEACwAAAAAAAAAAIBJgAQAAAAAAAAAARAIsAAAAAAAAAACASIAFAAAAAAAAAAAQCbAAAAAAAAAAAAAiARYAAAAAAAAAAEAkwAIAAAAAAAAAAIgEWAAAAAAAAAAAAJEACwAAAAAAAAAAIBJgAQAAAAAAAAAARAIsAAAAAAAAAACASIAFAAAAAAAAAAAQCbAAAAAAAAAAAAAiARYAAAAAAAAAAEAkwAIAAAAAAAAAAIgEWAAAAAAAAAAAAJEACwAAAAAAAAAAIBJgAQAAAAAAAAAARAIsAAAAAAAAAACASIAFAAAAAAAAAAAQCbAAAAAAAAAAAAAiARYAAAAAAAAAAEAkwAIAAAAAAAAAAIgEWAAAAAAAAAAAAJEACwAAAAAAAAAAIBJgAQAAAAAAAAAARAIsAAAAAAAAAACASIAFAAAAAAAAAAAQCbAAAAAAAAAAAAAiARYAAAAAAAAAAEAkwAIAAAAAAAAAAIgEWAAAAAAAAAAAAJEACwAAAAAAAAAAIBJgAQAAAAAAAAAARAIsAAAAAAAAAACASIAFAAAAAAAAAAAQCbAAAAAAAAAAAAAiARYAAAAAAAAAAEAkwAIAAAAAAAAAAIgEWAAAAAAAAAAAAJEACwAAAAAAAAAAIBJgAQAAAAAAAAAARAIsAAAAAAAAAACASIAFAAAAAAAAAAAQCbAAAAAAAAAAAAAiARYAAAAAAAAAAEAkwAIAAAAAAAAAAIgEWAAAAAAAAAAAAJEACwAAAAAAAAAAIBJgAQAAAAAAAAAARAIsAAAAAAAAAACASIAFAAAAAAAAAAAQCbAAAAAAAAAAAAAiARYAAAAAAAAAAEAkwAIAAAAAAAAAAIgEWAAAAAAAAAAAAJEACwAAAAAAAAAAIBJgAQAAAAAAAAAARAIsAAAAAAAAAACASIAFAAAAAAAAAAAQCbAAAAAAAAAAAAAiARYAAAAAAAAAAEAkwAIAAAAAAAAAAIgEWAAAAAAAAAAAAJEACwAAAAAAAAAAIBJgAQAAAAAAAAAARAIsAAAAAAAAAACASIAFAAAAAAAAAAAQCbAAAAAAAAAAAAAiARYAAAAAAAAAAEAkwAIAAAAAAAAAAIgEWAAAAAAAAAAAAJEACwAAAAAAAAAAIBJgAQAAAAAAAAAARAIsAAAAAAAAAACASIAFAAAAAAAAAAAQCbAAAAAAAAAAAAAiARYAAAAAAAAAAEAkwAIAAAAAAAAAAIgEWAAAAAAAAAAAAJEACwAAAAAAAAAAIBJgAQAAAAAAAAAARAIsAAAAAAAAAACASIAFAAAAAAAAAAAQCbAAAAAAAAAAAAAiARYAAAAAAAAAAEAkwAIAAAAAAAAAAIgEWAAAAAAAAAAAAJEACwAAAAAAAAAAIBJgAQAAAAAAAAAARAIsAAAAAAAAAACASIAFAAAAAAAAAAAQCbAAAAAAAAAAAAAiARYAAAAAAAAAAEAkwAIAAAAAAAAAAIgEWAAAAAAAAAAAAJEACwAAAAAAAAAAIBJgAQAAAAAAAAAARAIsAAAAAAAAAACASIAFAAAAAAAAAAAQCbAAAAAAAAAAAAAiARYAAAAAAAAAAEAkwAIAAAAAAAAAAIgEWAAAAAAAAAAAAJEACwAAAAAAAAAAIBJgAQAAAAAAAAAARAIsAAAAAAAAAACASIAFAAAAAAAAAAAQCbAAAAAAAAAAAAAiARYAAAAAAAAAAEAkwAIAAAAAAAAAAIgEWAAAAAAAAAAAAJEACwAAAAAAAAAAIBJgAQAAAAAAAAAARAIsAAAAAAAAAACASIAFAAAAAAAAAAAQCbAAAAAAAAAAAAAiARYAAAAAAAAAAEAkwAIAAAAAAAAAAIgEWAAAAAAAAAAAAJEACwAAAAAAAAAAIBJgAQAAAAAAAAAARAIsAAAAAAAAAACASIAFAAAAAAAAAAAQCbAAAAAAAAAAAAAiARYAAAAAAAAAAEAkwAIAAAAAAAAAAIgEWAAAAAAAAAAAAJEACwAAAAAAAAAAIBJgAQAAAAAAAAAARAIsAAAAAAAAAACASIAFAAAAAAAAAAAQCbAAAAAAAAAAAAAiARYAAAAAAAAAAEAkwAIAAAAAAAAAAIgEWAAAAAAAAAAAAJEACwAAAAAAAAAAIBJgAQAAAAAAAAAARAIsAAAAAAAAAACASIAFAAAAAAAAAAAQCbAAAAAAAAAAAAAiARYAAAAAAAAAAEAkwAIAAAAAAAAAAIgEWAAAAAAAAAAAAJEACwAAAAAAAAAAIBJgAQAAAAAAAAAARAIsAAAAAAAAAACASIAFAAAAAAAAAAAQCbAAAAAAAAAAAAAiARYAAAAAAAAAAEAkwAIAAAAAAAAAAIgEWAAAAAAAAAAAAJEACwAAAAAAAAAAIBJgAQAAAAAAAAAARAIsAAAAAAAAAACASIAFAAAAAAAAAAAQCbAAAAAAAAAAAAAiARYAAAAAAAAAAEAkwAIAAAAAAAAAAIgEWAAAAAAAAAAAAJEACwAAAAAAAAAAIBJgAQAAAAAAAAAARAIsAAAAAAAAAACASIAFAAAAAAAAAAAQCbAAAAAAAAAAAAAiARYAAAAAAAAAAEAkwAIAAAAAAAAAAIgEWAAAAAAAAAAAAJEACwAAAAAAAAAAIBJgAQAAAAAAAAAARAIsAAAAAAAAAACASIAFAAAAAAAAAAAQCbAAAAAAAAAAAAAiARYAAAAAAAAAAEAkwAIAAAAAAAAAAIgEWAAAAAAAAAAAAJEACwAAAAAAAAAAIBJgAQAAAAAAAAAARAIsAAAAAAAAAACASIAFAAAAAAAAAAAQCbAAAAAAAAAAAAAiARYAAAAAAAAAAEAkwAIAAAAAAAAAAIgEWAAAAAAAAAAAAJEACwAAAAAAAAAAIBJgAQAAAAAAAAAARAIsAAAAAAAAAACASIAFAAAAAAAAAAAQCbAAAAAAAAAAAAAiARYAAAAAAAAAAEAkwAIAAAAAAAAAAIgEWAAAAAAAAAAAAJEACwAAAAAAAAAAIBJgAQAAAAAAAAAARAIsAAAAAAAAAACASIAFAAAAAAAAAAAQCbAAAAAAAAAAAAAiARYAAAAAAAAAAEAkwAIAAAAAAAAAAIgEWAAAAAAAAAAAAJEACwAAAAAAAAAAIBJgAQAAAAAAAAAARAIsAAAAAAAAAACASIAFAAAAAAAAAAAQCbAAAAAAAAAAAAAiARYAAAAAAAAAAEAkwAIAAAAAAAAAAIgEWAAAAAAAAAAAAJEACwAAAAAAAAAAIBJgAQAAAAAAAAAARAIsAAAAAAAAAACASIAFAAAAAAAAAAAQCbAAAAAAAAAAAAAiARYAAAAAAAAAAEAkwAIAAAAAAAAAAIgEWAAAAAAAAAAAAJEACwAAAAAAAAAAIBJgAQAAAAAAAAAARFeXHgAAAAAAAPyn3G/7aae93LGX2/k+7ecdu9/DXu/Yq23bsVd72OuLrgX+6d0de3R+f7hj7+9hH+/YZ9s+3WnXO3a97Xrb4/MNAMC/EGABAAAAAAB/9bDtxbbn2+7O77uddrc/dnd8v/tLjgPerNPX+2hXu9mxm532ZNuTbTfbnm77fNs7l9wHAPA2EGABAAAAAMD/1y/bfth2u2O3O+3HXe358e1+u/Qw4O1wfLdft92ez9+cvtkH+31fbPty27Ntz3baV9s+ebMrAQAuS4AFAAAA/MnencZcetZ1HP9dz4wUgoaIBFIaEzTyQkEDFoMJDSlLKUGqRgQXQIitwxa1aggQBJ8mEIOJUNKkzHOeZ8YWCASq0CDdkrKWHbqxFUqhBbFTSmmbtjB0lnP7giqytEyvmfv8z/L5JOf9793/xf3NdQCA1bEnyUcy5KNpuTTJJ9sk+6tHAYupvSF7k3zmrt//GV6UX800x2XI45Icl+TXk7SCiQAAM9GGHbksyaOrhwAAAAAAAEfcniQXpuWi7M8lbXeurx4ErJ7hlDwkLcdlLSdmyFOT/HL1JgCAI+hyARYAAAAAACyPg2m5IkPem2n+M1u5rCVD9SiA/++uF7KenOSkDDkhyVHVmwAADoMACwAAAAAAFtz+JBdnyDuzP+e2s3Jr9SCAQzX8ZX4h23NSkj9JcmLEWADA4hFgAQAAAADAAjqYIZ9Ick625e1tZ26sHgRwuIYdeUBa/iDJMzPkKUnuU70JAOAQCLAAAAAAAGCBXJ0hm9mWN4uugGU2nJwHZi3PTcspSR5ZvQcA4B4IsAAAAAAAYM7dmeQ9GTLJZt7XkqF6EMAsDafk2KxlR5I/T/Lz1XsAAH6MAAsAAAAAAObUdWk5IwdyVtuVm6vHAFQbduQBGfLstJya5OHVewAA7iLAAgAAAACAOXN5Wk7P0XlbW8+B6jEA82ZYz1r25Pcy5G+SPLl6DwCw8gRYAAAAAAAwB6ZpOT/TvLFt5uLqMQCLYtiR305yapI/S7K9eA4AsJoEWAAAAAAAUGhIy3mZ5lVtM1dUjwFYVMML87BM84okJyfZVr0HAFgpl69VLwAAAAAAgBV1cab5nbaRk8RXAIen7cx1bZIXZJrfTPKWJAerNwEAq0OABQAAAAAAs9RyUdby2DbJCW0rl1bPAVgmbStXtUn+Ii3HJnlP9R4AYDX4H2QAAAAAAJiNLyf5h7aR86qHACy7tpErk/zBsCOPTcvpGfK71ZsAgOXlBSwAAAAAABjXLWl5eW7Jb7WJ+Apgltokn8zReVxanpfkhuo9AMByasOOXJbk0dVDAAAAAABgyRxIsjv784/t3/Lt6jEAq254bu6f++WlSV6W5L7VewCApXG5AAsAAAAAAI68KzLNKW0rl1YPAeBHDSfn17ItkyRPqN4CACyFy/0FIQAAAAAAHDl77/q7wceIrwDmU9uVazLJk+76W8Kbq/cAAItPgAUAAAAAAEfGhzPkUW0jr2vn5GD1GADuXkuGtpE3J3lkkv+o3gMALDYBFgAAAAAAHJ7bM+TkTHJ828zV1WMAOHRtkj1tkj9Oy5/Ga1gAQCcBFgAAAAAA9BryqbQc2zazuyVD9RwA+rSNvCPb84gkF1ZvAQAWjwALAAAAAADuvYMZ8rq0HNc28pXqMQAcvnZmbsgkT8uQU5Psq94DACwOARYAAAAAANw7X880T2ibeXmbZH/1GACOnJYMbTNvzFqOTfK56j0AwGIQYAEAAAAAwKE7L/vyqLaVS6qHADCetjOfz/3z2CRnV28BAOafAAsAAAAAAH62IUNel4fm99tZubV6DADja2/I3jbJ89PygsSLhwDA3RNgAQAAAADAPbs5LU9rm3l5W8+0egwAs9U2Msk0T0pyQ/UWAGA+CbAAAAAAAODuXZFpHtM2cmH1EADqtK1ckrU8Ji2fqN4CAMwfARYAAAAAAPw0LRflQB7ftnJt9RQA6rWd+e/cJ8cneVv1FgBgvgiwAAAAAADgx7Vs5ug8ve3O7dVTAJgf7YzcmUmek+S06i0AwPwQYAEAAAAAwA8NSU5rG9nR1nOgegwA86clQ5tkPUNOTrK/eg8AUE+ABQAAAAAAP/C9DHlGm2S9eggA869tZneGnJTktuotAEAtARYAAAAAACR3ZJqT2mbeXT0EgMXRNnNRkickual6CwBQR4AFAAAAAMCquzXTnNC28v7qIQAsnjbJZZnm8Umur94CANQQYAEAAAAAsMpuTMvxbSufqB4CwOJqW7kq0xyX5NrqLQDA7AmwAAAAAABYVXsy5IltI1dWDwFg8bWtXJvk+CRfKZ4CAMyYAAsAAAAAgFX0zWzLcW0zX6geAsDyaJN8IwdyfJJrqrcAALMjwAIAAAAAYNV8Oy0ntjfla9VDAFg+bXeuz/Y8Mcl11VsAgNkQYAEAAAAAsEpuTfLUtpEvVg8BYHm1M/NfOZgTkuyp3gIAjE+ABQAAAADAqrgtazmxTXJZ9RAAll/blWuylqck+U71FgBgXAIsAAAAAABWwd5M8/S2M5+qHgLA6mg78/m0PDXJbdVbAIDxCLAAAAAAAFh207Q8p23lkuohAKyetpHPJPnDJPuqtwAA4xBgAQAAAACw3Fpe2jbyruoZAKyuNskH0vLi6h0AwDgEWAAAAAAALK+WzbaR11fPAIC2kV1p+efqHQDAkSfAAgAAAABgWV2Qo702AsAc2cgrk7y1egYAcGQJsAAAAAAAWEZXZnue1dZzoHoIAPyvlgw5Kqck+Xj1FgDgyBFgAQAAAACwbG5J8ox2Zu6oHgIAP66dkTuzPX+U5PrqLQDAkSHAAgAAAABgmUzT8pw2yVerhwDA3Wln5oYMeWaSfdVbAIDDJ8ACAAAAAGCZrLeNnF89AgB+lraZjyV5WfUOAODwCbAAAAAAAFgOLe/NQ/Pa6hkAcKjaJKcnObt6BwBweARYAAAAAAAsg+tyZ57b1jOtHgIA98revCTJVdUzAIB+AiwAAAAAABbdNEOe387KrdVDAODeam/Jd7OWZyX5fvUWAKCPAAsAAAAAgMXW8pq2mQ9VzwCAXm1nPp8hr6reAQD0EWABAAAAALDIPpMhr6keAQCH7Zi8PsnF1TMAgHtPgAUAAAAAwKL6boY8u02yv3oIAByutp5pDuR5Sb5TvQUAuHcEWAAAAAAALKpT22aurh4BAEdK253r0/LC6h0AwL0jwAIAAAAAYPEM+WAm2VU9AwCOtLaRf0/Lu6t3AACHToAFAAAAAMCi2Ztp/qolQ/UQABjFkJckuaV6BgBwaARYAAAAAAAsliGvbrtyTfUMABhLm2RPkldU7wAADo0ACwAAAACARXJlWt5YPQIARjfJJC3vr54BAPxsAiwAAAAAABbFgQx5fptkf/UQABhbS4ZM86Ikd1ZvAQDumQALAAAAAIBFsdE2c0X1CACYlbaZq5O8oXoHAHDPBFgAAAAAACyCW5KsV48AgJnbntcm2VM9AwC4ewIsAAAAAAAWwXqb5KbqEQAwa+3M3JGWV1bvAADungALAAAAAIB596Ukb6oeAQBljs7ZST5dPQMA+OkEWAAAAAAAzLchf98m2V89AwCqtPVM0/K3SYbqLQDATxJgAQAAAAAwz97XNnNB9QgAqNY28vEk767eAQD8JAEWAAAAAADza5rTqicAwNwY8uok0+oZAMCPEmABAAAAADCfhpzftnJJ9QwAmBdtM19Ick71DgDgRwmwAAAAAACYT9u8fgUAP+EHr2AdqJ4BAPyQAAsAAAAAgHl0btuZT1WPAIB50zZzdZK3V+8AAH5IgAUAAAAAwLwZMs0/VY8AgDl2WryCBQBzQ4AFAAAAAMC8Ob9t5bPVIwBgXrVJvpoh51TvAAB+QIAFAAAAAMC8+dfqAQAw9wb3EgDmhQALAAAAAIB5cmUm+WD1CACYd20rl2ZwMwFgHgiwAAAAAACYJ//SkqF6BAAsCK9gAcAcEGABAAAAADAvvpnknOoRALAwNnNeki9WzwCAVSfAAgAAAABgXpzRJtlfPQIAFkVLhgw5vXoHAKw6ARYAAAAAAPNgX9ZyVvUIAFg4P5e3J7mtegYArDIBFgAAAAAA9VrObTtzY/UMAFg07czckZZ3VO8AgFUmwAIAAAAAoN40m9UTAGBhuaMAUEqABQAAAABAtWtzTN5fPQIAFlXbzKeTXF69AwBWlQALAAAAAIBaQzbbeqbVMwBgwe2uHgAAq0qABQAAAABApWkO5uzqEQCw8PblrUnurJ4BAKtIgAUAAAAAQKUPtd25vnoEACy6dlZuTXJR9Q4AWEUCLAAAAAAA6rS8s3oCACyNwV0FgAoCLAAAAAAAqhxMy7uqRwDA0jiY9yTZWz0DAFaNAAsAAAAAgCofaDtzY/UIAFgWbXduT3JB9Q4AWDUCLAAAAAAAqryjegAALB1/7wsAMyfAAgAAAACgwsEk51aPAICl8728N8n3q2cAwCoRYAEAAAAAMHstn26T3FQ9AwCWTXtLvpvkw9U7AGCVCLAAAAAAAJi9aS6ongAAS+zC6gEAsEoEWAAAAAAAVBBgAcB43FkAmCEBFgAAAAAAs3ZTjsml1SMAYFm1Sb6U5GvVOwBgVQiwAAAAAACYrZaL2nqm1TMAYMldVD0AAFaFAAsAAAAAgNma+iAMAKNr7i0AzIoACwAAAACA2Zrmw9UTAGDpHcgliRcnAWAWBFgAAAAAAMzS9W1Xvl49AgCWXduVm5N8uXoHAKwCARYAAAAAALPT8pHqCQCwQj5aPQAAVoEACwAAAACA2ZnmY9UTAGBlDAIsAJgFARYAAAAAALOz5kMwAMyMuwsAMyHAAgAAAABgVr6XIVdWjwCAlbGRa5LcWD0DAJadAAsAAAAAgNlo+WybZH/1DABYFS0ZklxWvQMAlp0ACwAAAACA2Rjy2eoJALCC3F8AGJkACwAAAACAWflc9QAAWDnN/QWAsQmwAAAAAACYjeYFDgAoIMACgJEJsAAAAAAAmI01H4ABYOZuzlVJ9lXPAIBlJsACAAAAAGAWvtHelFuqRwDAqmnnZF+Sq6t3AMAyE2ABAAAAADALX6oeAAAr7KrqAQCwzARYAAAAAACMb8jXqicAwAq7tnoAACwzARYAAAAAAONr+Xr1BABYYddVDwCAZSbAAgAAAABgfM3LGwBQxh0GgFEJsAAAAAAAGN/g5Q0AKOMOA8CoBFgAAAAAAIxv6sMvAJTZl+uSDNUzAGBZCbAAAAAAABjb3mzlxuoRALCq2ln5fpIbqncAwLISYAEAAAAAMLZvNa9uAEC1b1UPAIBlJcACAAAAAGBsN1UPAADcYwAYiwALAAAAAIBxtXynegIA4B4DwFgEWAAAAAAAjM2LGwBQzz0GgJEIsAAAAAAAGNfgxQ0AKOdFSgAYjQALAAAAAIBxCbAAoJ57DACjEWABAAAAADCullurJwDAyhtyS/UEAFhWAiwAAAAAAMZ2Z/UAAMA9BoCxCLAAAAAAABhXy77qCQCw8txjABiNAAsAAAAAgHENXtwAgHLuMQCMRoAFAAAAAMC4vLgBAPXW3GMAGIsACwAAAACAcU198AWAcl7AAoDRCLAAAAAAABibD74AUE2ABQCjEWABAAAAADCutUyrJwDAyms5WD0BAJaVAAsAAAAAAAAAAKCTAAsAAAAAAAAAAKCTAAsAAAAAAAAAAKCTAAsAAAAAAAAAAKCTAAsAAAAAAAAAAKCTAAsAAAAAAAAAAKCTAAsAAAAAAAAAAKCTAAsAAAAAAAAAAKCTAAsAAAAAAAAAAKCTAAsAAAAAAAAAAKCTAAsAAAAAAAAAAKCTAAsAAAAAAAAAAKCTAAsAAAAAAAAAAKCTAAsAAAAAAAAAAKCTAAsAAAAAAAAAAKCTAAsAAAAAAAAAAKCTAAsAAAAAAAAAAKCTAAsAAAAAAAAAAKCTAAsAAAAAAAAAAKCTAAsAAAAAAAAAAKCTAAsAAAAAAAAAAKCTAAsAAAAAAAAAAKCTAAsAAAAAAAAAAKCTAAsAAAAAAAAAAKCTAAsAAAAAAAAAAKCTAAsAAAAAAAAAAKCTAAsAAAAAAAAAAKCTAAsAAAAAAAAAAKCTAAsAAAAAAAAAAKCTAAsAAAAAAAAAAKCTAAsAAAAAAAAAAKCTAAsAAAAAAAAAAKCTAAsAAAAAAAAAAKCTAAsAAAAAAAAAAKCTAAsAAAAAAAAAAKCTAAsAAAAAAAAAAKCTAAsAAAAAAAAAAKCTAAsAAAAAAAAAAKCTAAsAAAAAAAAAAKCTAAsAAAAAAAAAAKCTAAsAAAAAAAAAAKCTAAsAAAAAAAAAAKCTAAsAAAAAAAAAAKCTAAsAAAAAAAAAAKCTAAsAAAAAAAAAAKCTAAsAAAAAAAAAAKCTAAsAAAAAAAAAAKCTAAsAAAAAAAAAAKCTAAsAAAAAAAAAAKCTAAsAAAAAAAAAAKCTAAsAAAAAAAAAAKCTAAsAAAAAAAAAAKCTAAsAAAAAAAAAAKCTAAsAAAAAAAAAAKCTAAsAAAAAAAAAAKCTAAsAAAAAAAAAAKCTAAsAAAAAAAAAAKCTAAsAAAAAAAAAAKCTAAsAAAAAAAAAAKCTAAsAAAAAAAAAAKCTAAsAAAAAAAAAAKCTAAsAAAAAAAAAAKCTAAsAAAAAAAAAAKCTAAsAAAAAAAAAAKCTAAsAAAAAAAAAAKCTAAsAAAAAAAAAAKCTAAsAAAAAAAAAAKCTAAsAAAAAAAAAAKCTAAsAAAAAAAAAAKCTAAsAAAAAAAAAAKCTAAsAAAAAAAAAAKCTAAsAAAAAAAAAAKCTAAsAAAAAAAAAAKCTAAsAAAAAAAAAAKCTAAsAAAAAAAAAAKCTAAsAAAAAAAAAAKCTAAsAAAAAAAAAAKCTAAsAAAAAAAAAAKCTAAsAAAAAAAAAAKCTAAsAAAAAAAAAAKCTAAsAAAAAAAAAAKCTAAsAAAAAAAAAAKCTAAsAAAAAAAAAAKCTAAsAAAAAAAAAAKCTAAsAAAAAAAAAAKCTAAsAAAAAAAAAAKCTgV8ARQAAIABJREFUAAsAAAAAAAAAAKCTAAsAAAAAAAAAAKCTAAsAAAAAAAAAAKCTAAsAAAAAAAAAAKCTAAsAAAAAAAAAAKCTAAsAAAAAAAAAAKCTAAsAAAAAAAAAAKCTAAsAAAAAAAAAAKCTAAsAAAAAAAAAAKCTAAsAAAAAAAAAAKCTAAsAAAAAAAAAAKCTAAsAAAAAAAAAAKCTAAsAAAAAAAAAAKCTAAsAAAAAAAAAAKCTAAsAAAAAAAAAAKCTAAsAAAAAAAAAAKCTAAsAAAAAAAAAAKCTAAsAAAAAAAAAAKCTAAsAAAAAAAAAAKCTAAsAAAAAAAAAAKCTAAsAAAAAAAAAAKCTAAsAAAAAAAAAAKCTAAsAAAAAAAAAAKCTAAsAAAAAAAAAAKCTAAsAAAAAAAAAAKCTAAsAAAAAAAAAAKCTAAsAAAAAAAAAAKCTAAsAAAAAAAAAAKCTAAsAAAAAAAAAAKCTAAsAAAAAAAAAAKCTAAsAAAAAAAAAAKCTAAsAAAAAAAAAAKCTAAsAAAAAAAAAAKCTAAsAAAAAAAAAAKCTAAsAAAAAAAAAAKCTAAsAAAAAAAAAAKCTAAsAAAAAAAAAAKCTAAsAAAAAAAAAAKCTAAsAAAAAAAAAAKCTAAsAAAAAAAAAAKCTAAsAAAAAAAAAAKCTAAsAAAAAAAAAAKCTAAsAAAAAAAAAAKCTAAsAAAAAAAAAAKCTAAsAAAAAAAAAAKCTAAsAAAAAAAAAAKCTAAsAAAAAAAAAAKCTAAsAAAAAAAAAAKCTAAsAAAAAAAAAAKCTAAsAAAAAAAAAAKCTAAsAAAAAAAAAAKCTAAsAAAAAAAAAAKCTAAsAAAAAAAAAAKCTAAsAAAAAAAAAAKCTAAsAAAAAAAAAAKCTAAsAAAAAAAAAAKCTAAsAAAAAAAAAAKCTAAsAAAAAAAAAAKCTAAsAAAAAAAAAAKCTAAsAAAAAAAAAAKCTAAsAAAAAAAAAAKCTAAsAAAAAAAAAAKCTAAsAAAAAAAAAAKCTAAsAAAAAAAAAAKCTAAsAAAAAAAAAAKCTAAsAAAAAAAAAAKCTAAsAAAAAAAAAAKCTAAsAAAAAAAAAAKCTAAsAAAAAAAAAAKCTAAsAAAAAAAAAAKCTAAsAAAAAAAAAAKCTAAsAAAAAAAAAAKCTAAsAAAAAAAAAAKCTAAsAAAAAAAAAAKCTAAsAAAAAAAAAAKCTAAsAAAAAAAAAAKCTAAsAAAAAAAAAAKCTAAsAAAAAAAAAAKCTAAsAAAAAAAAAAKCTAAsAAAAAAAAAAKCTAAsAAAAAAAAAAKCTAAsAAAAAAAAAAKCTAAsAAAAAAAAAAKCTAAsAAAAAAAAAAKCTAAsAAAAAAAAAAKCTAAsAAAAAAAAAAKCTAAsAAAAAAAAAAKCTAAsAAAAAAAAAAKCTAAsAAAAAAAAAAKCTAAsAAAAAAAAAAKCTAAsAAAAAAAAAAKCTAAsAAAAAAAAAAKCTAAsAAAAAAAAAAKCTAAsAAAAAAAAAAKCTAAsAAAAAAAAAAKCTAAsAAAAAAAAAAKCTAAsAAAAAAAAAAKCTAAsAAAAAAAAAAKCTAAsAAAAAAAAAAKCTAAsAAAAAAAAAAKCTAAsAAAAAAAAAAKCTAAsAAAAAAAAAAKCTAAsAAAAAAAAAAKCTAAsAAAAAAAAAAKCTAAsAAAAAAAAAAKCTAAsAAAAAAAAAAKCTAAsAAAAAAAAAAKCTAAsAAAAAAAAAAKCTAAsAAAAAAAAAAKCTAAsAAAAAAAAAAKCTAAsAAAAAAAAAAKCTAAsAAAAAAAAAAKCTAAsAAAAAAAAAAKCTAAsAAAAAAAAAAKCTAAsAAAAAAAAAAKCTAAsAAAAAAAAAAKCTAAsAAAAAAAAAAKCTAAsAAAAAAAAAAKCTAAsAAAAAAAAAAKCTAAsAAAAAAAAAAKCTAAsAAAAAAAAAAKCTAAsAAAAAAAAAAKCTAAsAAAAAAAAAAKCTAAsAAAAAAAAAAKCTAAsAAAAAAAAAAKCTAAsAAAAAAAAAAKCTAAsAAAAAAAAAAKCTAAsAAAAAAAAAAKCTAAsAAAAAAAAAAKCTAAsAAAAAAAAAAKCTAAsAAAAAAAAAAKCTAAsAAAAAAAAAAKCTAAsAAAAAAAAAAKCTAAsAAAAAAAAAAKCTAAsAAAAAAAAAAKCTAAsAAAAAAAAAAKCTAAsAAAAAAAAAAKCTAAsAAAAAAAAAAKCTAAsAAAAAgLFtqx4AACtvLdurJwDAshJgAQAAAAAwrmnuUz0BAFaeewwAoxFgAQAAAAAwrjUffAGgXMtR1RMAYFkJsAAAAAAAGNfUB18AKOcFLAAYjQALAAAAAIBxeQELAOp5AQsARiPAAgAAAABgXIMACwDKCbAAYDQCLAAAAAAAxuaDLwBU8xeEADAaARYAAAAAAGP7xeoBAEAeWD0AAJaVAAsAAAAAgHEN+aXqCQCw8pp7DABjEWABAAAAADC2B1UPAADcYwAYiwALAAAAAICx+eALAPXcYwAYiQALAAAAAIBx+csjAKjnHgPAaARYAAAAAACMzYsbAFBtcI8BYCwCLAAAAAAAxvbgIWnVIwBgxT24egAALCsBFgAAAAAAY7tvXpyHVI8AgFU1/F3ul7jFADAWARYAAAAAAOPbl4dVTwCAlXV7HhavUQLAaARYAAAAAACMb1t+pXoCAKwsdxgARiXAAgAAAABgfFMvYAFAGXcYAEYlwAIAAAAAYHzNh18AKLPmBSwAGJMACwAAAACA8Q0+/AJAGS9gAcCoBFgAAAAAAIyv5TeqJwDAymp5RPUEAFhmAiwAAAAAAGbhmGFHHlQ9AgBWzfDXOSrJw6t3AMAyE2AB/A97dxdjeV3fcfzzP/vAg6AsbrsRy3MTUR4UKmphVQooWKJi7dRedOuKM2cW7cqFSUlDG6bohRem1lYbxYrFeGExVittqNVCLNS0StSgMaleaNO627TShytFZH+92EXLKrD73Z3zOw+vV3KSmcmZ5HM1/5n5v/P7AwAAADAp5/ceAAAL56Gcm2Rj7xkAMM8EWAAAAAAATEbLBb0nAMACEkADwDoTYAEAAAAAMCluAAPA5Ln+AsA6E2ABAAAAADApbgADwKQ5gRIA1p0ACwAAAACAyRhyflvK5t4zAGBRtGTIkOf13gEA806ABQAAAADApByXLbmw9wgAWBjjPCvJz/SeAQDzToAFAAAAAMDkDLm09wQAWBiuuwAwEQIsAAAAAAAmp7kRDAAT47oLABMhwAIAAAAAYJLcCAaAydneewAALAIBFgAAAAAAk7StjXN27xEAMO/aOFuT/HzvHQCwCARYAAAAAABMVsuLe08AgLk35CVJht4zAGARCLAAAAAAAJisIVf1ngAAC+Dq3gMAYFEIsAAAAAAAmLSr2lI29B4BAHOtCZ4BYFIEWAAAAAAATNqWnJwX9B4BAPOqreTcJKf13gEAi0KABQAAAABADx6LBADr5xW9BwDAIhFgAQAAAAAwec2NYQBYN4PQGQAmSYAFAAAAAEAPv9CWs633CACYN+26nJhke+8dALBIBFgAAAAAAPQwyii/0nsEAMydDXlVkmN6zwCARSLAAgAAAACgj5Zf6z0BAObOkNf1ngAAi0aABQAAAABAH0Ne0q7LKb1nAMC8aDtzUpKX994BAItGgAUAAAAAQC+jbMpre48AgLmxKdfG4wcBYOIEWAAAAAAA9OMxhABw9AyuqwDQgwALAAAAAICeLmlvyqm9RwDArGtvztOTXNl7BwAsIgEWAAAAAAA9jfJw3tB7BADMvIezI8mm3jMAYBEJsAAAAAAA6GvIclvKht4zAGDGLfceAACLSoAFAAAAAEBvp+bkvKz3CACYVW0llyQ5t/cOAFhUAiwAAAAAAPprWek9AQBm1uD0KwDoSYAFAAAAAMA0eFW7Lqf0HgEAs6ZdlxOTLPXeAQCLTIAFAAAAAMA02JiN2dl7BADMnA3ZkeSE3jMAYJEJsAAAAAAAmBZvaTtzbO8RADAr2lpGGbK79w4AWHQCLAAAAAAApsW2bMqv9x4BADNjb65Nck7vGQCw6ARYAAAAAABMjyFvbcnQewYAzISWt/aeAAAIsAAAAAAAmC7nZTVX9R4BANOu7coLklzSewcAIMACAAAAAGDaOM0DAJ7cvtzYewIAsJ8ACwAAAACAaXNlW83ze48AgGnVxjknyat77wAA9hNgAQAAAAAwffbl93tPAIAptpZkQ+8RAMB+AiwAAAAAAKbPkF9uy3lx7xkAMG3aSs5NstR7BwDwYwIsAAAAAACm0yg3954AAFNnlLfFfV4AmCouzAAAAAAATKsr2q5c1nsEAEyLNs5Fabm29w4A4LEEWAAAAAAATK+WW3pPAIApckuSofcIAOCxBFgAAAAAAEyvlhe3lbym9wwA6K0t5/Ik1/TeAQD8JAEWAAAAAADTbcg7284c23sGAPTSlrIho7yr9w4A4KcTYAEAAAAAMO3OyjG5ofcIAOhmS8ZJLug9AwD46QRYAAAAAABMv5ab2jjP6D0DACatXZ8tSW7pvQMAeHwCLAAAAAAAZsGJSd7eewQATNy+3Jxka+8ZAMDjE2ABAAAAADArdrZxXth7BABMStuV89Lypt47AIAnJsACAAAAAGBWjJL8aVvK5t5DAGC9tbWMsi/vT7Kp9xYA4IkJsAAAAAAAmCXnZUtu7D0CANbdd7I7ySW9ZwAAT06ABQAAAADArLmpreY5vUcAwHpp45yWIW/rvQMAODQCLAAAAAAAZs0xST7Y1vyPG4C59Z4kJ/YeAQAcGn+cAgAAAAAwe1pelD25vvcMADja2mp+I8kre+8AAA6dAAsAAAAAgFn1zjbO+b1HAMDR0t6UU9PyR713AACHR4AFAAAAAMCsOjbJ7W0pm3sPAYAj1dYyysP5cJItvbcAAIdHgAUAAAAAwCy7MFvy9t4jAOCI7clNGXJZ7xkAwOETYAEAAAAAMOve2lZzRe8RAFDVVvP8JL/XewcAUCPAAgAAAABg1o3ScnsbZ2vvIQBwuNruPDUtH02yqfcWAKBGgAUAAAAAwDx4Zob8eVvLxt5DAOBQtWTIQ7ktydm9twAAdQIsAAAAAADmQ8vl+U7e3nsGAByycX4nyWt7zwAAjowACwAAAACA+THkt9s4S71nAMCTaau5IsktvXcAAEdOgAUAAAAAwDwZktzWVnJu7yEA8HjaOKel5aNJNvTeAgAcOQEWAAAAAADz5oQM+Vgb52m9hwDAwdo4xyf5RJKtvbcAAEeHAAsAAAAAgHn07LR8si1lc+8hAPCotpZRhnwkyUW9twAAR48ACwAAAACA+TTksmzJ+3rPAIAf2Zs/SMtres8AAI4uARYAAAAAAPPsDW01v9t7BAC0cVbTckPvHQDA0SfAAgAAAABgvrXc0layo/cMABZXG+eaJO/tvQMAWB8CLAAAAAAA5t2QIR9oq3lZ7yEALJ62K5cmuSPJht5bAID1IcACAAAAAGARHJOWT7aVvLT3EAAWR1vNc7MvdyY5vvcWAGD9CLAAAAAAAFgUx2fIp9pKLu49BID5167Ps9Ly6SRbem8BANaXAAsAAAAAgEXy1Az527YrF/YeAsD8auOcnUdyd5JtvbcAAOtPgAUAAAAAwKI5KftyV7s+z+o9BID508Y5LcnfJTml9xYAYDIEWAAAAAAALKJteSSfa6t5bu8hAMyPtpwzk9yT5PTeWwCAyRFgAQAAAACwqLal5Z62nBf1HgLA7GvLeXZGuTfJWb23AACTJcACAAAAAGCRbckon2nLubz3EABmVxvnoozy90me2XsLADB5AiwAAAAAABbdCRnlzraSq3oPAWD2tHG2J7k7ydbeWwCAPgRYAAAAAACQHJ8hn2or2dF7CACzo41zbZJPJ3la7y0AQD8CLAAAAAAA2G9zhtzexllrydB7DADTra3khiQfT3J87y0AQF8bew8AAAAAAIApMiS5Oas5vf1XVoeP5Qe9BwEwXdpSNuSkvCtDdvfeAgBMBydgAQAAAADAwVp25uTc1XbmpN5TAJgebUeeki35C/EVAPD/CbAAAAAAAOCnabk8m/P5Ns45vacA0F9bzpk5LvcleVXvLQDAdBFgAQAAAADA43t2ki+21fxq7yEA9NNW8oqMcn+S5/XeAgBMHwEWAAAAAAA8sRPSckcb591tLRt7jwFgcloytNXcmCF/leTk3nsAgOkkwAIAAAAAgCc3JHlL9uSuNs7W3mMAWH9tZ07KOH+ZlnfEfVUA4An4RQEAAAAAAA7dlUm+1lbyit5DAFg/bZwXZnPuT/LK3lsAgOknwAIAAAAAgMOzLUP+uo3z7rY7x/QeA8DR09aysa3mxiT3Jjm79x4AYDYIsAAAAAAA4PDtfyThQ7m/LeeC3mMAOHLtjTk9e3LPgUcObuq9BwCYHQIsAAAAAACoOy+j/GMb57famv+5A8yilgxtNW/IhjyQZHvvPQDA7PHHIAAAAAAAHJnjkvxx9uTetprn9B4DwKFryzkz4/xNWm5L8tTeewCA2STAAgAAAACAo+OStHylreQdbXeO6T0GgMfX1rKxreSGjPJAkpf33gMAzDYBFgAAAAAAHD2bMuTGPJT723Je1HsMAD+p7cqF2ZN/ypA/THJC7z0AwOwTYAEAAAAAwNF3Xkb5fBvnw22cZ/QeA0DS3piT2zjvzr58IclFvfcAAPNDgAUAAAAAAOtjSLIjyTfbOGttZ47tPQhgEbVxNrXVjLMh/5zkLUk29t4EAMwXARYAAAAAAKyvpyS5OZvzjbaa3+w9BmCRtJVcmeRLaXl/kq299wAA80mABQAAAAAAk3FqWm5v49zbxvml3mMA5llbzS+2cT6bIZ9Jcl7vPQDAfBNgAQAAAADAZG1PcndbyX1CLICjqy3ngjbOHWn5fJIreu8BABaDAAsAAAAAAHoYcmmSu9s4d7WVXNx7DsAsa6t5blvJJzPKV5Is9d4DACwWARYAAAAAAPR1dYZ8oa3kvraaV7Zk6D0IYFa0cba31dyZli9nyKvjZygA0MHG3gMAAAAAAIDsPxGr5VMZ55ut5b05IbcO78r3es8CmDZtLaPszTVpuSnJC9N6LwIAFt3QxvlSkgt7DwEAAAAAAB5jb5L3JPnQcGv29h4D0FsbZ2uS1yfZneT0znMAAB71ZQEWAAAAAABMt0eS3JPk1pySTwxr+WHvQQCT0tYyyp5ckmTHgddxnScBABxMgAUAAAAAADPkX5PclkfyoeGD+ZfeYwDWS9uVZ2ZfXp/kjUnO6r0HAOAJCLAAAAAAAGBGfT1DPpwhHxnel+/0HgNwpNqb8/T8MNckWUrL1Uk29t4EAHAIBFgAAAAAADDj9iW5L8kd2ZiPD3+Sf+89COBQtXG2puU1GfK6JJcl2dB5EgDA4RJgAQAAAADAnPl6Wu5M8tkM+dxwax7uPQjgUW0to/xbLsyGXJmWK5O8NMmm3rsAAI6AAAsAAAAAAObYf2d/iPXp7Mu9wwfyjd6DgMXTrs9Z2Zft2ZerM+RlSbb23gQAcBQJsAAAAAAAYIH8b5IvJvmHtNyXh3Pf8Gf5fu9RwPxoS9mQk3JORrk0LduTvCTJ6b13AQCsIwEWAAAAAAAssO8l+VpaHkjy1bR8NaM8MNya7/YeBky/dn225Ie5IEPOT3J+hlyQlvOTPKX3NgCACfryxt4LAAAAAACAbo5LcnGGXJwkGfZ/sY2zN8nXk3wrybeTfCst386Qbw23Zm+XpUAXbTnbkpyZIWdkyBlJzkxyRpLn5JH83KM/N/a/ucNAAIApIMACAAAAAAAO9owDrx/7cZz1/ST/keTBJP+ZlgeTfDdDHkzyYIb8IPvSMuR/Dnzf97Mv35vcdOAJHJshxx34+GkZMkrLprQ8PcOBV7I1yda0bE3ys8mP3g8AwOMQYAEAAAAAAIfj2CSnHXjlMaffJPtPwDn4RJyD3wNMh0dPrBoO+hwAgMMy6j0AAAAAAAAAAABgVgmwAAAAAAAAAAAAigRYAAAAAAAAAAAARQIsAAAAAAAAAACAIgEWAAAAAAAAAABAkQALAAAAAAAAAACgSIAFAAAAAAAAAABQJMACAAAAAAAAAAAoEmABAAAAAAAAAAAUCbAAAAAAAAAAAACKBFgAAAAAAAAAAABFAiwAAAAAAAAAAIAiARYAAAAAAAAAAECRAAsAAAAAAAAAAKBIgAUAAAAAAAAAAFAkwAIAAAAAAAAAACgSYAEAAAAAAAAAABQJsAAAAAAAAAAAAIoEWAAAAAAAAAAAAEUCLAAAAAAAAAAAgCIBFgAAAAAAAAAAQJEACwAAAAAAAAAAoEiABQAAAAAAAAAAUCTAAgAAAAAAAAAAKBJgAQAAAAAAAAAAFAmwAAAAAAAAAAAAigRYAAAAAAAAAAAARQIsAAAAAAAAAACAIgEWAAAAAAAAAABAkQALAAAAAAAAAACgSIAFAAAAAAAAAABQJMACAAAAAAAAAAAoEmABAAAAAAAAAAAUCbAAAAAAAAAAAACKBFgAAAAAAAAAAABFAiwAAAAAAAAAAIAiARYAAAAAAAAAAECRAAsAAAAAAAAAAKBIgAUAAAAAAAAAAFAkwAIAAAAAAAAAACgSYAEAAAAAAAAAABQJsAAAAAAAAAAAAIoEWAAAAAAAAAAAAEUCLAAAAAAAAAAAgCIBFgAAAAAAAAAAQJEACwAAAAAAAAAAoEiABQAAAAAAAAAAUCTAAgAAAAAAAAAAKBJgAQAAAAAAAAAAFAmwAAAAAAAAAAAAigRYAAAAAAAAAAAARQIsAAAAAAAAAACAIgEWAAAAAAAAAABAkQALAAAAAAAAAACgSIAFAAAAAAAAAABQJMACAAAAAAAAAAAoEmABAAAAAAAAAAAUCbAAAAAAAAAAAACKBFgAAAAAAAAAAABFAiwAAAAAAAAAAIAiARYAAAAAAAAAAECRAAsAAAAAAAAAAKBIgAUAAAAAAAAAAFAkwAIAAAAAAAAAACgSYAEAAAAAAAAAABQJsAAAAAAAAAAAAIoEWAAAAAAAAAAAAEUCLAAAAAAAAAAAgCIBFgAAAAAAAAAAQJEACwAAAAAAAAAAoEiABQAAAAAAAAAAUCTAAgAAAAAAAAAAKBJgAQAAAAAAAAAAFAmwAAAAAAAAAAAAigRYAAAAAAAAAAAARQIsAAAAAAAAAACAIgEWAAAAAAAAAABAkQALAAAAAAAAAACgSIAFAAAAAAAAAABQJMACAAAAAAAAAAAoEmABAAAAAAAAAAAUCbAAAAAAAAAAAACKBFgAAAAAAAAAAABFAiwAAAAAAAAAAIAiARYAAAAAAAAAAECRAAsAAAAAAAAAAKBIgAUAAAAAAAAAAFAkwAIAAAAAAAAAACgSYAEAAAAAAAAAABQJsAAAAAAAAAAAAIoEWAAAAAAAAAAAAEUCLAAAAAAAAAAAgCIBFgAAAAAAAAAAQJEACwAAAAAAAAAAoEiABQAAAAAAAAAAUCTAAgAAAAAAAAAAKBJgAQAAAAAAAAAAFAmwAAAAAAAAAAAAigRYAAAAAAAAAAAARQIsAAAAAAAAAACAIgEWAAAAAAAAAABAkQALAAAAAAAAAACgSIAFAAAAAAAAAABQJMACAAAAAAAAAAAoEmABAAAAAAAAAAAUCbAAAAAAAAAAAACKBFgAAAAAAAAAAABFAiwAAAAAAAAAAIAiARYAAAAAAAAAAECRAAsAAAAAAAAAAKBIgAUAAAAAAAAAAFAkwAIAAAAAAAAAACgSYAEAAAAAAAAAABQJsAAAAAAAAAAAAIoEWAAAAAAAAAAAAEUCLAAAAAAAAAAAgCIBFgAAAAAAAAAAQJEACwAAAAAAAAAAoEiABQAAAAAAAAAAUCTAAgAAAAAAAAAAKBJgAQAAAAAAAAAAFAmwAAAAAAAAAAAAigRYAAAAAAAAAAAARQIsAAAAAAAAAACAIgEWAAAAAAAAAABAkQALAAAAAAAAAACgSIAFAAAAAAAAAABQJMACAAAAAAAAAAAoEmABAAAAAAAAAAAUCbAAAAAAAAAAAACKBFgAAAAAAAAAAABFAiwAAAAAAAAAAIAiARYAAAAAAAAAAECRAAsAAAAAAAAAAKBIgAUAAAAAAAAAAFAkwAIAAAAAAAAAACgSYAEAAAAAAAAAABQJsAAAAAAAAAAAAIoEWAAAAAAAAAAAAEUCLAAAAAAAAAAAgCIBFgAAAAAAAAAAQJEACwAAAAAAAAAAoEiABQAAAAAAAAAAUCTAAgAAAAAAAAAAKBJgAQAAAAAAAAAAFAmwAAAAAAAAAAAAigRYAAAAAAAAAAAARQIsAAAAAAAAAACAIgEWAAAAAAAAAABAkQALAAAAAAAAAACgSIAFAAAAAAAAAABQJMACAAAAAAAAAAAoEmABAAAAAAAAAAAUCbAAAAAAAAAAAACKBFgAAAAAAAAAAABFAiwAAAAAAAAAAIAiARYAAAAAAAAAAECRAAsAAAAAAAAAAKBIgAUAAAAAAAAAAFAkwAIAAAAAAAAAACgSYAEAAAAAAAAAABQJsAAAAAAAAAAAAIoEWAAAAAAAAAAAAEUCLAAAAAAAAAAAgCIBFgAAAAAAAAAAQJEACwAAAAAAAAAAoEiABQAAAAAAAAAAUCTAAgAAAAAAAAAAKBJgAQAAAAAAAAAAFAmwAAAAAAAAAAAAigRYAAAAAAAAAAAARQIsAAAAAAAAAACAIgEWAAAAAAAAAABAkQALAAAAAAAAAACgSIAFAAAAAAAAAABQJMACAAAAAAAAAAAoEmABAAAAAAAAAAAUCbAAAAAAAAAAAACKBFgAAAAAAAAAAABFAiwAAAAAAAAAAIAiARYAAAAAAAAAAECRAAsAAAAAAAAAAKBIgAUAAAAAAAAAAFAkwAIAAAAAAAAAACgSYAEAAAAAAAAAABQJsAAAAAAAAAAAAIoEWAAAAAAAAAAAAEUCLAAAAAAAAAAAgCLJWa+3AAAXKUlEQVQBFgAAAAAAAAAAQJEACwAAAAAAAAAAoEiABQAAAAAAAAAAUCTAAgAAAAAAAAAAKBJgAQAAAAAAAAAAFAmwAAAAAAAAAAAAigRYAAAAAAAAAAAARQIsAAAAAAAAAACAIgEWAAAAAAAAAABAkQALAAAAAAAAAACgSIAFAAAAAAAAAABQJMACAAAAAAAAAAAoEmABAAAAAAAAAAAUCbAAAAAAAAAAAACKBFgAAAAAAAAAAABFAiwAAAAAAAAAAIAiARYAAAAAAAAAAECRAAsAAAAAAAAAAKBIgAUAAAAAAAAAAFAkwAIAAAAAAAAAACgSYAEAAAAAAAAAABQJsAAAAAAAAAAAAIoEWAAAAAAAAAAAAEUCLAAAAAAAAAAAgCIBFgAAAAAAAAAAQJEACwAAAAAAAAAAoEiABQAAAAAAAAAAUCTAAgAAAAAAAAAAKBJgAQAAAAAAAAAAFAmwAAAAAAAAAAAAigRYAAAAAAAAAAAARQIsAAAAAAAAAACAIgEWAAAAAAAAAABAkQALAAAAAAAAAACgSIAFAAAAAAAAAABQJMACAAAAAAAAAAAoEmABAAAAAAAAAAAUCbAAAAAAAAAAAACKBFgAAAAAAAAAAABFAiwAAAAAAAAAAIAiARYAAAAAAAAAAECRAAsAAAAAAAAAAKBIgAUAAAAAAAAAAFAkwAIAAAAAAAAAACgSYAEAAAAAAAAAABQJsAAAAAAAAAAAAIoEWAAAAAAAAAAAAEUCLAAAAAAAAAAAgCIBFgAAAAAAAAAAQJEACwAAAAAAAAAAoEiABQAAAAAAAAAAUCTAAgAAAAAAAAAAKBJgAQAAAAAAAAAAFAmwAAAAAAAAAAAAigRYAAAAAAAAAAAARQIsAAAAAAAAAACAIgEWAAAAAAAAAABAkQALAAAAAAAAAACgSIAFAAAAAAAAAABQJMACAAAAAAAAAAAoEmABAAAAAAAAAAAUCbAAAAAAAAAAAACKBFgAAAAAAAAAAABFAiwAAAAAAAAAAIAiARYAAAAAAAAAAECRAAsAAAAAAAAAAKBIgAUAAAAAAAAAAFAkwAIAAAAAAAAAACgSYAEAAAAAAAAAABQJsAAAAAAAAAAAAIoEWAAAAAAAAAAAAEUCLAAAAAAAAAAAgCIBFgAAAAAAAAAAQJEACwAAAAAAAAAAoEiABQAAAAAAAAAAUCTAAgDg/9q7t1hLz4KOw793Q62JiiSgpop4uDImEA2JMaJGLmwhaoxREo2HCNTBQ8CYSMQDsR4SEhUJqdbOntE2oqlaYoyIAoVEE0HxgEIFGtG0oQJSeoJCtNN2f15Mtwxl2pn97sM3a/o8V7PX+g7/uf/lXQAAAAAAAMAkARYAAAAAAAAAAMAkARYAAAAAAAAAAMAkARYAAAAAAAAAAMAkARYAAAAAAAAAAMAkARYAAAAAAAAAAMAkARYAAAAAAAAAAMAkARYAAAAAAAAAAMAkARYAAAAAAAAAAMAkARYAAAAAAAAAAMAkARYAAAAAAAAAAMAkARYAAAAAAAAAAMAkARYAAAAAAAAAAMAkARYAAAAAAAAAAMAkARYAAAAAAAAAAMAkARYAAAAAAAAAAMAkARYAAAAAAAAAAMAkARYAAAAAAAAAAMAkARYAAAAAAAAAAMAkARYAAAAAAAAAAMAkARYAAAAAAAAAAMAkARYAAAAAAAAAAMAkARYAAAAAAAAAAMAkARYAAAAAAAAAAMAkARYAAAAAAAAAAMAkARYAAAAAAAAAAMAkARYAAAAAAAAAAMAkARYAAAAAAAAAAMAkARYAAAAAAAAAAMAkARYAAAAAAAAAAMAkARYAAAAAAAAAAMAkARYAAAAAAAAAAMAkARYAAAAAAAAAAMAkARYAAAAAAAAAAMAkARYAAAAAAAAAAMAkARYAAAAAAAAAAMAkARYAAAAAAAAAAMAkARYAAAAAAAAAAMAkARYAAAAAAAAAAMAkARYAAAAAAAAAAMAkARYAAAAAAAAAAMAkARYAAAAAAAAAAMAkARYAAAAAAAAAAMAkARYAAAAAAAAAAMAkARYAAAAAAAAAAMAkARYAAAAAAAAAAMAkARYAAAAAAAAAAMAkARYAAAAAAAAAAMAkARYAAAAAAAAAAMAkARYAAAAAAAAAAMAkARYAAAAAAAAAAMAkARYAAAAAAAAAAMAkARYAAAAAAAAAAMAkARYAAAAAAAAAAMAkARYAAAAAAAAAAMAkARYAAAAAAAAAAMAkARYAAAAAAAAAAMAkARYAAAAAAAAAAMAkARYAAAAAAAAAAMAkARYAAAAAAAAAAMAkARYAAAAAAAAAAMAkARYAAAAAAAAAAMAkARYAAAAAAAAAAMAkARYAAAAAAAAAAMAkARYAAAAAAAAAAMAkARYAAAAAAAAAAMAkARYAAAAAAAAAAMAkARYAAAAAAAAAAMAkARYAAAAAAAAAAMAkARYAAAAAAAAAAMAkARYAAAAAAAAAAMAkARYAAAAAAAAAAMAkARYAAAAAAAAAAMAkARYAAAAAAAAAAMAkARYAAAAAAAAAAMAkARYAAAAAAAAAAMAkARYAAAAAAAAAAMAkARYAAAAAAAAAAMAkARYAAAAAAAAAAMAkARYAAAAAAAAAAMAkARYAAAAAAAAAAMAkARYAAAAAAAAAAMAkARYAAAAAAAAAAMAkARYAAAAAAAAAAMAkARYAAAAAAAAAAMAkARYAAAAAAAAAAMAkARYAAAAAAAAAAMAkARYAAAAAAAAAAMAkARYAAAAAAAAAAMAkARYAAAAAAAAAAMAkARYAAAAAAAAAAMAkARYAAAAAAAAAAMAkARYAAAAAAAAAAMAkARYAAAAAAAAAAMAkARYAAAAAAAAAAMAkARYAAAAAAAAAAMAkARYAAAAAAAAAAMAkARYAAAAAAAAAAMAkARYAAAAAAAAAAMAkARYAAAAAAAAAAMAkARYAAAAAAAAAAMAkARYAAAAAAAAAAMAkARYAAAAAAAAAAMAkARYAAAAAAAAAAMAkARYAAAAAAAAAAMAkARYAAAAAAAAAAMAkARYAAAAAAAAAAMAkARYAAAAAAAAAAMAkARYAAAAAAAAAAMAkARYAAAAAAAAAAMAkARYAAAAAAAAAAMAkARYAAAAAAAAAAMAkARYAAAAAAAAAAMAkARYAAAAAAAAAAMAkARYAAAAAAAAAAMAkARYAAAAAAAAAAMAkARYAAAAAAAAAAMAkARYAAAAAAAAAAMAkARYAAAAAAAAAAMAkARYAAAAAAAAAAMAkARYAAAAAAAAAAMAkARYAAAAAAAAAAMAkARYAAAAAAAAAAMAkARYAAAAAAAAAAMAkARYAAAAAAAAAAMAkARYAAAAAAAAAAMAkARYAAAAAAAAAAMAkARYAAAAAAAAAAMAkARYAAAAAAAAAAMAkARYAAAAAAAAAAMAkARYAAAAAAAAAAMAkARYAAAAAAAAAAMAkARYAAAAAAAAAAMAkARYAAAAAAAAAAMAkARYAAAAAAAAAAMAkARYAAAAAAAAAAMAkARYAAAAAAAAAAMAkARYAAAAAAAAAAMAkARYAAAAAAAAAAMAkARYAAAAAAAAAAMAkARYAAAAAAAAAAMAkARYAAAAAAAAAAMAkARYAAAAAAAAAAMAkARYAAAAAAAAAAMAkARYAAAAAAAAAAMAkARYAAAAAAAAAAMAkARYAAAAAAAAAAMAkARYAAAAAAAAAAMAkARYAAAAAAAAAAMAkARYAAAAAAAAAAMAkARYAAAAAAAAAAMAkARYAAAAAAAAAAMAkARYAAAAAAAAAAMAkARYAAAAAAAAAAMAkARYAAAAAAAAAAMAkARYAAAAAAAAAAMCkreqhtUcAAAAAAAAAAABsoAe3Wrp/7RUAAAAAAAAAAAAb6P6tRqfWXgEAAAAAAAAAALCBBFgAAAAAAAAAAACTTvkJQgAAAAAAAAAAgDn3bzW6b+0VAAAAAAAAAAAAG2fp41vVnWvvAAAAAAAAAAAA2EB3brV019orAAAAAAAAAAAANs7oLgEWAAAAAAAAAADAnLv8BCEAAAAAAAAAAMCM5fRPEH547R0AAAAAAAAAAAAbZ6sPbVW3rr0DAAAAAAAAAABg4yzdttXT+lB1/9pbAAAAAAAAAAAANsj/tt1/b42r2qluX3sNAAAAAAAAAADABrlt1LJV1eJnCAEAAAAAAAAAAPbg1qqth/+4ZcUhAAAAAAAAAAAAm2XpffWpAOvmFacAAAAAAAAAAABsmptrN8AavXvVKQAAAAAAAAAAAJtkOTPA+p/+rdpZcw8AAAAAAAAAAMCGeKjP6731cIA1Xtsnq/9cdRIAAAAAAAAAAMBm+I/x6v6ndk/Aqhr9w2pzAAAAAAAAAAAANsXSO3b/+akAa6e3rzIGAAAAAAAAAABgk2z1tk/98ywfAgAAAAAAAAAA8Kj+dvcfnwqwLuvm6mNrrAEAAAAAAAAAANgQ93RZt+z+8f8B1riqnUZ/v84mAAAAAAAAAACADTB627iqnd0/tz7ty6WbjnwQAAAAAAAAAADA5njzmX98eoA1+qsjnQIAAAAAAAAAALBJHvz0xmo88vvlWLdVX3ZUewAAAAAAAAAAADbErWO7rzzzg62zXPSmIxoDAAAAAAAAAACwSd7wyA8+M8Aa/cWRTAEAAAAAAAAAANgk43wCrLt7U3XPUewBAAAAAAAAAADYEHe19NZHfvgZAda4sVPVnx/JJAAAAAAAAAAAgE0w+tOx3QOP/PgzT8CqWvrjQx8EAAAAAAAAAACwOc7aVJ09wBq9pbr7MNcAAAAAAAAAAABsiDu6rL852xdnDbAePirrhkOdBAAAAAAAAAAAsBn+cFzVg2f74uwnYFXttH1ocwAAAAAAAAAAADbF0u8+2lePGmCNk727+sdDGQQAAAAAAAAAALAZ3j5O9J5H+/LRT8CqWjpx4HMAAAAAAAAAAAA2xTkaqscOsC7phupjB7kHAAAAAAAAAABgQ9zT/3bjY13wmAHWuKZPVNsHOgkAAAAAAAAAAGAz/M54bZ98rAse+wSs01e8pjp1UIsAAAAAAAAAAAA2wP3Vb53ronMGWOPaPlj9yUEsAgAAAAAAAAAA2AhLfzC2+/C5Ljv3CVinH/aqatnvJgAAAAAAAAAAgA2wVK8+nwvPK8AaJ/rX6vX7WQQAAAAAAAAAALAhXjdO9J7zufD8TsA67Reqnbk9AAAAAAAAAAAAG2Gn+pXzvfi8A6yx3c0t/enUJAAAAAAAAAAAgE0wumFsd/P5Xr6XE7Bqq1/MKVgAAAAAAAAAAMDF6aGWfnUvN+wpwBrHe291/V7uAQAAAAAAAAAA2AhLJ8Z2t+zllr2dgHX6jp+tPrbn+wAAAAAAAAAAAC5c9zZ6xV5v2nOANa7tjkav3Ot9AAAAAAAAAAAAF7BfGtvdudeb9n4CVtXdvbp6/9S9AAAAAAAAAAAAF5Zbqt+euXEqwBo3dqr6qZl7AQAAAAAAAAAALiBLo5eO7R6YuXnuBKxqbPeG6o9m7wcAAAAAAAAAALgA/P443k2zN08HWA97SfXRfT4DAAAAAAAAAABgDXf2QC/bzwP2FWCN7e6s/Q0AAAAAAAAAAABYxeil47r9HUA19rthqdGxXl99236fBQAAAAAAAAAAcET+bGz3Xft9yH5/grBRSw/0guq/9/ssAAAAAAAAAACAI/CRdvrRg3jQvgOsqnFdH230gmo5iOcBAAAAAAAAAAAckqXRC8fJPnIQDzuQAKtqHO+N1TUH9TwAAAAAAAAAAIBD8JvjeH95UA87sACrqs/pZdU7D/SZAAAAAAAAAAAAB+MdXdrPH+QDx0E+rGo51tOrf66eetDPBgAAAAAAAAAAmHRHOz1rnOy/DvKhB3sCVjW2+0Cj760eOuhnAwAAAAAAAAAATHio0Q8cdHxVhxBgVY3jvbWlVxzGswEAAAAAAAAAAPZk6eXjeDcdxqMP/CcIdy01+pGub/RDh/UOAAAAAAAAAACAc/i9sd2LDuvhh3ICVtWopdGV1VsP6x0AAAAAAAAAAACPaumvu6cfO8xXHNoJWLuWl/Sk7u9vq2cc9rsAAAAAAAAAAAAe9t5O9exxffce5ksO7QSsXePqPt5O31l96LDfBQAAAAAAAAAAUN3eE3vuYcdXdQQBVtU42a0tPaf6yFG8DwAAAAAAAAAAeNz6aDtdMa7p9qN42ZEEWFXjRP/eTpdXdx/VOwEAAAAAAAAAgMeVe9vqinGy9x3VC48swKoaJ3t3o2+vPnGU7wUAAAAAAAAAAC5697XVFePa/uUoX3qkAVbVON7fNXpOdddRvxsAAAAAAAAAALgo3dvoinFt/3DULx5H/cJdy4/0NY3eXH3BWhsAAAAAAAAAAICNd0ejy8fx3rXGy1cLsKqWY31VdVP1tDV3AAAAAAAAAAAAG+nDLX3rONF71hpw5D9BeKax3S3t9M3V+9bcAQAAAAAAAAAAbJx/q75+zfiqVg6wqsbJbu0JPbulv157CwAAAAAAAAAAsBHe2qm+aWz3gbWHrB5gVY3f6Z7u7YrqtWtvAQAAAAAAAAAALmCj66vnjeu7d+0pVWPtAWdaanSsn6t+uQskDgMAAAAAAAAAAC4ID1U/N7b7tbWHnOmCCrB2Lcd6TvVH1ReuvQUAAAAAAAAAAFjdXY2+bxzvprWHPNIFGWBVLT/el/ZAr2v0dWtvAQAAAAAAAAAAVvPOtvrucW23rT3kbC7Yn/kb13R7n9u3NLqmWtbeAwAAAAAAAAAAHKml0Wu6tG+4UOOruoBPwDrTcqzLq+ury1aeAgAAAAAAAAAAHL47qheO7d6w9pBz2YgAq2q5si9qq+uq5629BQAAAAAAAAAAODSv74FeNK7ro2sPOR8bE2DtWo71/Oqa6qlrbwEAAAAAAAAAAA7MPY1e3vFOjFrWHnO+Ni7Aqv8/DevXqx9cewsAAAAAAAAAALBvN/ZAP7Epp16daSMDrF3Li/uOll5TfcXaWwAAAAAAAAAAgD17f6OXjuO9ce0hszY6wKpant9n9eR+rNEvV09aew8AAAAAAAAAAHBOn6x+o0t75bi6+9cesx8bH2DtWo51WfXKTv8s4dbKcwAAAAAAAAAAgM+009J1Lf38ONlH1h5zEC6aAGvX8uK+uqWrqu/pIvz/AQAAAAAAAADABloavaH6hXG8d6095iBdtIHScqxnVK9IiAUAAAAAAAAAAGt6S/UzY7t3rj3kMFz0YdJyZc9qq5/udIj1xLX3AAAAAAAAAADA48AD1R+39Kpxon9de8xhuugDrF3LsS6rXlz9ZPXklecAAAAAAAAAAMDF6L7quupVY7sPrD3mKDxuAqxdy7E+v6Xvb3Rl9bVr7wEAAAAAAAAAgIvAP1Unu7QbxtV9fO0xR+lxF2CdabmyZzW6stH35lQsAAAAAAAAAADYi7urG1o6ebH/zOBjeVwHWLuWl3Rpp7q8pedX31k9ae1NAAAAAAAAAABwAfpY9eeNbuzu3jRu7NTag9YmwHqE5Yf77C7pedW3NXpu9SVrbwIAAAAAAAAAgBV9oHpjo7/os3rzuLr71x50IRFgncNyZc9sq+dWl1dfX33OypMAAAAAAAAAAOAwfaJ6e/Xmlt44TvSetQddyARYe7Bc1RP7YF9bfUP1jY2+rnr6yrMAAAAAAAAAAGA/bqve0ehtLb2te3rXuLGH1h61KQRY+7T8cE/uiT2j0TMaPbP6quorOv3ThU9Ydx0AAAAAAAAAAFT1YPVf1a3VLY3e3ejmLunmcXUfX3nbRhNgHZLlWJdUT2/05e30xY2eUj21pac0+oLq809f2JPa6gktXVJ97oqTAQAAAAAAAADYHPc1erClB6v7Hv7snurOlu6q7myru1r6YDvd1tO6fVzVg+vNBQAAAAAAAAAAAAAAAAAAAAAAAA7G/wETRiJuWn6zQAAAAABJRU5ErkJggg==;" parent="fOmn5NKXTGddU6EdoQ0m-110" vertex="1">
          <mxGeometry x="26.831392405063294" y="31.33" width="39.00417721518988" height="41.27708860759493" as="geometry" />
        </mxCell>
        <mxCell id="fOmn5NKXTGddU6EdoQ0m-1" value="International Space Station" style="shape=image;verticalLabelPosition=bottom;labelBackgroundColor=default;verticalAlign=top;aspect=fixed;imageAspect=0;image=data:image/png,iVBORw0KGgoAAAANSUhEUgAAAMgAAADICAYAAACtWK6eAAAACXBIWXMAAAsTAAALEwEAmpwYAAAFHGlUWHRYTUw6Y29tLmFkb2JlLnhtcAAAAAAAPD94cGFja2V0IGJlZ2luPSLvu78iIGlkPSJXNU0wTXBDZWhpSHpyZVN6TlRjemtjOWQiPz4gPHg6eG1wbWV0YSB4bWxuczp4PSJhZG9iZTpuczptZXRhLyIgeDp4bXB0az0iQWRvYmUgWE1QIENvcmUgNS42LWMxNDIgNzkuMTYwOTI0LCAyMDE3LzA3LzEzLTAxOjA2OjM5ICAgICAgICAiPiA8cmRmOlJERiB4bWxuczpyZGY9Imh0dHA6Ly93d3cudzMub3JnLzE5OTkvMDIvMjItcmRmLXN5bnRheC1ucyMiPiA8cmRmOkRlc2NyaXB0aW9uIHJkZjphYm91dD0iIiB4bWxuczp4bXA9Imh0dHA6Ly9ucy5hZG9iZS5jb20veGFwLzEuMC8iIHhtbG5zOmRjPSJodHRwOi8vcHVybC5vcmcvZGMvZWxlbWVudHMvMS4xLyIgeG1sbnM6cGhvdG9zaG9wPSJodHRwOi8vbnMuYWRvYmUuY29tL3Bob3Rvc2hvcC8xLjAvIiB4bWxuczp4bXBNTT0iaHR0cDovL25zLmFkb2JlLmNvbS94YXAvMS4wL21tLyIgeG1sbnM6c3RFdnQ9Imh0dHA6Ly9ucy5hZG9iZS5jb20veGFwLzEuMC9zVHlwZS9SZXNvdXJjZUV2ZW50IyIgeG1wOkNyZWF0b3JUb29sPSJBZG9iZSBQaG90b3Nob3AgQ0MgMjAxOCAoV2luZG93cykiIHhtcDpDcmVhdGVEYXRlPSIyMDIwLTA1LTE0VDE1OjE1OjQ2LTA0OjAwIiB4bXA6TW9kaWZ5RGF0ZT0iMjAyMC0wNS0xNFQxNToxNzo1Ni0wNDowMCIgeG1wOk1ldGFkYXRhRGF0ZT0iMjAyMC0wNS0xNFQxNToxNzo1Ni0wNDowMCIgZGM6Zm9ybWF0PSJpbWFnZS9wbmciIHBob3Rvc2hvcDpDb2xvck1vZGU9IjMiIHBob3Rvc2hvcDpJQ0NQcm9maWxlPSJzUkdCIElFQzYxOTY2LTIuMSIgeG1wTU06SW5zdGFuY2VJRD0ieG1wLmlpZDpkMjhjNWFmNy04YWE3LTFlNDItYWM5Ni1kZDMwZDgzZTRkY2IiIHhtcE1NOkRvY3VtZW50SUQ9InhtcC5kaWQ6ZDI4YzVhZjctOGFhNy0xZTQyLWFjOTYtZGQzMGQ4M2U0ZGNiIiB4bXBNTTpPcmlnaW5hbERvY3VtZW50SUQ9InhtcC5kaWQ6ZDI4YzVhZjctOGFhNy0xZTQyLWFjOTYtZGQzMGQ4M2U0ZGNiIj4gPHhtcE1NOkhpc3Rvcnk+IDxyZGY6U2VxPiA8cmRmOmxpIHN0RXZ0OmFjdGlvbj0iY3JlYXRlZCIgc3RFdnQ6aW5zdGFuY2VJRD0ieG1wLmlpZDpkMjhjNWFmNy04YWE3LTFlNDItYWM5Ni1kZDMwZDgzZTRkY2IiIHN0RXZ0OndoZW49IjIwMjAtMDUtMTRUMTU6MTU6NDYtMDQ6MDAiIHN0RXZ0OnNvZnR3YXJlQWdlbnQ9IkFkb2JlIFBob3Rvc2hvcCBDQyAyMDE4IChXaW5kb3dzKSIvPiA8L3JkZjpTZXE+IDwveG1wTU06SGlzdG9yeT4gPC9yZGY6RGVzY3JpcHRpb24+IDwvcmRmOlJERj4gPC94OnhtcG1ldGE+IDw/eHBhY2tldCBlbmQ9InIiPz50Cq4dAAAEk0lEQVR4nO3dvW4jVQCG4c+QXQoqOqBCIDpooKDgBqDjBiih4Qq4gr0HREdBTU8HDQ0F0FBAQUWBQEj8aYU0FMYoMsnnrOPJHNvPI420G3k9J9nz5owzM/FqmqYAV3ts6QHAyAQChUCgEAgUAoFCIFAIBAqBQCEQKAQChUCgEAgUAoFCIFAIBAqBQCEQKAQChUCgEAgUAoFCIFAIBAqBQCEQKAQChUCgEAgUAoFCIFBcbP6wWq2uex+E1dbfl3ocp22o+TdN0yqxgkAlECgEAoVAoBAIFAKBQiBQCAQKgUAhECgEAoVAoBAIFAKBQiBQCAQKgUAhECgEAoVAoBAIFAKBQiBQCAQKgUAhECgEAoVAoBAIFAKB4mL3QzgDqySvJXk9yXNJ7iX5OclXST5N8tNiI1vaNE2ZpilZv0/CVdv//slCj+PwHk/ybpLvc/3/w8MkHyd5YeaxDDX//utCIGfrmSSf5/qv//b2Z5J3ZhzPUPNPIOft2STf5eZxXN7en2lMQ80/gZyviyRfZL84NttbM4xrqPm36WL1bxzeo3C3Q0V7qM9ryW8iPyZ5MclvB3zOoeaf9yjkNp7O+sX9yRPIboc+5LvNoc1Ih6BvLz2Au+AQa7cRJuOIpiRPJfn1gM93FYdYHKVVkueXHsTcBMJtPLn0AOYmEG7jl6UHMDeBsK+HWZ9sPGkuVtxt86JurvMgj/q8hx7Pvj5L8tfCY5idFYR9fbj0AO6ES00Wd9fnP97cY5/b25c5/DfXoeafa7HGcdeBJMkHe+x3s/2e5OUDjeOyoeafQMaxRCD3knyyx77/SPLGgcawbaj5J5BxLBFIsr5Z6kGSv2+432+TvHrA/W8bav4JZBxLBbLxUpKPsj50ump/3yR5L8n9GfZ92VDzz+Xu43jUST/X1+WJJK9kfU/6/azvQ/86yQ8z7W/bUPNvcy2WQJY3SiBLG2r+uVgRbkAgUAgECoFAIRAoBAKFQKC4fD/ITX++vtTjOG1Dzj8rCBSnfEfhqV7PdSyf10kcGVhBoBAIFAKBYo7XIMdyjMy8RpsHe70msoJAIRAoBAKFQKAQCBQCgUIgUMxxHmSUa3BG+zn8uRllHtyKFQQKgUAhEChO+X6QYzkG9psVB2YFgeLyCjLU70a94nF3bXtc17034K6PL+XYxj/k/LOCQCEQKAQChUCgEAgUAoFCIFAIBAqBQCEQKAQChUCgEAgUAoFCIFCc8h2Fx2LX/QlL31dy1qwgUAgECoFAIRAoBAKFQKAQCBQCgUIgUDiTfr3rzmA/6seXcuzjH4IVBAqBQCEQKAQChUCgEAgUAoHCeZCbm/t913edh1h6/2fJCgKFQKAQCBQCgUIgUAgECoFA4TzIeJyPGIgVBAqBQCEQKLwGubmlXxssvf+zZAWBQiBQCAQKgUAhECgEAoVAoBAIFAKBQiBQCAQKgUAhEChW0zT3L+yD42UFgUIgUAgECoFAIRAoBAKFQKAQCBQCgUIgUAgECoFAIRAoBAKFQKAQCBQCgUIgUAgECoFAIRAoBAKFQKAQCBQCgUIgUAgECoFA8Q9r4VpNcJ3SeAAAAABJRU5ErkJggg==;rotation=-30;fontFamily=Courier New;fontSize=18;" parent="1" vertex="1">
          <mxGeometry x="-740" y="310" width="220" height="220" as="geometry" />
        </mxCell>
        <mxCell id="fOmn5NKXTGddU6EdoQ0m-3" value="&lt;div&gt;Redis Server&lt;/div&gt;" style="sketch=0;aspect=fixed;html=1;points=[];align=center;image;fontSize=12;image=img/lib/mscae/Cache_Redis_Product.svg;" parent="1" vertex="1">
          <mxGeometry x="1369" y="160" width="107.14" height="90" as="geometry" />
        </mxCell>
        <mxCell id="fOmn5NKXTGddU6EdoQ0m-19" value="" style="group" parent="1" vertex="1" connectable="0">
          <mxGeometry x="601.505" y="202.505" width="518.75" height="90" as="geometry" />
        </mxCell>
        <mxCell id="fOmn5NKXTGddU6EdoQ0m-4" value="" style="shape=cylinder3;whiteSpace=wrap;html=1;boundedLbl=1;backgroundOutline=1;size=15;fontFamily=Courier New;rotation=-90;fillColor=#fff2cc;strokeColor=#d6b656;" parent="fOmn5NKXTGddU6EdoQ0m-19" vertex="1">
          <mxGeometry x="214.375" y="-214.375" width="90" height="518.75" as="geometry" />
        </mxCell>
        <mxCell id="fOmn5NKXTGddU6EdoQ0m-13" value="" style="shape=message;html=1;whiteSpace=wrap;html=1;outlineConnect=0;fontFamily=Courier New;" parent="fOmn5NKXTGddU6EdoQ0m-19" vertex="1">
          <mxGeometry x="57.495000000000005" y="25.495000000000005" width="60" height="40" as="geometry" />
        </mxCell>
        <mxCell id="fOmn5NKXTGddU6EdoQ0m-14" value="" style="shape=message;html=1;whiteSpace=wrap;html=1;outlineConnect=0;fontFamily=Courier New;" parent="fOmn5NKXTGddU6EdoQ0m-19" vertex="1">
          <mxGeometry x="132.495" y="25.495000000000005" width="60" height="40" as="geometry" />
        </mxCell>
        <mxCell id="fOmn5NKXTGddU6EdoQ0m-15" value="" style="shape=message;html=1;whiteSpace=wrap;html=1;outlineConnect=0;fontFamily=Courier New;" parent="fOmn5NKXTGddU6EdoQ0m-19" vertex="1">
          <mxGeometry x="207.495" y="24.995000000000005" width="60" height="40" as="geometry" />
        </mxCell>
        <mxCell id="fOmn5NKXTGddU6EdoQ0m-16" value="" style="shape=message;html=1;whiteSpace=wrap;html=1;outlineConnect=0;fontFamily=Courier New;" parent="fOmn5NKXTGddU6EdoQ0m-19" vertex="1">
          <mxGeometry x="287.495" y="24.995000000000005" width="60" height="40" as="geometry" />
        </mxCell>
        <mxCell id="fOmn5NKXTGddU6EdoQ0m-17" value="" style="shape=message;html=1;whiteSpace=wrap;html=1;outlineConnect=0;fontFamily=Courier New;" parent="fOmn5NKXTGddU6EdoQ0m-19" vertex="1">
          <mxGeometry x="367.495" y="25.495000000000005" width="60" height="40" as="geometry" />
        </mxCell>
        <mxCell id="fOmn5NKXTGddU6EdoQ0m-18" value="" style="shape=message;html=1;whiteSpace=wrap;html=1;outlineConnect=0;fontFamily=Courier New;" parent="fOmn5NKXTGddU6EdoQ0m-19" vertex="1">
          <mxGeometry x="442.495" y="25.495000000000005" width="60" height="40" as="geometry" />
        </mxCell>
        <mxCell id="fOmn5NKXTGddU6EdoQ0m-20" value="" style="group" parent="1" vertex="1" connectable="0">
          <mxGeometry x="601.505" y="304.505" width="518.75" height="90" as="geometry" />
        </mxCell>
        <mxCell id="fOmn5NKXTGddU6EdoQ0m-21" value="" style="shape=cylinder3;whiteSpace=wrap;html=1;boundedLbl=1;backgroundOutline=1;size=15;fontFamily=Courier New;rotation=-90;fillColor=#fff2cc;strokeColor=#d6b656;" parent="fOmn5NKXTGddU6EdoQ0m-20" vertex="1">
          <mxGeometry x="214.375" y="-214.375" width="90" height="518.75" as="geometry" />
        </mxCell>
        <mxCell id="fOmn5NKXTGddU6EdoQ0m-22" value="" style="shape=message;html=1;whiteSpace=wrap;html=1;outlineConnect=0;fontFamily=Courier New;" parent="fOmn5NKXTGddU6EdoQ0m-20" vertex="1">
          <mxGeometry x="57.495000000000005" y="25.495000000000005" width="60" height="40" as="geometry" />
        </mxCell>
        <mxCell id="fOmn5NKXTGddU6EdoQ0m-23" value="" style="shape=message;html=1;whiteSpace=wrap;html=1;outlineConnect=0;fontFamily=Courier New;" parent="fOmn5NKXTGddU6EdoQ0m-20" vertex="1">
          <mxGeometry x="132.495" y="25.495000000000005" width="60" height="40" as="geometry" />
        </mxCell>
        <mxCell id="fOmn5NKXTGddU6EdoQ0m-24" value="" style="shape=message;html=1;whiteSpace=wrap;html=1;outlineConnect=0;fontFamily=Courier New;" parent="fOmn5NKXTGddU6EdoQ0m-20" vertex="1">
          <mxGeometry x="207.495" y="24.995000000000005" width="60" height="40" as="geometry" />
        </mxCell>
        <mxCell id="fOmn5NKXTGddU6EdoQ0m-25" value="" style="shape=message;html=1;whiteSpace=wrap;html=1;outlineConnect=0;fontFamily=Courier New;" parent="fOmn5NKXTGddU6EdoQ0m-20" vertex="1">
          <mxGeometry x="287.495" y="24.995000000000005" width="60" height="40" as="geometry" />
        </mxCell>
        <mxCell id="fOmn5NKXTGddU6EdoQ0m-26" value="" style="shape=message;html=1;whiteSpace=wrap;html=1;outlineConnect=0;fontFamily=Courier New;" parent="fOmn5NKXTGddU6EdoQ0m-20" vertex="1">
          <mxGeometry x="367.495" y="25.495000000000005" width="60" height="40" as="geometry" />
        </mxCell>
        <mxCell id="fOmn5NKXTGddU6EdoQ0m-27" value="" style="shape=message;html=1;whiteSpace=wrap;html=1;outlineConnect=0;fontFamily=Courier New;" parent="fOmn5NKXTGddU6EdoQ0m-20" vertex="1">
          <mxGeometry x="442.495" y="25.495000000000005" width="60" height="40" as="geometry" />
        </mxCell>
        <mxCell id="fOmn5NKXTGddU6EdoQ0m-68" value="" style="group" parent="1" vertex="1" connectable="0">
          <mxGeometry x="601.505" y="407.505" width="518.75" height="90" as="geometry" />
        </mxCell>
        <mxCell id="fOmn5NKXTGddU6EdoQ0m-69" value="" style="shape=cylinder3;whiteSpace=wrap;html=1;boundedLbl=1;backgroundOutline=1;size=15;fontFamily=Courier New;rotation=-90;fillColor=#fff2cc;strokeColor=#d6b656;" parent="fOmn5NKXTGddU6EdoQ0m-68" vertex="1">
          <mxGeometry x="214.375" y="-214.375" width="90" height="518.75" as="geometry" />
        </mxCell>
        <mxCell id="fOmn5NKXTGddU6EdoQ0m-70" value="" style="shape=message;html=1;whiteSpace=wrap;html=1;outlineConnect=0;fontFamily=Courier New;" parent="fOmn5NKXTGddU6EdoQ0m-68" vertex="1">
          <mxGeometry x="57.495000000000005" y="25.495000000000005" width="60" height="40" as="geometry" />
        </mxCell>
        <mxCell id="fOmn5NKXTGddU6EdoQ0m-71" value="" style="shape=message;html=1;whiteSpace=wrap;html=1;outlineConnect=0;fontFamily=Courier New;" parent="fOmn5NKXTGddU6EdoQ0m-68" vertex="1">
          <mxGeometry x="132.495" y="25.495000000000005" width="60" height="40" as="geometry" />
        </mxCell>
        <mxCell id="fOmn5NKXTGddU6EdoQ0m-72" value="" style="shape=message;html=1;whiteSpace=wrap;html=1;outlineConnect=0;fontFamily=Courier New;" parent="fOmn5NKXTGddU6EdoQ0m-68" vertex="1">
          <mxGeometry x="207.495" y="24.995000000000005" width="60" height="40" as="geometry" />
        </mxCell>
        <mxCell id="fOmn5NKXTGddU6EdoQ0m-73" value="" style="shape=message;html=1;whiteSpace=wrap;html=1;outlineConnect=0;fontFamily=Courier New;" parent="fOmn5NKXTGddU6EdoQ0m-68" vertex="1">
          <mxGeometry x="287.495" y="24.995000000000005" width="60" height="40" as="geometry" />
        </mxCell>
        <mxCell id="fOmn5NKXTGddU6EdoQ0m-74" value="" style="shape=message;html=1;whiteSpace=wrap;html=1;outlineConnect=0;fontFamily=Courier New;" parent="fOmn5NKXTGddU6EdoQ0m-68" vertex="1">
          <mxGeometry x="367.495" y="25.495000000000005" width="60" height="40" as="geometry" />
        </mxCell>
        <mxCell id="fOmn5NKXTGddU6EdoQ0m-75" value="" style="shape=message;html=1;whiteSpace=wrap;html=1;outlineConnect=0;fontFamily=Courier New;" parent="fOmn5NKXTGddU6EdoQ0m-68" vertex="1">
          <mxGeometry x="442.495" y="25.495000000000005" width="60" height="40" as="geometry" />
        </mxCell>
        <mxCell id="fOmn5NKXTGddU6EdoQ0m-76" value="" style="group" parent="1" vertex="1" connectable="0">
          <mxGeometry x="601.505" y="509.505" width="518.75" height="90" as="geometry" />
        </mxCell>
        <mxCell id="fOmn5NKXTGddU6EdoQ0m-77" value="" style="shape=cylinder3;whiteSpace=wrap;html=1;boundedLbl=1;backgroundOutline=1;size=15;fontFamily=Courier New;rotation=-90;fillColor=#fff2cc;strokeColor=#d6b656;" parent="fOmn5NKXTGddU6EdoQ0m-76" vertex="1">
          <mxGeometry x="214.375" y="-214.375" width="90" height="518.75" as="geometry" />
        </mxCell>
        <mxCell id="fOmn5NKXTGddU6EdoQ0m-78" value="" style="shape=message;html=1;whiteSpace=wrap;html=1;outlineConnect=0;fontFamily=Courier New;" parent="fOmn5NKXTGddU6EdoQ0m-76" vertex="1">
          <mxGeometry x="57.495000000000005" y="25.495000000000005" width="60" height="40" as="geometry" />
        </mxCell>
        <mxCell id="fOmn5NKXTGddU6EdoQ0m-79" value="" style="shape=message;html=1;whiteSpace=wrap;html=1;outlineConnect=0;fontFamily=Courier New;" parent="fOmn5NKXTGddU6EdoQ0m-76" vertex="1">
          <mxGeometry x="132.495" y="25.495000000000005" width="60" height="40" as="geometry" />
        </mxCell>
        <mxCell id="fOmn5NKXTGddU6EdoQ0m-80" value="" style="shape=message;html=1;whiteSpace=wrap;html=1;outlineConnect=0;fontFamily=Courier New;" parent="fOmn5NKXTGddU6EdoQ0m-76" vertex="1">
          <mxGeometry x="207.495" y="24.995000000000005" width="60" height="40" as="geometry" />
        </mxCell>
        <mxCell id="fOmn5NKXTGddU6EdoQ0m-81" value="" style="shape=message;html=1;whiteSpace=wrap;html=1;outlineConnect=0;fontFamily=Courier New;" parent="fOmn5NKXTGddU6EdoQ0m-76" vertex="1">
          <mxGeometry x="287.495" y="24.995000000000005" width="60" height="40" as="geometry" />
        </mxCell>
        <mxCell id="fOmn5NKXTGddU6EdoQ0m-82" value="" style="shape=message;html=1;whiteSpace=wrap;html=1;outlineConnect=0;fontFamily=Courier New;" parent="fOmn5NKXTGddU6EdoQ0m-76" vertex="1">
          <mxGeometry x="367.495" y="25.495000000000005" width="60" height="40" as="geometry" />
        </mxCell>
        <mxCell id="fOmn5NKXTGddU6EdoQ0m-83" value="" style="shape=message;html=1;whiteSpace=wrap;html=1;outlineConnect=0;fontFamily=Courier New;" parent="fOmn5NKXTGddU6EdoQ0m-76" vertex="1">
          <mxGeometry x="442.495" y="25.495000000000005" width="60" height="40" as="geometry" />
        </mxCell>
        <mxCell id="fOmn5NKXTGddU6EdoQ0m-86" value="" style="group" parent="1" vertex="1" connectable="0">
          <mxGeometry x="-40.00000000000003" y="329" width="86.54000000000002" height="150" as="geometry" />
        </mxCell>
        <mxCell id="fOmn5NKXTGddU6EdoQ0m-84" value="" style="shape=image;verticalLabelPosition=bottom;labelBackgroundColor=default;verticalAlign=top;aspect=fixed;imageAspect=0;image=data:image/png,iVBORw0KGgoAAAANSUhEUgAAARgAAAEYCAYAAACHjumMAABByUlEQVR4nOydCVwb55n/f5K4bzA29jjGSHHAOSAmTNIEtQkUuWmcCjc9t1WPdBuMuj22bUCxd7vrptvWiSDZXvuvMNlNL3WTJs3WqHXTRgTSRso1PiJyGJwI2dhj42CDsTGXjv9nxEuCbQ4dMzrQ+/189JEN0syLjt88z/M+hxwUCoUiEVRgKBSKZFCBoVAokkEFhkKhSAYVGAqFIhlUYCgUimRQgaFQKJJBBYZCoUgGFRgKhSIZVGAoFIpkUIGhUCiSQQWGQqFIBhUYCoUiGVRgKBSKZFCBoVAokkEFhkKhSAYVGAqFIhlUYCgUimRQgaFQKJJBBYZCoUgGFRgKhSIZVGAoFIpkUIGhUCiSQQWGQqFIBhUYCoUiGVRgKBSKZFCBoVAokkEFhkKhSEZStBdAoQRKeZVSXsGqFACSAawAUAAgn/y/oJxVZVawqgwAOQBSyAU0D4BszmFWXPL/0wB8c/4/CeA8ADeAEQfnvNDDOccBjAE4B2CYPOcMgCkAHnNbpzeCL0NcIYv2AigUAV1jXTqAdQCuALBep9cUAlgFYDUAhtwL4iA8LjtGPrujACYADAE4BeAY+dkJs8nKAzhCfnbU3NY5Hu3FRoNYeJMoCYCusS6ZWBMby1lVaQWr2gjgKgBriXgUEUtkOTItWEMATgJwAjjs4Jx9PZyzx9zW+WK0FyclVGAooqJrrBM+U8UAKnR6TYVwD+BaIiQ5NO73Lh4AO7dU7vhBtBciJVRgKGGz98CuJADvB/AVAHUkLkKFZHHu3VK54+FoL0JqaJCXEhTlVUpFBasqBXC1Tq+5DsD7AFQRF4eyNC4H52w2m6xPRnshkYAKDGVByquUqGBVK4V/lrOq6ytY1W0AbgGwklq/QeN0cM7dPZzzJ4kU8KUCQ7kIXWNdNoBbdXpNHXF3rgWgiPa64ph9Ds75nR7O+RdzW6cv2ouJNFRgEhxdY11eOauqqWBVdxB3pwxAWrTXtQw46OCc3zObrHt69vUnbJ4MFZgERddYl6nTa74GYDvZPqaIR5vZZP26ua1zOtoLiTZUYBIEEk/ZWM6q6itY1QcA3EgDs6JyBsBPzSbr4w7OeahnX3/CuUPzQQVmmaNrrLtap9d8HMAnSU4KRVwEYfmx2WT9ibmtcyTai4k1qMAsM3SNdakANDq95nMAbiNWSig5KV6SgTpMslDPAzhL0uLHAVwgjztDHrsY6QAyyb+zSZ1QAflZBvlZLrlPioOgsvD3WgGYzSarxdzWORztBcUqVGCWAbrGOkFAbtTpNZ8H8CmyjRwIgnAcBtAL4C2zyXoSwAlSP8M7OOfpnn39EYsjlFcpkytYVS5J1MsmtUdF5axqdQWrKiI1SSvJbQ2AwgiLkfBa/N5ssj5sbut8JYLnjVtoLkOcQhLePqjTa74E4MPzVA3PxUNqYF40m6yvzBGVAXNbpzvCSxcFUlmdPqcQchUApU6vUQr3AFREhDLCvJAKr08PgD+bTdY2c1vnURH/jGUPFZg4ZO+BXWsB/ArAB5d46CSApwH8cEvljpcjtLyYYu+BXRsA1AK4gyQJrg7i6Q4A+i2VO16QcInLGiowcYKusU64En9Ap9fUA/jsIlvL/QAsDs5p6eGcnINznqU7GjOQ+NQVANaWs6riClZVBuBqYu2kkNgSD4Azm6zPOTjnC5F0EZcjVGBiHF1j3QadXqMH8I8kNnEpXgCC2f4ns8n6W/KloIJCiQlokDcG0TXWFQK4U6fX3CXcL/A+jQH4rdlk/SmA1xIpDZ0pZWRMGZNErLhC0gYii+xMCbcsppRJZ8qYFeQpWSQ7Wb6ASM/HKAnqeslOGfhe/izfx4+T3bRh0mzqLOlwN0TuPXwv7+H7eOlegDiCWjAxhK6xrlSn13wTwBdJcHI+xkjexU/NbZ0nI7xEyWG1bCbpHbMGwEqmlFnPlDHr5jSmWkkEZQVxa2IJD2mrOUqaS/Hk3sVZuDNkh05wYXnOwiXE1jYVmChDGjTdpNNrDADqF7EqDwP4b7PJ+st4FhZifeQC2AigjNWy60irzKsAbCC7QanRXqfEuIlV9BYRnaOchesDcAjAG3wvP8T38cuifokKTBTZe2DXegA/JW7QYslwvWaTVW1u6zwdweWJBqtl01gtqwTwIQCfIEWVy7U9phi8CsAG4FkAVtM209loLyhUqMBEAV1jXYFOr/kWgK8GEBN4ghTODUZoeSHDlDIgsRHBErmZ1bLlpObpahIboV3uguc8gDcBOPhe/hW+jxesnkN8L388HuI8VGAiiK6xrlCn1/wzgK+T1PjFGHJwzh3bG9ofidDygoYpZZKZMuZqppRRM2XMLYKrR8Ql1lP9lwPHALwM4EXOwr0giBDfy5/h+/iYCvZTgZGY8ioldHrNbRWs6h4AHwmwNcLPzCbrdnNb51gElhgQxDopAlDLatlbAVxP4igF0V4bxY+HiI6d7+W7+T7+OQBvcRbOE81FUYGRkAfaG6oqWNUPANwe4FOEq8/2++7ZbezZ1y/x6haHKWXkgnXCatkPAbiB3DYG6Ob4yJati3zojwMY5nv5Eb6PHyZm/yh57DkywAwkLpND/p1K6pEymVImlyljCuZsSa+YU5dEG4wvjHCBOgCgk7NwzxAXayqSC6ACIwG6xjqVTq/5Pik8DNRd8Dk4531mk7UlGuJCBGU1gFtYLXsHEcW1AXxGhA8xJ5jqfC9/gO/jnQCO8L38ab6Pl/TqyWpZBclxEYRnDVPKlDBlzJXETSslu1OxuJ0dLQRx7yJuleBe2TkLJ2mmMhUYEdE11ilI8WFrADGWS9lrNlnvNLd1SrS6hdHv1m8ia64L4mmCdfJLzsL9OJZzOvS79YJobiG7V+o5FhIF6OUs3Cc4C/eaVCegAiMSusY6VqfXPAzgAyE8fcjBOdXbG9r7JFjaZbBaVrhTMaXMXUwZ89Egto17ATzOWbjfA3iDs3BxVYnNatls4uapWC17FYBK4vqVRHttUUCwXH7T0drRzPfxkqU/UIEJE11j3SqdXvNDAF8KMRYw6eCc9dsb2v8qwfLehdWy6UwpU8eUMcKVvAbA+gCf+iaADs7C7eF7+RfiYWs0WFgtu0q4Y7XsNUSAqombtdxydTwkv2YPZ+Ge4iycS+oTUoEJEV1jXVI5q/oyCeKuCPEwpwDcuaVyByfy8vywWjYFwK2sltWRLOFgdnwO8r389zgL1yF1LCXWIDtmwnt6E6tl1aTVaDkR5Xj8zhwD8FvOwj3K9/KHInmRiMcXK6qUVymTHnxk2zcBNJO09pBxcM5Pbm9oF3XCH6tls5hSZitTxnyRuGvBjiDh+V7+XzgL9+vlkq4uFqyWVTKlzG1MGVNDXtuSGN3BEt63/WT3yEq2raPizlKBCQJSjPgoMaHD5an77tn9cTF2jFgt62+ZyWrZL5Odq2ADzAIDAH7CWbj/juWgbaxAaqryAVSyWrYOwGYAm6LYoWASwEsA/sBZuD/yvfzhWHBnqcAEiK6xbrVOr3k1XKtlFrPJ+gFzW+fz4R5Hv1svfLj/k5jwoTLKWbgbScEdJUT0u/VXA5gV+XUROu04gIeEz4Bpm+lMhM4ZMFRgAuCB9oaKClb1GKmpEYP9992z+6aeff0hxTaYUkbOatkPMWXMV0k/3nCumif5Xv4THQ912MI4BmUOrJZNJ7VYHybvj9jjYvzBWr6Xf4Lv4/+Ps3DHRT6+aFCBWQSyQ/QvALaR0RuiYDZZP2Ru63wm2OexWjafKWU+zpQx95LdjnB5raO1406+j6eNrCWEtKR4H6tlbyY5ORuD/O55yG7eXlJ3ZOcs3CkJlywaVGAW4IH2husrWNUfJMiREKwXNtC2lmRHg2W17E7i54vVK6WH7+U1HQ91xMUHVcDQVCMjn9ks4qrOjjApAJChri7JVauVBSQGlUlKDeRzds9ygtx6HiYBUw/59zQpcRgR7o0tXbPd7c6QjnbvkH8Lv79gs7u8NvvFO8EkdrOB1bJ3ktq06y/Z3ZsmLVDfBnCY7+Vf5Pv4v/O9/EAsxFSChQrMPDzQ3rC5glU9EWKwdFEcnPOL2xvafxXIY1ktex2rZb9PtpjFeq8EYXuyo7Xjq3wf/45IxxQFQ1NNNqkx8o8cMTTXFpFYxhXkfjUpC4iHVq/nSDOp4+QmCPmgsaXrCOlqd8Rmd70jiBCrZbNmyxn4Xn441iqiw4EKzCU80N7wyQpW9RuJ6ldG7rtn99qeff0XFnqAYLGwWnYrU8Z8jUxmFDvZ64echfsOZ+Ei/iFWV5cIt3SSxHaturrkarVaWTyno11RAnSzm8VDrJ9ZEeo1tnT1ElfoDcEiMrZ2x1Wm9HxQgZnD3gO7biEjQRfqhxsuli2VO+oXe4B+t/7bZFdACvo5C1cayRR/Q1ON3NBcW0rqnOpIV7vMSJ0/jhkE0A3ADKCrsGjn+WgvKBTiwdSMCA+0N3wCwC8lFBfBPfr7Qr9jSpms+qb6B0lAWQq8fC//LSnFRV1dkqSuLhGskVJDc+37SK3PJuLihPpZ85Dm2YPkdpa0dzhHcj/mUkAsvjySXV1A4jWr4/CzLlhznya3s0OD9wtWzT5i5RwG8IqxtTvmtqUvhVowM+JSW8Gq/iTmTtF8mE3Wa8xtnW9e+vP6e+s/wJQxvyCxB6n4kWmb6VtiHtDQVFOori65Wa1W3kKmJt5IvtChIAhJHwC7zdbP2ewuF6nYdtrsrqlLg6WBQtwyBYntCO5YiaG5dh35/9XktjoOu/D5iNC8ZLP12212l9+1MrZ2x1RcLeEFhmTnvhCBzmwv33fP7lt69vW/m35ff2/9VUwZ830AH5W4Z8mhjtaOG8hMn5AQXB0AN6irS2rUamUN2f0oCjNGJHxBum22fpvN7nrGZnfxoQpJqKirS2Tq6pJCAOWG5trZyQaCUFaFIZbRYppMJnjO2NL1HGk25TK2dketliyhBaa8Spn14CPb7GFmwQbKF7dU7nh396j+3vo7mDLmtwG20AwHwTX6UMdDHUE1mjE01aQJVomhufZ28oXbJJIICyL3mLGla7fN7nox0oISKMTdK1dXl9yiVitnix0rpbZyJWAEQJfN1v9Xm93VabO73rLZXREL8Ce0wOw9sOvrAH4SgVMJV5Yrt1TuGMDM9vMGVssejFCw08FZuOs5S2AF24amGpmhufbjAIwAlCKvRTDf7ygs2rlP5ONGhKHB+wW3SnAz/0nKWJ2ECJbM0wB+bmzpshpbuy+NYYlOwgpMeZUy78FHtr1G2kJKzaDZZF1rbuv01N9bzzBlzJ8lSB+fF76X/6eOhzp+vthjDE01OerqkjvVauVtpFdMqcifjdcBtBlbup40tnafEPG4UUF4vYTXydBceyOx7tRx6E6dAvBXm63fYrO7/mps7R6R4iQJKzB7D+z6H9IkKhJwWyp33MhqWYbVsp0ipfkHwvMdrR118zV6JrGHDxqaa+8GsJVkvYrNBQDf23rXo/9ps7si2mw6khiaagRx+YChubaedAe8Ls6aVQlu63MA7MaWrm6b3WWz2V2itOpIOIEpr1LiwUe23QfghxHs5bHn3//99wZWyz4ZoXgPyBXqOtM207u7CoKoGJpqblarlXcRUSmV8PwOm63/s1s/9ovXJTxHTGJoqskFsMXQXPsxkvcTb32AjwN4ytjS9YTN7nrBZneFnNqQcALzQHvDFrIlHTGODp3rPdh/Zl2E/fZW0zZTM8hWraGpZotarTQAuDUC7/vvtt716JdtdldcJoeJiaGpJkNdXbKZ7LzVkGB5PHGMBIk7bXbX/xlbu0eDeXJCCUx5lVL+4CPbXiGNniPC2fFx7H31LWQqInoR83IWbhNn4Xr2PHX3+9Vq5Q+IsEiNE8C3t971aEckdyriCUNTzUZDc+0/ABBuZdFeT5AILu8em63/l8bW7mdtdteSI08SSmB0jXUbdXrNZYluUmJ9sw/HTo+hIDWiAxBPfbAsa8MHN2Y/ROJMkchiFQSltrBo53MROFfcY2iqSTI01zYC+A5J9Is37AD+rbBo57OLPSihBGbvgV3fBbAzUud759x5/H6/A2mK9IgKzJpcRf9Xa1aNkWBjRLDZ+v/N2Nr9/VjNa4lVBKERvFhDc+0XAHxcigp+CREuKj0AHjW2dP3a2Np92fiThBEY0qzbFaFtaXi9Pjy5/yCGzl9AmiINhWmFkp/T5/PB4xnBR64vwPs3RPSi+IPCop3fieQJlyOGpppMdXXJXWq18kukkj6eyheEC9rvjS1dPwfwkrG12+8iJ4zA6Brr7tDpNXsjdb6DA8dhf3vmap4sT0ZRepGk5/P53Jh2D8Hnm8I3NddhbX7ECpZ/s/WuR79AYy7iQeqnBLH5kFqt/DLZiYqnbe+TAP5gbOn6STwpZFg8+Mi2f41UBH98ahp/faMXHi9JJfABWSlZkEmg54LV4vWex7RbsE7dSFbI8JGK9VDII3LtcGy969GPBhLsowTOwMAIhNf0sccPHjK2dv8WwK/UauUZ0jMnHra8s4ggvpUQFgxxj44CWBOJ873odGH/0Yv7MAsWjGDJiInP58W0+x34fO9lfK/KTkPzh68X9TwLcNpm679168d+8UYkTkZ5tz6qUl1d8hFi2UTE3Q8AjyAmAJ4xtnT9RfgK2OyuIZvdFXc9MkKiglWti5S4CPQOXl4xP+GZEF1gPJ6zF4mLQHa6lEXZ7yK4Q5+m4hJZbHaX22Z3vQLgFUNTzUOG5loTgM9EcUnjgqgIDoKxpeuF2bjLXBJCYMpZVcSSmw4OHMfY5OVZ8ePucWQli+cmeTwX4PGeu+znWakReUv/t7BoZ1DV2RRxMbZ2j9rsLp26uqTN0Fz7NTIeRcp6qAnSiPygzdb/ks3usgF402Z3TSwWf0sIgalgVbdE4jzDYxfwovPIvL+b8k7B7XWLYsV4vRNwey7bEfSTkSL5W3re2NK1XeqTUJZG+GLb7K7njK3dzxmaatJIxvDXSWvScMpgRgUhAfCysaXrJcEoB+A0tnaPBXughBAY0sdDcgTXyOtbeDNFDDfJ55v27xbNeCmXk6yQvLzqp8bW7gGpT0IJDmNrt2BhWNTVJcLtGkNz7T+R7G3lApbNNBnF4vRbIrb+1212l5M0ATskVsPxZS8w5VX+liZiTWRclLdODS36e8FNyk4OvWh5Jqh7mozqmR+5TNK4/bixpetHUp6AEh42u0u4vWFs7RbcJhiaalJJe9DZOjgvERbBtRmROjFy2QtMBatKjUS0fej8GEYnJhZ9zKyblCQP/mWfyXM55b9fjEm3pN0R/9fY2h03g9oofstmksxhigqRalcQTaToc3IZ75wLrHBYcJNCweM5v6S4CLg9kua7RSxRkbI8oAIjEqfHAot/CW5SsPh8Hni8gQnY2JRkOW8TxpaubqkOTlmeJILARGRS4KkALZhJ7yQmPcG1QvV4zi4ad5nL2QuSCUzXfMVsFMpiJILASN7Y2OvzYWQscMtkdCrwnj1e73TA1ovAmbEJeLziu0k2W/+fRT8oZdmTCAIj+VXX7fFg0h34rp5gxUy4A4vFeDxBNRDD+LQHIxfE11Sb3UXdI0rQJILACN9QSVs3Tky7F8hKWZiRqRF/oeJi+HxueH1B5zbhyGnR/9yTZCA7hRIUy15gzG3+jPbjUp7DF7S8AG6fe8kdJa83tB2nk6MhD3BciL9FczogJX5Z9gJDiFoewGKMTo/C61s4eOv1hiYUA2dEt2AWHNpPoSxGogjMi9FewHxMe6dxauIUPN7LjQOfzwOvLzQLxjV0DhemRMn0nuVvYh6MkjgkhMCYTVZJA5RpSckh10i7vW6cnjx9WTzG4xlZsN5o6WP68CY/HOKKLmOcjK6gUIImIQTGwTlfIIPIJCE5SYGUpNCrLqa8U/6g7yw+nxce74Ww1sS5hkKUp8uYIDcKJWgSQmB69vVPAXhKquPLZTLkpqeFdYwx99i7+TE+31TI1sssbw+N4rXjZ8I6BmG8sGhneGpHSVgSQmAw4yZJWkeTE6bAgAR9p73T/vhLuAge1//td/mnG1Ao0SJhBAZAl5RJdwUZ4kyFPTNxBh6fOHPiz01Moyd8KyZzaPB+KTulUZYxCSMw5rbO8wBMUh1/bb4487KmfdMYmhzB9Dw7S6FgfeP4ok2wAiCN3CiUoEkYgcGMm/QjqayYopxspCWL09Tb4/PijHsSo+6pkJL45nJydBwHjob1J6eSrmgUStAklsC0dQ45OOcPpDi2XCbDlYXijocd97oxMj0ZrgWCvY6jmJgOyyKqC2sBlIQloQRGoIdzmqQqHVhXkC/6Mad8Xpx1h1e8ODoxjf1HF2/nuQQ3h7UASsKScAJjbuscB7BFirwYJi8HmanizyUSREawZNyLlBUsxd/7TobTTvP9ZEg7hRIUCScwAlsqdzgcnPMrYh83LTkZt19bJsLY1sufP+nz4PT0hN+aCcVlGjo/gT85joa6oBUArgv1yZTEJSEFRmB7Q/tTAH4m9nFX5+Rg4+pwB90vLFAT3hmhmfAEX2v0wtun8OpAaAFfdXVJdUhPpCQ0CSswAvfds7tJikK+G4rXIkkezku7+HO98OGsZ8rvNnmCtGae4Ppx4OgQgjWC1Grl5uCeQaEAimgvIJqcOjHiAfDHClZ1F3EDRCE1KQlTbg9Ojl4+2jUQZDIZfFjaQvHA599p8vi8UEAe0Ewkj9eHnuPDSFHIUVIYVD90BsBPbXaXZE1/KcuPhLZgQLauAXxL7ONWrGPCmEItgyxA7ff5t7M9OOOewFQQyXlPv3YMp88HVcOYA6AqmCdQKAkvMJhxlf4EQNSJhZkpKShdvSqMIwS3aSMIzbB7Euc9UwEFgQXXyvziWxgPom+Mobn2g0EtipLwJLSLNMupEyNwcM5nNtdX9QN4/5wxm2HB5Oagb/AdTHuC3x6WyeTwIXhvZNrn9QeChStHklzut4UWYnRiGm+/M4qKKwoCnWldYrO7fjowMEIrKCkBQQWGcOrEiM/c1vlqOavaU8Tkf4y4BGGRpFBgRWamX2RCYaZMIPjcF59/W9uLC56Z+EySTLFgfObs+DTeOjWKa5g8pCYt+XHIK16Xd+Cxxw/2Br0oSkJCBeYSrJb9pwE8WcGqNgMIx8fxk5ueBrfHG2LAV7Aqwoupun0zgWDBbUqSzR8IFiyZN0+MoCgnA/kZKf4g80IUF+czNrvrlwMDI2Gti5IYUIGZh559/WcdnPOxzfVVlQCuDPd4a/Ny/Y6KIDLB+Bbv7SaF75EIrtOs0ChkssuEZmzKjX1HhnB+chqlRXmL7UgVF6/Le/6xxw/GZCN1SmxBBWYBTp0YmQDw+wpWVQVgQzjHEoRibX4uhi9cwJmxYJvD+fwb0mIxV2hS5Ze//ceGx/yu0iJb2LLi4nwYW7v/INqiKMsWKjCL0LOvXzAf/hfA+SImvybc12tVdhbePnU6yKCvLGw3aT7cPi8mvR6/paKQyS8KBTuHRpGXkYI1eZkLhYivNDTXdhpbuyWdN0WJf6jALEHPvn6f1bLfXs6qniti8usAhNxZKjUpye8uHT41FHA90Yyb5A0p2LsUXvj8IjPpdfvPkyST+XedhKW9zg/7kwU3rMqdLyaTAuBTACw2uyu0CDYlIaACEyBWy/6jDs75q831VSoA14Z6nMzUFKzOzcZbp4aWHB37HuEHexfD65+X7fHvOk2TrGCFTOYfQXvkzHmsK8hEZuplzbTS1Gpluc3u+hXdtqYsBBWYIDh1YmTcwTmfLGLy3y5i8q8LtbwgJy0NhVmZcA6dDqgmSEor5lI8ZNdpmrhPZy9M4YW3B3Fh0o0Nq3Igv7hSfH3xurzhxx4/GJOD7SjRhwpMkJw6MSJYMw4A/wWgt4jJfz+AoJti52Wk+0Xm6JkReLwBCIdMeKtEnda4KB74/Al7gmUjuHPHhsdw6MRZrM3LRG7Gez1viovzb1NXl/zpsccPnozY4ihxQ7iNSxKevQd2lQF4AUBI7eyGL4zj9/tf9cc7lsYLry86I4qED0pOUgqyklLQcGsZVCsvykN8urBo5x1RWRglpqEWTJiY2zpPA3iiglUpAZQGK9rpyclYnZMN5zunA2i9IAs5u1cM/AFhjxuvHR/GufFprMhKQ9ZMbEalri557bHHD74ZlYVRYhYqMCLQs69/2ME5Hyti8rkiJl+wZNYH89pmp6VhXUEejpweXnoLO8Ku0qUIrtOY243DQ2fxYv8p/87T+hXZspL1BXeoq0v++tjjB09EbXGUmIO6SBKga6wr0+k13wdwVzBCMzoxgb09by6ZjOfz+TvBiLFUUSjJz8ZnWRXKVubzMpnsc4VFO7uivSZKbEAFRkIeaG+4uYJV7QRwe6Cv9ZTbjWfe7PNbM4vh9U1KunUdLILzdt3aDHzgykLPyUNjX7vnc09JNuSOEj9QgYkAD7Q3VFewqi8Qi2bJAkqvz4f+odN40XkEZ8cXagrlg9c3HrV4zEIIQrMiZ8p964byJ7v+9+1Wc1vnvmiviRI9qMBEkL0Hdq0FsCfQznCj4xN4nDuAac/8IhJrrtJccjNk+FTVbe7UpNSdWyp3/DDa66FEBxrkjSDmts5zDs75qyImf6CIyb8KQOFij09NniktGBg+i6l5gr8zTakik4AXLJPTwMCZIfnq3IK6hm9suV2n12QCONazrz+0RsWUuIQKTIQ5dWLEbbXs3+fgnG1k10mwIgXLJn2+x2elpaJ09UqMXBjHyPjl1orMv6skE7XiWiwuTE3hzZPH4fPJ163Mybmj8qYNX9HpNSUA+nr29UsyI5wSW1AXKQYor1Jm6fSaL1ewqq8v1H/G5/P5+8m86DyCE2dHL/u91zcFYCoSyw2JZEUqKtaux40lxUhSKAQ1fNLBOY3bG9r3R3ttFOmgAhNDlFcpk3V6jbaCVd1L5kFf1ijX6/Ph1YHjeNl11D+C5OLfxdbO0uXIUJBRgNvKrvK7fsTscjg4p7mHc+4WXMhor5AiLlRgYhRdY93aclb1iYWsmjNjF9B16DAGz52/6Ode30RUE/GWRga5LA3XMWtxs2o9UpLenZ4wBODh++7Z/V89+/ovN9EocQmNwcQoPfv6z1kt+18C0F7BqtYC2DT39+kpyf6xKANnRjA29Z5rJJMpAhraFk188OCd85PgR0axYVUhFDNTMDMA1G2ur7oTwBM9+/pjc3uMEhRUYGKcnn39bgfn7DjFD/+tglWNAVgzO/FALpP5v6DpKSn+IPBMwaSMeFaxLzJjU168wQ/6q6uKsrNmG1sVVbCqz+n0mnXlrOqk1bJ/MNprpYQOdZHijPIqZapOr/l4Bav6JoAbZ38uiMuLThde42e6Jvh8bvgwKUrDcOmQQyZLE5wmrMzKRE3ZBqzMvqjzhb9lqdlk3Wlu66RNxuMQKjBxjK6xTq3TawSh+fBsTxrB7ejue8tv0cxk+07E5Bb2xaRCLkv2W2TXr2PArl+HZMVFxrXgAz5hNlmN5rZOR/TWSQkWKjDLAF1jXXo5q7qjglV9A8Ctbq9Xtv/IMTiO8ZjyuMnuUmy7TDKkQiabacuZl57uF5rSopWXCo2glD0Ozvm7Hs75c3NbJx3OFONQgVlm7D2w6+sAHgaQNOl244+O1zE4ep40qoq9jN+5yGWZF30k1+TmoP76a2eDwJdyFMDtWyp3HIrkGinBQYO8ywxzW+fL5azqr0VM/qokuVx1ZWGhYsLtxulzE3Gwu+SFTJb0rsicn5zZaRKEJi35sqbjuQDu1uk1RQCGAZw8dYI2H481qAWzTCmvUqKCVeWVsypdBav61rHhkSuf630Lw+PDMW7JJEEuS73oo5kkl+N9qvUoX7tmsYmTfQ7O2WI2WX/Ts69/oRJ0SoShApMAkAxh3dWV65te6j9ybc/xo/B4J6O9rEVIJiJzMVfk5fqFpihnwamTAscdnPNHZpO1vWdf/1kpV0lZGiowCUR5lVKu02u2lm0q/tz+o0c1B46+neP1xao1kwSZLNU/CO5Srly5AjWlG/zV5osgmGp/cXDOX5tN1qd79vXH6h+6rKECk6DoGusKNZ+9Sf/Mm69+c+TChZDmO0mPAnLZvEXm/tlSH7qmFKsWt2Zm6XFwzofNJqu5Z19/LBdrLTuowCQ42i9erWRuU70xMDKWFu21zIcMaSTwezkpCgU+fWMlstMud6cW4AWzyaolkyAoEYDuIiU4fa8Ojdz7mfcNryzK3sKPXJAtPTol0ly8szQXYa1HzwwjOzUVOelp883QvpR1FaxKp9NrrgAw0rOvnw7vlxhqwVD8DA3e/52RC1Pfs755TNZ5+Lh/TnXsSE2SvwJ7MZSFK1C38SqkJAV8zfQC2OPgnP+xvaH9gBirpFwOtWAofmx219++9Hn2tWuYfM21qwvS3xmZwNjUNNwxEQT2krqleRPu/IxcGPdbM+tX5M9tAbEYwsX16iIm/x6dXlMK4EDPvn6aGSwy1IKhXMSep+5+v1qt/Ou0x5v+7KHj6Dp0AmPuaUx4PJj0RbOmSQaZLGPeXaW5ZKam4CPl12BFVmawJ5gA8LSDc/50e0P7s+GslPIe1IKhXMRjjx88qq4uOV6yvuCjG1bl4tq1+YBPhtHzU0jx95rxwR21OI1vwYDvLNMeD94+NeTPlclOCypuLRx4YxGT/wWdXnMdgJdoHk34UAuGMi9Dg/c/D0A9+3/O9Q4ef8Xp//eU14tRz2QAs7TFRyZLhyyA62JGSgo+xV7vvw+RQQA3b6nc4Qr1ABRqwVAWQF1dcri4OP9zs5+RNbkZyE5LxuHBs343JV2RjCSZHB6fN8KFBx5AlrSkqyRYMm+eOIWCzAzkZcyfS7MEWQA+Wc6qjlgt++lQ/xChAkOZF+IqpRYX598Kv+Ugw7qCLJQW5fpFZmLa4xcYQWiS/ULjgzdi+05Lu0oCHq8XzqHT/mZWIYpMThGT/ymdXvOpclY1NMgPv37qBI0DBwMVGMqCDAyM2D7zD5VbARTN/iw3IwWbigvh9npx8uy4f8rBjNAk+YUGJD9FWrz+j+5iu0qzCEtxnR7GmtygYzJzWVnE5H9yc33VlQ7O2XXqxAgtpgwQKjCUBRkYGPGoq0scxcX5n5/7WUlNUmDjmjxsWJWDN0+MYMo94yQJQpMmT0K6fMa6kHaL2/dug6qlEERQsGSKC/LDickIXL+5vurT5azqJatl/7FwDpQo0CAvZUmGBu//KIAnyE7LRQxfmMQvbX04PnLhsucJX+wxzzTGvdIk7cmQEZAVM0tWago+Vlnhn5YZJpMOztm8vaH9p+EeaLlDBYYSEEOD9z8N4Pb5fnduYgrGpx3+uMx8CJbMWfek6NvbMqRAJgvOIilbvRJ1G0vFWsITZpP1i+a2TjpiZQGoi0QJCHV1yWRxcf4n5/ud4DIVF2T63aVpz+VukVz23q6TIDZiykygbtIsw2Pj/svq6tycQGqXluLaClZ1vYNz/vHUiZHYndsbRajAUAJiYGCk9zP/UPkJACvn+31BZhquYfJxbHgMZ8cv/67JSIwmXZEEBeSYFkVofKRvTOBCITzj+MhZ/6zvK/Lzwl4BgNLN9VV3APgTnUh5OVRgKAExMDDiU1eXuIuL87ULPSYrNRk3qVYhLVnh38qeDxlkSJbLkSGfEQbBbQpHaGT+EoLgP8Ynz870+s1JF6VLxeoKVvWxclb1Z6tlP20FMQcqMJSAGRgYOfSZf6j8mn+Q0QIItsT6FdnIz0zFoZMjWCjsIohLilyBzFnXyRuqRRP4btKlCJbMxjVF/p6/IpBXxOTfpdNrDjs452GaLzMDFRhKwAwMjEwbmmuVAKqWeiyTl4lV2Wl47fjwksLhd52IRTMd9Na2L6DM3vmY8ngwMT3tb/UgEjkAPru5virdwTmtVGSowFCCJ0utVn4ikAcW5WbgzNgk+Hm2sC9l1qIRbhPe4MarhOomCZweG8O1zJpLB7yFi3pzfVW3ua3ziJgHjUdEsQ0pCcXzwYyJ/EjFOqzMDjzOkSyToyApbcaiCfA5M/OeQnSwfEDPMT6k5y6BqbxKGaO9jiMHFRhKUBhbu48BeDXQx2emJuMf31+GVdmB1wIlyeXISUrBiuR0f4uIpfEinFDxq8d4nJsQfYzLxgcf2fZ4eZUyrNTheIcKDCUUngnmwYVZafjm5utwVVFOUCdRyGTIT05FriIF8qXsmTDKEtxeL/YflSTzv+7BR7Y9IMWB4wUag6GEQoZarfxMME9QyGUoLcrDgaNDmHQHJwaCRSO4TB74FiyklPmLH0P/OJ8ZG8O6/DxkpYZdRnApN5ezqv1Wy/4+sQ8cD1ALhhIKr4TypOy0ZHyCVYVUnyKXyZCXlIqC5DSkBlF/FCgerw9Pv34Ik9Oiz++WVbAq094Du8rEPnA8QAWGEgqnhIt+KE+8ek0e1q/ICvnEyTI5cpPT3m0NISZjk1Pgz0rSJZMBYNU11oXUlCaeoQJDCRqb3SX4OC+H+vyajUxY5xcsIMGaSZFAZI6eHhb9mIQrylnVl6U6eKxCBYYSNDa7v03t30J9/jVr8rFxdXh1QH6XKTn13d4zYvH20Bl/mwkpqGBVO8urlPmSHDxGoQJDCZWeUJ8okwF3lq/zi0Q4yCDzb2fnJ6VCIZI1MzE9jcHRc6Icax4KH3xk27ekOngsQgWGEiphjV1dnZeB69cViLKQFLkChWmFUISxizSX48OSTiv5J11jXYaUJ4glqMBQQuVUuAe4obhQnJUASJanoiBVHME6c2Hp0oYwWAGgRsoTxBJUYChR48pVOSjKEWNjReH/KKcqUpGdnB320c6OS9ugTqfXbJH0BDEEFRhKqFwR7gGSFXJ8SV2KFEV4H0OFIvPd3ry5KbnISArPAxkdn5Qs0Ev4ZKKUEFCBoYTKWjEOsiJrphNe6MigkF9steSn5CNZHlqPGIFJtxvTbknncK+qYFU3SXmCWIEKDCVUysU6UDjBXpks7bISAZlMhhWpK5AUwHC2hZhwT4f83EDQ6TV1kp4gRqACQwkadXWJcPchsY5XWpSHlKTQPooKeea8P0+SJ2FV+iokh9jtLgJQC4ZCmQ91dYlgGtwg1vEEcVmTG1rcRC5fuNeMXCZHTkpwFdwR5MpoLyASUIGhhMJ6AKJ0y54lFIGRy9KXHLyWpkgLy1WSkLW6xuXvJVGBoYTCLWIfsKQw+AJIhWJp60QmkyEvJfiyhLRkyV2rLNLDd1lDBYYSNIbm2g+Kfcy1efPHUhZCsF7k8sB6t6QlpSE1wMfCP0guSewevQux7FtqUoGhBAWJv4gW4J2lIDPV35QqUBRJwVklwcRi8jLSw66TChDRu1vFGlRgKEFhaKpRi5UDM5dkhdw/uC0QFPIcyIPcHUpVpCJFHlhu28qs4KypMFj242apwFCCQq1Wim69gMRKMlICCcbKoFCEVg6QnhRYWcKKyAnMsh81SwWGEjAk/2XB0bHhkpa8VNxDjuSkVSH33k1TBLbxtTI79I57QSJZX4hYgQoMJWAMTTWbxczgvRT5EjGYpKSCgAO785EsT17STcpKTYmUi8Q7OKfos1JiDUkSBAxNNXLSh/QaAKWG5tpiAEUAsucEts4DcBpbut4AYDO2djulWAtFHNTVJTK1Wvkv0Tq/Qp4DhTz8NiqCmzQ1tXDo46pVK/3uWgTo7dnXH4nzRJWwBcbQVCPYndepq0tuVquV7xPeIwAbAt2CMzTXCndeQ3PtX2y2/v9nbO1+2mZ3id7anRIehqYabbT6mMjlGUhKyhXlWIKbdBbzN5SSy2QoW71SlPMEwIFInSiaBCwwgv+tri7JAbBJXV2ySa1WXksslE0kaSgcBIvnDrVaeccetVKwZP5obOmy2OyuZ0mDaUoUMTTVFKjVyoekPs/E1OXXFZksA0mKFaTVd/gkyZL8btKU93Irhl2/DgWZkQnwOjjnCxE5UZRZUmCGBu8XvvzXA/gmgE+JnSI+DyoA3zA0134DwB5jS9c/Glu7QxqRQQkfQ1ONwtBc+ySxSiXlwmUCo0ByUoGoLotwrPncpMzUFNywPuwWNwHTwzkdETtZFLksyCv42oammqo9T91939Dg/U8DOEYGbX0hAuJyKVsNzbWvDw3ebzQ01VwV4XNTZj4PXwRQK/V53F4vxqff68EikyUjOalwyVqjUJhvN2nDysJIJdcJnHJwzuUfgJm1O4Uvr6G59lYAwu3DAFZFe2Hz4APwJoA/G1u6/sdmd71BxmdQJGLPU3dfq1YrXxIu8FKfa+TCJH7wp4P+fysUuUhSiBNzmQ8ffDgxdgJezHjfKQoFdO+rQnpKxFo7/HJL5Y67I3WyaJI0NHj/dwF8Jw7mVMtIzOcaQ3Ot4K69ZLP1/7fN7nrS2Nq97BOWIo26umSFWq18KhLiInDi7AWS57ICcrm0AxBl/i54Cni9MwJTWXxFJMUFZpP1yYidLMoobHbXc8Xr8uzFxfnnABSQW6wj2M3riovzt6rVyq8bmmtrDM21KwG4bHbX+WgvLt5RV5dk7vm/L/1R+O5F6JQ+7sj588fPpqfKA0znD5cJzwTcPjcKMjJQd/VVkXSPTvRwzq/27OtPiM2Li15VdXWJwtBUs1mtVt4D4CNxWIw1BcBqbOn6lX8nqrV7LNoLijeIuPwewO0ROJ3wJbPbbP0PPz2UZvABN0fgnH7OTJ7BhGccd20qR1Fu+JMIguA/tlTu+PdInjCaLCjbQ4P3bwLwWwBXR3ZJojEA4CEAvy4s2kl3oQJkaPD+VgD3RuBUgrj8c2HRzp+xWjaN1bLCexSx4fCCwKzJT8ft126M1Cn9mE3WSnNb58GInjSKLBiiLyzaeXDrXY9WGVu6PgDg+4L7Edmlhc06AD8C8NbQ4P3thqaaD5FWA5R5UFeXrBgavP9nAL4egdP93Wbr37z1rkd/Rv5/UyTFBf7qbQVuKimO5CkF9jsSZHt6loAdT3+qeHXJBwzNtToAH43RnaalGALwBwDdxpauF2h5wgx7nrr7OrVa+QeJ+8ROA3jOZuvftfVjv3h27i/0u/VtALZJeO5LmawoyR8oWZkjeW7PXBycc+v2hvaOSJ4z2oQU2VJXl6Soq0tuMDTX3gbgk6QBdMSiZCIhmOj7AXQYW7r22OyuHpvdJem0rVhDXV0CQ1PNPWq18j9FyMZeCM5m6zfZ7C7hNR66NLVAv1u/XvjuRbB95CEAd9XfuP4BAFsjdE7hs/a9++7Z/b2eff0J9RkTRRQMTTUqdXVJvVqt/BiAKgDxONxb+OS/COAlY0vXXpvddXg5C47wnhmaa38C4E4JDn8cwJPGlq5fGFu7F4w3MKVMRn1T/YtSVmhfwiHOwtVxFo7fe2DXSxEcHfKbLZU7Ph+hc8UUolsdhqYaQVw2GZprhQ9uPcldibe2EF4iOM8YW7r2ARBurxpbuyUd9yc1JEv7w2q18ovkvREr7iG4P88L7qexpetvNrvrdZvdteTksvp767/FlDEPi7SGpTjE9/J1HQ918LrGOoVOrzlOKvyl5qTZZL3O3NZ5OgLnijkkd2uGBu8X3KgHAbxP6nNJTB8Awax+vLBo54VoLyZYDE01yYbm2hYA/yziYQUh/jOApsKinYeCeSKrZWWslu0BcK2I61mISc7CbeIsnH+New/sWgfgbQCRyK5r3lK5ozUC54lJJN9VKSza+Zy6uqRaXV1yhbq6pIq0XPwggFKpzy0ywnr/B4BxaPD+FwD0kF42L9rsrrdjtWzB0FRTqK4u+YxarWwQyRV5neQaveKPr9hdfaG4kkwps5lYt1Jzju/lPz8rLgR1hMTl0H337N4dgfPELFEJzJLWD+sB1BiaaysBVAgXNdKQKh55h7hRwu1tY0vXWwDesNldZyIdxzE01WT7BV2tvJPMLxJe21DTY0cAvATgNWNL134Az9rsrpPhiilTyqTXN9UfAFAW1oEWxw3gab6X397xUMfrsz8sr1LKH3xk2/NSzHa6hLMOznnz9ob2oCy75UbM7PyQxlWbDM21anJlu5b0mom3bOJZhA/4SeJa9QLgjS1dJwAcAdAPQPj3OACfsbU7qAMbmvx9n9IBKEmDrxJDc+0G4oZeF2JsZQLAYVJQaje2dNn8Vlprt+htHfW79Q8B+LbYx53DAN/L/2PHQx3WS3+ha6wr1ek1vRKeW2DKwTnrtze0/0Xi88Q8MSMw86GuLklVV5dcr64uYdVqZdWcbnlFcRg4no9zxEoQ7s+Sf7uJ8MzGeXKJK5tF2mXkkb8/1JoxLzmXIHIHbbb+V2x2l+DqvBpIYDZc6u+tv5MpY/ZIVFzrAfBoR2tHE9/Hz9u27oH2hnsrWJWUMZFxB+e8e3tD++8kPEfcENMCMx8kWClYNp8F8HGSsUtZGsGveQqAWbBSCot2jkd6AayWlbNatk/ChL6dnIX7HmfhFnzA3gO7OiScjCAI9D9sqdzxlETHjzviTmDmYmiqEa6CVwguAnETriF+vWDpFJNWA3H9NwbJGHHBBBegz9jS5SI1Wa8L99HcZme1rHD7riACIh9asPhe5nv5H3MW7gm+j18w5lVepUx/8JFtAxKNbJ12cM7Pb29of1yCY8cty+7Lx2rZHMGlUK5ImVIWpmSQ6QbrDc21SiI66+a4GMLv8qO95gAZIaUOp0mXwWM2W3+/ze4SRGQQAA/gpLG1O+amBTKlTEF9U/3PAXxCZNf2ab6X/9eOhzr2B/LgB9obPlvBqswinn+WMQfn/Mz2hnaLBMeOa+K2+I/VsiuZUub9TBlzC7FalOQ2m0XsG535Qh4A0PHheyx/4Ht5F9/Hv3sMQ1ONjMQ1VgNYSeIbuUR88g3NtSuIFZROhCiFPEZB7mfJWCR7eZxYFrOMkFjBWdJe4gy5Co/YbP2nbXbXCBGRUQDDAE4RAZkwtnbHXWYxq2XzWS0rfPGqRTqk8Fo9y/fy3+cs3N/nvp+LUV6llFWwKjFzgGY57uCcH93e0L6wX5bAxI0Fw5QyeUwZU81q2feRXjXlQeYyeIir8CfOwr0A4BXOwp2UcMkJD1PKMPVN9U+LlH/zNoCfcBbucc7CDQb7ZF1j3WadXvNXEdYxyySAR80m63+Y2zoDU7kEJKYFhtWyq5hSZitTxnwSwG1h5HPMh5dYN09zFu7PfC//Ct/Hx5x7Ea/U31t/E1PGPEHc0lARLgpdfC///zgLt4fv40PqAkdyX+wiZpO/5eCcn93e0P6KSMdbtsSkwOh36wW35KsA/k3CKt9LEa6Qv/D3BNpmSoiO71LBatn1rJY9eIkbGSxOAPdyFu4Pi+0KBYKuse5GnV7zclgHeY/TZpO1ytzWeUSk4y1rYkJgmFIGTBlTzGrZOwHcRVK5o1WRPUXGtFg5C/cMgB6+lz+32O4EZQamlMmub6r/EpmhpQzhEGMAfs9ZuP8B8Dxn4cLe9SqvUuLBR7Y9TmZ6hQtnNlnvNrd1vi7CsRKCqAkMU8rImTJGzWpZDRlJqo7RyQZuwSQWTHXOwnUD+BuN3VwMU8rIWC37aaaMeTAEl0h4fe18L/9rvo9/grNw8891DZEH2hvqK1jVH8L8rA8DePi+e3Y/0LOvn441DoKICwyrZa9kteznySC3UK5y0cZLBOdVAK9xFu7vAPaL/cWIB4SLBKtl72DKmO+SWrJAGQWwl7NwZrIjdCHQ3aBg2Htg1ybhDsCaEA8x4uCc3+3hnCZzW6foJROJQEQEhtWya1ktqyWtNuvieXt8AYQP32sAXuYs3BukaxrHWbiRaC9MClgtewOrZT8C4GNkrHAgnAHwHN/LP8H38R2chZN04sMD7Q01Faxqb4h1WYI7/JjZZG02t3Uel2B5CYOkAsOUMrn1TfUtxFqJ16LFUPGRwPF+Ijb9pPDxMGfhIp6mHw6slhVc16vIReLzAW47C67EQb6X38P38U+SbnIRWK1fXJQVrOrFEPtGv+zgnPdub2h/XoKlJRySCgyrZTeRJKvITRWPfYYAdAF4nLNw1lh2rVgtm8Fq2QYAwm1jEDGylwE0cRbuec7CRTw4HmK90XkA/2E2WX9kbuuk6QoiIbmLxGpZwXK5ldWyN5E8hNsi2OA51pkgbRuOE7fqLc7COUlh4kkAp/lefiLU/I9AIQH3XFJGoRRcINKv9uYAt5qFtXZyFu5PRFxcYuwAhcID7Q33VLAqUxBiKLy2e8wm67+a2zrflHh5CUfEg7xMKZPOlDE3s1p2MwBNGP1LEoFpsoNxjJQLnCPNrYY4CzdMfneetHbwkTjHfBSQL5y/BILVsvmkudcVZNdHSdyJQL+UTtJcaz9n4Z7he/mDfB8f1X7F5VVK6PSar1Wwqh8F8Xf8zcE5d2xvaLdLvLyEJap5MCT/JUkwv5lS5jamjJndrl4u/V6WA6Nk18xBtumf43v5I7GUF6RrrEvT6TXfA9AcwMPHAPzFwTl/bjZZrT37aE6llMREot1ciLkuXE2vYbVsNTHTbyLFiBTp6SduzgukZksQloloL2ohHmhv+FwFqzIGsBUtWHkms8naam7rPBGh5SU8MScw88FqWRnp+SJYOmVMGbOJzF+6krpXITNK2mMKbs5B0nv3sFQ5KWJTXqUsePCRbT8G8LklHiq4le1mk7XF3NZJEyQjTFwIzELod+tXksFhGhJAjugo0DjDS5IDnwTwLIA3TNtMo9FeVCjoGuuydXrNcwAql3jo8wAatlTuSOjG29EkrgVmLiRXYw1pGH41q2U3AlhLbkqycxWLpQhi4iaB37dIA++jnIUbIB3u3uB7+dNS70hJia6xrlCn13wWQOMiI088AP5iNlkfFATG3NYZt3/vcmDZCMxiMKWMjCljVpIdk/UAilgtu2qOAK0lMZ7sCFZvB4OPNKE6T+6Pk+1tF2fheNLNbhDAMbK7tKzQNdat0Ok13wTwtUW2zccB/M5ssj5sbut0RHiJlAVICIEJBCJCCtLhrpDcCkiHu0xiAeWwWjaXNLqa7euaOo8oZc/JXB4jH/65zHa1O0fKDCY5C3eebDOfI1bIGLkfIlvT05yFS5irsa6xTrgr0+k1XwFwN3kfLkV4DTvNJutTACy08VPsQQWGElPoGutu0Ok1OgBbSPP2+dxaQYR/bTZZ/8vc1vlGFJZJCZDlVnQYccqrlEkVrKpKp9fUkKDjatK/d5zEQg6ZTdZDxK05CuCUua1T8vlD8YKusU6w9q7X6TWzvYAWmvYoiMqTZpO1w2+1tHWei/BSKSFALZgw2Htg1/UATCRXJ1COALCSofG2LZU7EnLrdO+BXVcD+A6psF+qudjLAD6zpXKHM0LLo4gEFZgg0TXWrSlnVfdUsKotxGIJp0p8kgRuj5P0+7fMJutRUot0gsReTjo451TPvv6YyZwNBl1jnYJYdRsAlOr0mhuJIF+9hAUtWChWB+d8tIdzPk2tvviECkyA6BrrKnR6zbcBfJoEgiPFBBGaARL0HSSic6KHc54gY03Ok2DwqLmtM6LV2WQcSAGpZSoGUKTTawRBKSW3jUFkYY8AeMpssv4KgJ2KSvxDBWYRdI11WTq95g4AXwTw4TjIo5kmuTBniBhNki/tKPn3mTlFkb45z7k04S5pzq5N0pyt4QKyY5ZLdsryiLCkhvjazG6//93BOc09nPPP5rbOC2H8/ZQYgwrMPJRXKTN1es1XKlhVEym8pIjLIQAdZpP1dwAO0GS45QvdRSKUVylRwaqUJFP0GyF2Q6PMj2AxHXBwzud6OOceB+fsideYEiU4qMDMuEJynV6zC8C9ceAGxROCu/NjAMYtlTuWZX9iyuIktMCUVyllOr3m9gpWtTPIrWbK/MyOeHnFwTn/3MM5rea2zneivShK9EhIgdE11snKWdWtFazqhyIOZU9EfKSo8lmzyWoF0G1u6zwd7UVRYoeEEpjyKmWaTq9prGBV20geBg1yB4fg5rzg4Jz2Hs55AIDDwTmP0XgKZSESQmBIv1ZtBatqWSQVnXIxw6Tv7ktmk/VNAK85OOfrdLIhJRgS4gq+98CubSSlPyH+3hDxkbncnQD+G8Aft1TuoOM7KGGx7C2YvQd2fRvAg1RcLuICKUXoAfC62WR1ABBcnn5zWye1UCiisey/dLrGuhqdXnMtSVu/itTErCHp/stVYN0kXsKTOqfDAPrMJmsvSXIbcnDOCdpRnyI1y15gFkLXWJdPOtmVAGB0es16kgpfRG6rSFOp7BgSomlSBHiG1CQNkhqls2aTdVZMBNU4bm7rpHknlKiTsAITCLrGuiTSvS6diE0+qcMpFH6u02tySKuBpdoNBIrgulwwm6zDc/rrjszpbDchiAx1YygUCoWS8NDpiRQKRTKowFAoFMmgAkOhUCSDCgyFQpEMKjAUCkUyqMBQKBTJoAJDoVAkgwoMhUKRDCowFApFMqjAUCgUyaACQ6FQJIMKDIVCkQwqMBQKRTKowFAoFMmgAkOhUCSDCgyFQpEMKjAUCkUyqMBQKBTJoAJDoVAkgwoMhUKRDCowFApFMqjAUCgUyaACQ6FQJIMKDIVCkQwqMBQKRTKowFAoFMmgAkOhUCTj/wcAAP//tRAZgHqzDLUAAAAASUVORK5CYII=;" parent="fOmn5NKXTGddU6EdoQ0m-86" vertex="1">
          <mxGeometry x="10.54000000000002" y="70" width="70" height="70" as="geometry" />
        </mxCell>
        <mxCell id="fOmn5NKXTGddU6EdoQ0m-85" value="&lt;font style=&quot;font-size: 18px;&quot;&gt;Lightstreamer Server&lt;/font&gt;" style="sketch=0;outlineConnect=0;fontColor=#232F3E;gradientColor=none;fillColor=#232F3D;strokeColor=none;dashed=0;verticalLabelPosition=bottom;verticalAlign=top;align=center;html=1;fontSize=12;fontStyle=0;aspect=fixed;pointerEvents=1;shape=mxgraph.aws4.traditional_server;fontFamily=Courier New;" parent="fOmn5NKXTGddU6EdoQ0m-86" vertex="1">
          <mxGeometry y="1" width="86.54" height="150" as="geometry" />
        </mxCell>
        <mxCell id="fOmn5NKXTGddU6EdoQ0m-91" value="" style="group" parent="1" vertex="1" connectable="0">
          <mxGeometry x="-390" y="360" width="120" height="66.18" as="geometry" />
        </mxCell>
        <mxCell id="fOmn5NKXTGddU6EdoQ0m-88" value="" style="pointerEvents=1;verticalLabelPosition=bottom;shadow=0;dashed=0;align=center;html=1;verticalAlign=top;shape=mxgraph.electrical.waveforms.sine_wave;fontFamily=Courier New;fontSize=18;fontColor=#000000;strokeColor=#000000;strokeWidth=2;" parent="fOmn5NKXTGddU6EdoQ0m-91" vertex="1">
          <mxGeometry width="40" height="66.17999999999995" as="geometry" />
        </mxCell>
        <mxCell id="fOmn5NKXTGddU6EdoQ0m-89" value="" style="pointerEvents=1;verticalLabelPosition=bottom;shadow=0;dashed=0;align=center;html=1;verticalAlign=top;shape=mxgraph.electrical.waveforms.sine_wave;fontFamily=Courier New;fontSize=18;fontColor=#000000;strokeColor=#000000;strokeWidth=2;" parent="fOmn5NKXTGddU6EdoQ0m-91" vertex="1">
          <mxGeometry x="40" width="40" height="66.17999999999995" as="geometry" />
        </mxCell>
        <mxCell id="fOmn5NKXTGddU6EdoQ0m-90" value="" style="pointerEvents=1;verticalLabelPosition=bottom;shadow=0;dashed=0;align=center;html=1;verticalAlign=top;shape=mxgraph.electrical.waveforms.sine_wave;fontFamily=Courier New;fontSize=18;fontColor=#000000;strokeColor=#000000;strokeWidth=2;" parent="fOmn5NKXTGddU6EdoQ0m-91" vertex="1">
          <mxGeometry x="80" width="40" height="66.17999999999995" as="geometry" />
        </mxCell>
        <mxCell id="fOmn5NKXTGddU6EdoQ0m-92" value="" style="group" parent="1" vertex="1" connectable="0">
          <mxGeometry x="-510" y="360" width="120" height="66.18" as="geometry" />
        </mxCell>
        <mxCell id="fOmn5NKXTGddU6EdoQ0m-93" value="" style="pointerEvents=1;verticalLabelPosition=bottom;shadow=0;dashed=0;align=center;html=1;verticalAlign=top;shape=mxgraph.electrical.waveforms.sine_wave;fontFamily=Courier New;fontSize=18;fontColor=#000000;strokeColor=#000000;strokeWidth=2;" parent="fOmn5NKXTGddU6EdoQ0m-92" vertex="1">
          <mxGeometry width="40" height="66.17999999999995" as="geometry" />
        </mxCell>
        <mxCell id="fOmn5NKXTGddU6EdoQ0m-94" value="" style="pointerEvents=1;verticalLabelPosition=bottom;shadow=0;dashed=0;align=center;html=1;verticalAlign=top;shape=mxgraph.electrical.waveforms.sine_wave;fontFamily=Courier New;fontSize=18;fontColor=#000000;strokeColor=#000000;strokeWidth=2;" parent="fOmn5NKXTGddU6EdoQ0m-92" vertex="1">
          <mxGeometry x="40" width="40" height="66.17999999999995" as="geometry" />
        </mxCell>
        <mxCell id="fOmn5NKXTGddU6EdoQ0m-95" value="" style="pointerEvents=1;verticalLabelPosition=bottom;shadow=0;dashed=0;align=center;html=1;verticalAlign=top;shape=mxgraph.electrical.waveforms.sine_wave;fontFamily=Courier New;fontSize=18;fontColor=#000000;strokeColor=#000000;strokeWidth=2;" parent="fOmn5NKXTGddU6EdoQ0m-92" vertex="1">
          <mxGeometry x="80" width="40" height="66.17999999999995" as="geometry" />
        </mxCell>
        <mxCell id="fOmn5NKXTGddU6EdoQ0m-97" style="edgeStyle=orthogonalEdgeStyle;rounded=0;orthogonalLoop=1;jettySize=auto;html=1;fontFamily=Courier New;fontSize=18;fontColor=#000000;strokeWidth=3;" parent="1" source="fOmn5NKXTGddU6EdoQ0m-96" target="fOmn5NKXTGddU6EdoQ0m-85" edge="1">
          <mxGeometry relative="1" as="geometry" />
        </mxCell>
        <mxCell id="fOmn5NKXTGddU6EdoQ0m-96" value="" style="shape=image;html=1;verticalAlign=top;verticalLabelPosition=bottom;labelBackgroundColor=#ffffff;imageAspect=0;aspect=fixed;image=https://cdn2.iconfinder.com/data/icons/web-development-and-studio/512/44_satellite_antenna_radar_space_dish_space-128.png;fontFamily=Courier New;fontSize=18;fontColor=#000000;strokeColor=#000000;strokeWidth=2;" parent="1" vertex="1">
          <mxGeometry x="-280" y="360" width="90" height="90" as="geometry" />
        </mxCell>
        <mxCell id="fOmn5NKXTGddU6EdoQ0m-102" value="" style="sketch=0;aspect=fixed;html=1;points=[];align=center;image;fontSize=12;image=img/lib/mscae/OpenShift.svg;fontFamily=Courier New;fontColor=#000000;strokeColor=#000000;strokeWidth=2;" parent="1" vertex="1">
          <mxGeometry x="347" y="157" width="50" height="46" as="geometry" />
        </mxCell>
        <mxCell id="fOmn5NKXTGddU6EdoQ0m-109" value="" style="group" parent="1" vertex="1" connectable="0">
          <mxGeometry x="260" y="351.5" width="180" height="90" as="geometry" />
        </mxCell>
        <mxCell id="fOmn5NKXTGddU6EdoQ0m-108" value="Telemetry Receiver" style="rounded=1;whiteSpace=wrap;html=1;fontFamily=Courier New;fontSize=18;fontColor=#000000;strokeColor=#000000;strokeWidth=2;align=center;" parent="fOmn5NKXTGddU6EdoQ0m-109" vertex="1">
          <mxGeometry width="180" height="90" as="geometry" />
        </mxCell>
        <mxCell id="fOmn5NKXTGddU6EdoQ0m-106" value="" style="shape=image;html=1;verticalAlign=top;verticalLabelPosition=bottom;labelBackgroundColor=#ffffff;imageAspect=0;aspect=fixed;image=https://cdn4.iconfinder.com/data/icons/scripting-and-programming-languages/512/Python_logo-128.png;fontFamily=Courier New;fontSize=18;fontColor=#000000;strokeColor=#000000;strokeWidth=2;" parent="fOmn5NKXTGddU6EdoQ0m-109" vertex="1">
          <mxGeometry x="5" y="5" width="30" height="30" as="geometry" />
        </mxCell>
        <mxCell id="fOmn5NKXTGddU6EdoQ0m-115" style="edgeStyle=orthogonalEdgeStyle;rounded=0;orthogonalLoop=1;jettySize=auto;html=1;entryX=0.5;entryY=0;entryDx=0;entryDy=0;entryPerimeter=0;fontFamily=Courier New;fontSize=18;fontColor=#000000;strokeWidth=3;exitX=1;exitY=0.5;exitDx=0;exitDy=0;" parent="1" source="fOmn5NKXTGddU6EdoQ0m-108" target="fOmn5NKXTGddU6EdoQ0m-4" edge="1">
          <mxGeometry relative="1" as="geometry" />
        </mxCell>
        <mxCell id="fOmn5NKXTGddU6EdoQ0m-116" style="edgeStyle=orthogonalEdgeStyle;rounded=0;orthogonalLoop=1;jettySize=auto;html=1;fontFamily=Courier New;fontSize=18;fontColor=#000000;strokeWidth=3;exitX=1;exitY=0.5;exitDx=0;exitDy=0;" parent="1" source="fOmn5NKXTGddU6EdoQ0m-108" target="fOmn5NKXTGddU6EdoQ0m-21" edge="1">
          <mxGeometry relative="1" as="geometry" />
        </mxCell>
        <mxCell id="fOmn5NKXTGddU6EdoQ0m-117" style="edgeStyle=orthogonalEdgeStyle;rounded=0;orthogonalLoop=1;jettySize=auto;html=1;fontFamily=Courier New;fontSize=18;fontColor=#000000;strokeWidth=3;exitX=1;exitY=0.5;exitDx=0;exitDy=0;" parent="1" source="fOmn5NKXTGddU6EdoQ0m-108" target="fOmn5NKXTGddU6EdoQ0m-69" edge="1">
          <mxGeometry relative="1" as="geometry" />
        </mxCell>
        <mxCell id="fOmn5NKXTGddU6EdoQ0m-118" style="edgeStyle=orthogonalEdgeStyle;rounded=0;orthogonalLoop=1;jettySize=auto;html=1;entryX=0.5;entryY=0;entryDx=0;entryDy=0;entryPerimeter=0;fontFamily=Courier New;fontSize=18;fontColor=#000000;strokeWidth=3;exitX=1;exitY=0.5;exitDx=0;exitDy=0;" parent="1" source="fOmn5NKXTGddU6EdoQ0m-108" target="fOmn5NKXTGddU6EdoQ0m-77" edge="1">
          <mxGeometry relative="1" as="geometry" />
        </mxCell>
        <mxCell id="fOmn5NKXTGddU6EdoQ0m-121" style="edgeStyle=orthogonalEdgeStyle;rounded=0;orthogonalLoop=1;jettySize=auto;html=1;fontFamily=Courier New;fontSize=18;fontColor=#000000;strokeWidth=3;" parent="1" source="fOmn5NKXTGddU6EdoQ0m-85" target="fOmn5NKXTGddU6EdoQ0m-108" edge="1">
          <mxGeometry relative="1" as="geometry" />
        </mxCell>
        <mxCell id="nvT3yYiENmu1uWHt5n6_-1" value="" style="group" vertex="1" connectable="0" parent="1">
          <mxGeometry x="1220" y="280" width="180" height="90" as="geometry" />
        </mxCell>
        <mxCell id="nvT3yYiENmu1uWHt5n6_-2" value="Consumer" style="rounded=1;whiteSpace=wrap;html=1;fontFamily=Courier New;fontSize=18;fontColor=#000000;strokeColor=#000000;strokeWidth=2;align=center;" vertex="1" parent="nvT3yYiENmu1uWHt5n6_-1">
          <mxGeometry width="180" height="90" as="geometry" />
        </mxCell>
        <mxCell id="nvT3yYiENmu1uWHt5n6_-3" value="" style="shape=image;html=1;verticalAlign=top;verticalLabelPosition=bottom;labelBackgroundColor=#ffffff;imageAspect=0;aspect=fixed;image=https://cdn4.iconfinder.com/data/icons/scripting-and-programming-languages/512/Python_logo-128.png;fontFamily=Courier New;fontSize=18;fontColor=#000000;strokeColor=#000000;strokeWidth=2;" vertex="1" parent="nvT3yYiENmu1uWHt5n6_-1">
          <mxGeometry x="5" y="5" width="30" height="30" as="geometry" />
        </mxCell>
        <mxCell id="nvT3yYiENmu1uWHt5n6_-4" value="" style="group" vertex="1" connectable="0" parent="1">
          <mxGeometry x="1230" y="290" width="180" height="90" as="geometry" />
        </mxCell>
        <mxCell id="nvT3yYiENmu1uWHt5n6_-5" value="Consumer" style="rounded=1;whiteSpace=wrap;html=1;fontFamily=Courier New;fontSize=18;fontColor=#000000;strokeColor=#000000;strokeWidth=2;align=center;" vertex="1" parent="nvT3yYiENmu1uWHt5n6_-4">
          <mxGeometry width="180" height="90" as="geometry" />
        </mxCell>
        <mxCell id="nvT3yYiENmu1uWHt5n6_-6" value="" style="shape=image;html=1;verticalAlign=top;verticalLabelPosition=bottom;labelBackgroundColor=#ffffff;imageAspect=0;aspect=fixed;image=https://cdn4.iconfinder.com/data/icons/scripting-and-programming-languages/512/Python_logo-128.png;fontFamily=Courier New;fontSize=18;fontColor=#000000;strokeColor=#000000;strokeWidth=2;" vertex="1" parent="nvT3yYiENmu1uWHt5n6_-4">
          <mxGeometry x="5" y="5" width="30" height="30" as="geometry" />
        </mxCell>
        <mxCell id="nvT3yYiENmu1uWHt5n6_-7" value="" style="group" vertex="1" connectable="0" parent="1">
          <mxGeometry x="1240" y="300" width="180" height="90" as="geometry" />
        </mxCell>
        <mxCell id="nvT3yYiENmu1uWHt5n6_-8" value="Consumer" style="rounded=1;whiteSpace=wrap;html=1;fontFamily=Courier New;fontSize=18;fontColor=#000000;strokeColor=#000000;strokeWidth=2;align=center;" vertex="1" parent="nvT3yYiENmu1uWHt5n6_-7">
          <mxGeometry width="180" height="90" as="geometry" />
        </mxCell>
        <mxCell id="nvT3yYiENmu1uWHt5n6_-9" value="" style="shape=image;html=1;verticalAlign=top;verticalLabelPosition=bottom;labelBackgroundColor=#ffffff;imageAspect=0;aspect=fixed;image=https://cdn4.iconfinder.com/data/icons/scripting-and-programming-languages/512/Python_logo-128.png;fontFamily=Courier New;fontSize=18;fontColor=#000000;strokeColor=#000000;strokeWidth=2;" vertex="1" parent="nvT3yYiENmu1uWHt5n6_-7">
          <mxGeometry x="5" y="5" width="30" height="30" as="geometry" />
        </mxCell>
        <mxCell id="nvT3yYiENmu1uWHt5n6_-10" value="" style="group" vertex="1" connectable="0" parent="1">
          <mxGeometry x="1250" y="310" width="180" height="90" as="geometry" />
        </mxCell>
        <mxCell id="nvT3yYiENmu1uWHt5n6_-11" value="Consumer" style="rounded=1;whiteSpace=wrap;html=1;fontFamily=Courier New;fontSize=18;fontColor=#000000;strokeColor=#000000;strokeWidth=2;align=center;" vertex="1" parent="nvT3yYiENmu1uWHt5n6_-10">
          <mxGeometry width="180" height="90" as="geometry" />
        </mxCell>
        <mxCell id="nvT3yYiENmu1uWHt5n6_-12" value="" style="shape=image;html=1;verticalAlign=top;verticalLabelPosition=bottom;labelBackgroundColor=#ffffff;imageAspect=0;aspect=fixed;image=https://cdn4.iconfinder.com/data/icons/scripting-and-programming-languages/512/Python_logo-128.png;fontFamily=Courier New;fontSize=18;fontColor=#000000;strokeColor=#000000;strokeWidth=2;" vertex="1" parent="nvT3yYiENmu1uWHt5n6_-10">
          <mxGeometry x="5" y="5" width="30" height="30" as="geometry" />
        </mxCell>
        <mxCell id="nvT3yYiENmu1uWHt5n6_-13" value="" style="group" vertex="1" connectable="0" parent="1">
          <mxGeometry x="1260" y="320" width="180" height="90" as="geometry" />
        </mxCell>
        <mxCell id="nvT3yYiENmu1uWHt5n6_-14" value="Consumer" style="rounded=1;whiteSpace=wrap;html=1;fontFamily=Courier New;fontSize=18;fontColor=#000000;strokeColor=#000000;strokeWidth=2;align=center;" vertex="1" parent="nvT3yYiENmu1uWHt5n6_-13">
          <mxGeometry width="180" height="90" as="geometry" />
        </mxCell>
        <mxCell id="nvT3yYiENmu1uWHt5n6_-15" value="" style="shape=image;html=1;verticalAlign=top;verticalLabelPosition=bottom;labelBackgroundColor=#ffffff;imageAspect=0;aspect=fixed;image=https://cdn4.iconfinder.com/data/icons/scripting-and-programming-languages/512/Python_logo-128.png;fontFamily=Courier New;fontSize=18;fontColor=#000000;strokeColor=#000000;strokeWidth=2;" vertex="1" parent="nvT3yYiENmu1uWHt5n6_-13">
          <mxGeometry x="5" y="5" width="30" height="30" as="geometry" />
        </mxCell>
        <mxCell id="nvT3yYiENmu1uWHt5n6_-16" style="edgeStyle=orthogonalEdgeStyle;rounded=0;orthogonalLoop=1;jettySize=auto;html=1;entryX=0;entryY=0.5;entryDx=0;entryDy=0;strokeWidth=3;" edge="1" parent="1" source="fOmn5NKXTGddU6EdoQ0m-4" target="nvT3yYiENmu1uWHt5n6_-2">
          <mxGeometry relative="1" as="geometry">
            <mxPoint x="1180" y="325" as="targetPoint" />
          </mxGeometry>
        </mxCell>
        <mxCell id="nvT3yYiENmu1uWHt5n6_-17" style="edgeStyle=orthogonalEdgeStyle;rounded=0;orthogonalLoop=1;jettySize=auto;html=1;strokeWidth=2;" edge="1" parent="1" source="fOmn5NKXTGddU6EdoQ0m-21">
          <mxGeometry relative="1" as="geometry">
            <mxPoint x="1220" y="330" as="targetPoint" />
          </mxGeometry>
        </mxCell>
        <mxCell id="nvT3yYiENmu1uWHt5n6_-18" style="edgeStyle=orthogonalEdgeStyle;rounded=0;orthogonalLoop=1;jettySize=auto;html=1;" edge="1" parent="1" source="fOmn5NKXTGddU6EdoQ0m-69">
          <mxGeometry relative="1" as="geometry">
            <mxPoint x="1220" y="330" as="targetPoint" />
            <Array as="points">
              <mxPoint x="1170" y="453" />
              <mxPoint x="1170" y="330" />
            </Array>
          </mxGeometry>
        </mxCell>
        <mxCell id="nvT3yYiENmu1uWHt5n6_-19" style="edgeStyle=orthogonalEdgeStyle;rounded=0;orthogonalLoop=1;jettySize=auto;html=1;entryX=0;entryY=0.5;entryDx=0;entryDy=0;" edge="1" parent="1" source="fOmn5NKXTGddU6EdoQ0m-77" target="nvT3yYiENmu1uWHt5n6_-2">
          <mxGeometry relative="1" as="geometry">
            <mxPoint x="1220" y="330" as="targetPoint" />
            <Array as="points">
              <mxPoint x="1170" y="554" />
              <mxPoint x="1170" y="330" />
              <mxPoint x="1220" y="330" />
            </Array>
          </mxGeometry>
        </mxCell>
      </root>
    </mxGraphModel>
  </diagram>
</mxfile>
